<svg width="121" height="16" viewBox="0 0 121 16" fill="none" xmlns="http://www.w3.org/2000/svg">
<path d="M120.707 8.70711C121.098 8.31658 121.098 7.68342 120.707 7.29289L114.343 0.928933C113.953 0.538408 113.319 0.538408 112.929 0.928933C112.538 1.31946 112.538 1.95262 112.929 2.34315L118.586 8L112.929 13.6569C112.538 14.0474 112.538 14.6805 112.929 15.0711C113.319 15.4616 113.953 15.4616 114.343 15.0711L120.707 8.70711ZM0 8V9H3.96694V8V7H0V8ZM6.94215 8V9H14.876V8V7H6.94215V8ZM17.8512 8V9H25.7851V8V7H17.8512V8ZM28.7603 8V9H36.6942V8V7H28.7603V8ZM39.6694 8V9H47.6033V8V7H39.6694V8ZM50.5785 8V9H58.5124V8V7H50.5785V8ZM61.4876 8V9H69.4215V8V7H61.4876V8ZM72.3967 8V9H80.3306V8V7H72.3967V8ZM83.3058 8V9H91.2397V8V7H83.3058V8ZM94.2149 8V9H102.149V8V7H94.2149V8ZM105.124 8V9H113.058V8V7H105.124V8ZM116.033 8V9H120V8V7H116.033V8ZM120.707 8.70711C121.098 8.31658 121.098 7.68342 120.707 7.29289L114.343 0.928933C113.953 0.538408 113.319 0.538408 112.929 0.928933C112.538 1.31946 112.538 1.95262 112.929 2.34315L118.586 8L112.929 13.6569C112.538 14.0474 112.538 14.6805 112.929 15.0711C113.319 15.4616 113.953 15.4616 114.343 15.0711L120.707 8.70711ZM0 8V9H3.96694V8V7H0V8ZM6.94215 8V9H14.876V8V7H6.94215V8ZM17.8512 8V9H25.7851V8V7H17.8512V8ZM28.7603 8V9H36.6942V8V7H28.7603V8ZM39.6694 8V9H47.6033V8V7H39.6694V8ZM50.5785 8V9H58.5124V8V7H50.5785V8ZM61.4876 8V9H69.4215V8V7H61.4876V8ZM72.3967 8V9H80.3306V8V7H72.3967V8ZM83.3058 8V9H91.2397V8V7H83.3058V8ZM94.2149 8V9H102.149V8V7H94.2149V8ZM105.124 8V9H113.058V8V7H105.124V8ZM116.033 8V9H120V8V7H116.033V8Z" fill="#F15625"/>
</svg>
