<svg width="32" height="32" viewBox="0 0 32 32" fill="none" xmlns="http://www.w3.org/2000/svg">
<path fill-rule="evenodd" clip-rule="evenodd" d="M28 16C28 15.4477 27.5522 15 27 15H5C4.4477 15 4 15.4477 4 16C4 16.5523 4.4477 17 5 17H27C27.5522 17 28 16.5523 28 16Z" fill="#F15625"/>
<path fill-rule="evenodd" clip-rule="evenodd" d="M14.7071 6.29289C14.3166 5.90237 13.6834 5.90237 13.2929 6.29289L4.29288 15.2929C3.90237 15.6834 3.90237 16.3166 4.29288 16.7071L13.2929 25.7071C13.6834 26.0976 14.3166 26.0976 14.7071 25.7071C15.0976 25.3166 15.0976 24.6834 14.7071 24.2929L6.41417 16L14.7071 7.70711C15.0976 7.31658 15.0976 6.68342 14.7071 6.29289Z" fill="#F15625"/>
</svg>
