<svg width="20" height="20" viewBox="0 0 20 20" fill="none" xmlns="http://www.w3.org/2000/svg">
<path d="M10.0003 9.16667V8.75M13.3337 9.16667V8.75M6.66699 9.16667V8.75M2.88699 14.0233C1.66699 13.0475 1.66699 12.3092 1.66699 9.16667C1.66699 6.02417 1.66699 4.4525 2.88699 3.47667C4.10866 2.5 6.07199 2.5 10.0003 2.5C13.9287 2.5 15.8928 2.5 17.1128 3.47667C18.3328 4.45333 18.3337 6.02417 18.3337 9.16667C18.3337 12.3092 18.3337 13.0475 17.1128 14.0233C15.8937 15 13.9287 15 10.0003 15C7.90866 15 6.83366 16.4483 5.00033 17.5V14.8233C4.08866 14.6875 3.41783 14.4483 2.88699 14.0233Z" stroke="white" stroke-width="1.5" stroke-linecap="round" stroke-linejoin="round"/>
</svg>
