<svg width="45" height="45" viewBox="0 0 45 45" fill="none" xmlns="http://www.w3.org/2000/svg">
<path d="M22.5 28.125C14.2125 28.125 7.5 31.4813 7.5 35.625V39.375H37.5V35.625C37.5 31.4813 30.7875 28.125 22.5 28.125ZM15 16.875C15 18.8641 15.7902 20.7718 17.1967 22.1783C18.6032 23.5848 20.5109 24.375 22.5 24.375C24.4891 24.375 26.3968 23.5848 27.8033 22.1783C29.2098 20.7718 30 18.8641 30 16.875M21.5625 3.75C21 3.75 20.625 4.14375 20.625 4.6875V10.3125H18.75V5.625C18.75 5.625 14.5312 7.2375 14.5312 12.6562C14.5312 12.6562 13.125 12.9187 13.125 15H31.875C31.7812 12.9187 30.4688 12.6562 30.4688 12.6562C30.4688 7.2375 26.25 5.625 26.25 5.625V10.3125H24.375V4.6875C24.375 4.14375 24.0187 3.75 23.4375 3.75H21.5625Z" fill="#F15625"/>
</svg>
