<?xml version="1.0" encoding="UTF-8"?>
<svg id="Layer_1" data-name="Layer 1" xmlns="http://www.w3.org/2000/svg" viewBox="0 0 51.6 37.33">
  <defs>
    <style>
      .cls-1 {
        fill: #f15625;
      }
    </style>
  </defs>
  <path class="cls-1" d="m2.33,21.76c-.66,0-1.21-.22-1.66-.67C.23,20.64,0,20.09,0,19.43c0-.66.22-1.22.67-1.66.45-.44,1-.67,1.66-.67h8.17c.66,0,1.22.22,1.66.67s.67,1,.67,1.66c0,.66-.23,1.21-.67,1.66-.45.45-1,.67-1.66.67H2.33Zm12.25,15.58c-1.94,0-3.6-.68-4.96-2.04-1.36-1.36-2.04-3.01-2.04-4.96h-2.92c-.78,0-1.4-.29-1.87-.88-.47-.58-.6-1.24-.41-1.98l.53-2.22h7.29c1.63,0,3.01-.56,4.14-1.69,1.13-1.13,1.69-2.51,1.69-4.14,0-.51-.06-.97-.18-1.4-.12-.43-.27-.86-.47-1.28h2.22c1.63,0,3.01-.56,4.14-1.69,1.13-1.13,1.69-2.51,1.69-4.14s-.56-3.01-1.69-4.14c-1.13-1.13-2.51-1.69-4.14-1.69h-8.87l.35-1.4c.23-1.09.77-1.97,1.61-2.65C11.54.34,12.52,0,13.65,0h23.68c.78,0,1.4.29,1.87.88.47.58.6,1.24.41,1.98l-1.52,6.48h4.49c.74,0,1.44.17,2.1.5.66.33,1.21.79,1.63,1.37l4.38,5.78c.43.54.7,1.14.82,1.78.12.64.12,1.29,0,1.95l-1.58,7.76c-.12.54-.39.99-.82,1.34-.43.35-.91.52-1.46.52h-2.74c0,1.94-.68,3.6-2.04,4.96-1.36,1.36-3.01,2.04-4.96,2.04s-3.6-.68-4.96-2.04c-1.36-1.36-2.04-3.01-2.04-4.96h-9.33c0,1.94-.68,3.6-2.04,4.96-1.36,1.36-3.01,2.04-4.96,2.04ZM7,13.24c-.66,0-1.21-.22-1.66-.67-.45-.45-.67-1-.67-1.66,0-.66.22-1.21.67-1.66.45-.45,1-.67,1.66-.67h10.5c.66,0,1.22.22,1.66.67.45.45.67,1,.67,1.66,0,.66-.23,1.21-.67,1.66-.45.45-1,.67-1.66.67H7Zm7.58,19.42c.66,0,1.22-.22,1.66-.67.45-.45.67-1,.67-1.66,0-.66-.23-1.21-.67-1.66-.45-.45-1-.67-1.66-.67s-1.21.22-1.66.67c-.45.45-.67,1-.67,1.66,0,.66.22,1.21.67,1.66.45.45,1,.67,1.66.67Zm23.33,0c.66,0,1.22-.22,1.66-.67s.67-1,.67-1.66c0-.66-.23-1.21-.67-1.66-.45-.45-1-.67-1.66-.67s-1.21.22-1.66.67c-.45.45-.67,1-.67,1.66,0,.66.22,1.21.67,1.66.45.45,1,.67,1.66.67Zm-2.51-11.67h11.26l.23-1.23-4.32-5.77h-5.54l-1.63,7Z"/>
</svg>