<svg width="57" height="56" viewBox="0 0 57 56" fill="none" xmlns="http://www.w3.org/2000/svg">
<path d="M4.58334 31.0918C3.92223 31.0918 3.36845 30.8686 2.92201 30.4222C2.47556 29.9757 2.25156 29.4212 2.25001 28.7585C2.24845 28.0958 2.47245 27.5421 2.92201 27.0972C3.37156 26.6523 3.92534 26.4283 4.58334 26.4252H12.75C13.4111 26.4252 13.9657 26.6492 14.4137 27.0972C14.8617 27.5452 15.0849 28.0989 15.0833 28.7585C15.0818 29.4181 14.8578 29.9726 14.4113 30.4222C13.9649 30.8717 13.4111 31.0949 12.75 31.0918H4.58334ZM16.8333 46.6668C14.8889 46.6668 13.2361 45.9863 11.875 44.6252C10.5139 43.264 9.83334 41.6113 9.83334 39.6668H6.91667C6.1389 39.6668 5.51667 39.3752 5.05001 38.7918C4.58334 38.2085 4.44723 37.5474 4.64167 36.8085L5.16667 34.5918H12.4583C14.0917 34.5918 15.4722 34.0279 16.6 32.9002C17.7278 31.7724 18.2917 30.3918 18.2917 28.7585C18.2917 28.2529 18.2333 27.7863 18.1167 27.3585C18 26.9307 17.8445 26.5029 17.65 26.0752H19.8667C21.5 26.0752 22.8806 25.5113 24.0083 24.3835C25.1361 23.2557 25.7 21.8752 25.7 20.2418C25.7 18.6085 25.1361 17.2279 24.0083 16.1002C22.8806 14.9724 21.5 14.4085 19.8667 14.4085H11L11.35 13.0085C11.5833 11.9196 12.1185 11.0353 12.9553 10.3555C13.7922 9.67572 14.7738 9.33505 15.9 9.3335H39.5833C40.3611 9.3335 40.9833 9.62516 41.45 10.2085C41.9167 10.7918 42.0528 11.4529 41.8583 12.1918L40.3417 18.6668H44.8333C45.5722 18.6668 46.2722 18.8325 46.9333 19.1638C47.5945 19.4952 48.1389 19.9517 48.5667 20.5335L52.9417 26.3085C53.3695 26.8529 53.6417 27.4464 53.7583 28.0888C53.875 28.7313 53.875 29.3823 53.7583 30.0418L52.1833 37.8002C52.0667 38.3446 51.7944 38.7918 51.3667 39.1418C50.9389 39.4918 50.4528 39.6668 49.9083 39.6668H47.1667C47.1667 41.6113 46.4861 43.264 45.125 44.6252C43.7639 45.9863 42.1111 46.6668 40.1667 46.6668C38.2222 46.6668 36.5695 45.9863 35.2083 44.6252C33.8472 43.264 33.1667 41.6113 33.1667 39.6668H23.8333C23.8333 41.6113 23.1528 43.264 21.7917 44.6252C20.4306 45.9863 18.7778 46.6668 16.8333 46.6668ZM9.25001 22.5752C8.5889 22.5752 8.03512 22.3512 7.58867 21.9032C7.14223 21.4552 6.91823 20.9014 6.91667 20.2418C6.91512 19.5823 7.13912 19.0285 7.58867 18.5805C8.03823 18.1325 8.59201 17.9085 9.25001 17.9085H19.75C20.4111 17.9085 20.9657 18.1325 21.4137 18.5805C21.8617 19.0285 22.0849 19.5823 22.0833 20.2418C22.0818 20.9014 21.8578 21.4559 21.4113 21.9055C20.9649 22.3551 20.4111 22.5783 19.75 22.5752H9.25001ZM16.8333 42.0002C17.4945 42.0002 18.049 41.7762 18.497 41.3282C18.945 40.8802 19.1682 40.3264 19.1667 39.6668C19.1651 39.0073 18.9411 38.4535 18.4947 38.0055C18.0482 37.5575 17.4945 37.3335 16.8333 37.3335C16.1722 37.3335 15.6185 37.5575 15.172 38.0055C14.7256 38.4535 14.5016 39.0073 14.5 39.6668C14.4985 40.3264 14.7225 40.8809 15.172 41.3305C15.6216 41.78 16.1753 42.0033 16.8333 42.0002ZM40.1667 42.0002C40.8278 42.0002 41.3823 41.7762 41.8303 41.3282C42.2783 40.8802 42.5016 40.3264 42.5 39.6668C42.4985 39.0073 42.2745 38.4535 41.828 38.0055C41.3816 37.5575 40.8278 37.3335 40.1667 37.3335C39.5056 37.3335 38.9518 37.5575 38.5053 38.0055C38.0589 38.4535 37.8349 39.0073 37.8333 39.6668C37.8318 40.3264 38.0558 40.8809 38.5053 41.3305C38.9549 41.78 39.5087 42.0033 40.1667 42.0002ZM37.6583 30.3335H48.9167L49.15 29.1085L44.8333 23.3335H39.2917L37.6583 30.3335Z" fill="#F25550"/>
</svg>
