<svg width="57" height="56" viewBox="0 0 57 56" fill="none" xmlns="http://www.w3.org/2000/svg">
<path d="M47.9085 9.29141L29.3257 2.95859C29.1015 2.88203 28.8007 2.84375 28.4999 2.84375C28.1992 2.84375 27.8984 2.88203 27.6742 2.95859L9.09135 9.29141C8.63744 9.44453 8.26556 9.96953 8.26556 10.4508V36.832C8.26556 37.3133 8.57728 37.9477 8.95463 38.2484L27.8054 52.9375C27.9968 53.0852 28.2429 53.1617 28.4945 53.1617C28.746 53.1617 28.9976 53.0852 29.1835 52.9375L48.0343 38.2484C48.4117 37.9531 48.7234 37.3187 48.7234 36.832V10.4508C48.7343 9.96953 48.3624 9.45 47.9085 9.29141ZM38.4804 18.632L26.8538 34.6391C26.7721 34.7509 26.6651 34.8419 26.5416 34.9047C26.4181 34.9674 26.2815 35.0001 26.1429 35.0001C26.0044 35.0001 25.8678 34.9674 25.7442 34.9047C25.6207 34.8419 25.5137 34.7509 25.432 34.6391L18.5195 25.1234C18.3117 24.8336 18.5195 24.4289 18.8749 24.4289H21.8937C22.1726 24.4289 22.4406 24.5656 22.6046 24.7898L26.1429 29.657L34.3953 18.293C34.5593 18.0688 34.8218 17.932 35.1062 17.932H38.1249C38.4804 17.9375 38.6882 18.3422 38.4804 18.632Z" fill="#F25550"/>
</svg>
