<svg width="18" height="18" viewBox="0 0 18 18" fill="none" xmlns="http://www.w3.org/2000/svg">
<path d="M17.3334 12.5076C17.3334 15.541 15.525 17.3493 12.4917 17.3493H11.5C11.0417 17.3493 10.6667 16.9743 10.6667 16.516V11.7076C10.6667 11.4826 10.85 11.291 11.075 11.291L12.5417 11.266C12.6584 11.2576 12.7584 11.1743 12.7834 11.0576L13.075 9.46596C13.1 9.31596 12.9834 9.17429 12.825 9.17429L11.05 9.19928C10.8167 9.19928 10.6334 9.01596 10.625 8.79096L10.5917 6.74928C10.5917 6.61595 10.7 6.49929 10.8417 6.49929L12.8417 6.46595C12.9833 6.46595 13.0917 6.35763 13.0917 6.21596L13.0583 4.21594C13.0583 4.07428 12.95 3.96595 12.8084 3.96595L10.5583 3.99929C9.17502 4.02429 8.07503 5.15762 8.10003 6.54095L8.14169 8.83262C8.15002 9.06595 7.9667 9.24929 7.73336 9.25762L6.73335 9.27428C6.59169 9.27428 6.48336 9.3826 6.48336 9.52427L6.50836 11.1076C6.50836 11.2493 6.61668 11.3576 6.75835 11.3576L7.75836 11.341C7.99169 11.341 8.17501 11.5243 8.18334 11.7493L8.25834 16.4993C8.26667 16.966 7.89167 17.3493 7.42501 17.3493H5.50835C2.47502 17.3493 0.666687 15.5409 0.666687 12.4993V5.52428C0.666687 2.49095 2.47502 0.682617 5.50835 0.682617H12.4917C15.525 0.682617 17.3334 2.49095 17.3334 5.52428V12.5076V12.5076Z" fill="white" fill-opacity="0.8"/>
</svg>
