<svg width="18" height="18" viewBox="0 0 18 18" fill="none" xmlns="http://www.w3.org/2000/svg">
<path d="M9 0.265625C4.16797 0.265625 0.25 4.28516 0.25 9.23828C0.25 13.2031 2.75781 16.5625 6.23438 17.75C6.28314 17.7606 6.33291 17.7658 6.38281 17.7656C6.70703 17.7656 6.83203 17.5273 6.83203 17.3203C6.83203 17.1055 6.82422 16.543 6.82031 15.793C6.53088 15.8608 6.23478 15.8962 5.9375 15.8984C4.25391 15.8984 3.87109 14.5898 3.87109 14.5898C3.47266 13.5547 2.89844 13.2773 2.89844 13.2773C2.13672 12.7422 2.89453 12.7266 2.95312 12.7266H2.95703C3.83594 12.8047 4.29688 13.6562 4.29688 13.6562C4.73438 14.4219 5.32031 14.6367 5.84375 14.6367C6.18986 14.6298 6.53061 14.5499 6.84375 14.4023C6.92188 13.8242 7.14844 13.4297 7.39844 13.2031C5.45703 12.9766 3.41406 12.207 3.41406 8.76953C3.41406 7.78906 3.75391 6.98828 4.3125 6.36328C4.22266 6.13672 3.92188 5.22266 4.39844 3.98828C4.46236 3.97298 4.52806 3.96641 4.59375 3.96875C4.91016 3.96875 5.625 4.08984 6.80469 4.91016C8.2381 4.50911 9.75409 4.50911 11.1875 4.91016C12.3672 4.08984 13.082 3.96875 13.3984 3.96875C13.4641 3.96641 13.5298 3.97298 13.5938 3.98828C14.0703 5.22266 13.7695 6.13672 13.6797 6.36328C14.2383 6.99219 14.5781 7.79297 14.5781 8.76953C14.5781 12.2148 12.5312 12.9727 10.582 13.1953C10.8945 13.4727 11.1758 14.0195 11.1758 14.8555C11.1758 16.0547 11.1641 17.0234 11.1641 17.3164C11.1641 17.5273 11.2852 17.7656 11.6094 17.7656C11.6619 17.7659 11.7142 17.7606 11.7656 17.75C15.2461 16.5625 17.75 13.1992 17.75 9.23828C17.75 4.28516 13.832 0.265625 9 0.265625Z" fill="white"/>
</svg>
