<svg width="57" height="45" viewBox="0 0 57 45" fill="none" xmlns="http://www.w3.org/2000/svg">
<g clip-path="url(#clip0_427_1292)">
<path d="M28.4642 7.48828L19.9942 14.3789C18.5854 15.5215 18.3142 17.5781 19.3817 19.0459C20.5104 20.6104 22.7067 20.918 24.2204 19.7314L32.9092 12.9463C33.5217 12.4717 34.3967 12.5771 34.8779 13.1924C35.3592 13.8076 35.2454 14.6865 34.6329 15.1699L32.8042 16.5938L44.9667 27.8437V11.25H44.9054L44.5642 11.0303L38.2117 6.94336C36.8729 6.08203 35.3067 5.625 33.7142 5.625C31.8067 5.625 29.9517 6.28418 28.4642 7.48828ZM30.4592 18.4219L25.9354 21.9551C23.1792 24.1172 19.1804 23.5547 17.1154 20.707C15.1729 18.0264 15.6629 14.2822 18.2267 12.1992L25.5067 6.28418C24.4917 5.85352 23.3979 5.63379 22.2867 5.63379C20.6417 5.625 19.0404 6.11719 17.6667 7.03125L11.3667 11.25V30.9375H13.8342L21.8317 38.2676C23.5467 39.8408 26.1979 39.7178 27.7642 37.9951C28.2454 37.459 28.5692 36.835 28.7354 36.1846L30.2229 37.5557C31.9292 39.1289 34.5892 39.0146 36.1554 37.3008C36.5492 36.8701 36.8379 36.3691 37.0217 35.8506C38.7192 36.9932 41.0292 36.7559 42.4554 35.1914C44.0217 33.4775 43.9079 30.8057 42.2017 29.2324L30.4592 18.4219ZM1.56669 11.25C0.796687 11.25 0.166687 11.8828 0.166687 12.6562V30.9375C0.166687 32.4932 1.41794 33.75 2.96669 33.75H5.76669C7.31544 33.75 8.56669 32.4932 8.56669 30.9375V11.25H1.56669ZM4.36669 28.125C4.73799 28.125 5.09409 28.2732 5.35664 28.5369C5.61919 28.8006 5.76669 29.1583 5.76669 29.5312C5.76669 29.9042 5.61919 30.2619 5.35664 30.5256C5.09409 30.7893 4.73799 30.9375 4.36669 30.9375C3.99538 30.9375 3.63929 30.7893 3.37674 30.5256C3.11419 30.2619 2.96669 29.9042 2.96669 29.5312C2.96669 29.1583 3.11419 28.8006 3.37674 28.5369C3.63929 28.2732 3.99538 28.125 4.36669 28.125ZM47.7667 11.25V30.9375C47.7667 32.4932 49.0179 33.75 50.5667 33.75H53.3667C54.9154 33.75 56.1667 32.4932 56.1667 30.9375V12.6562C56.1667 11.8828 55.5367 11.25 54.7667 11.25H47.7667ZM50.5667 29.5312C50.5667 29.1583 50.7142 28.8006 50.9767 28.5369C51.2393 28.2732 51.5954 28.125 51.9667 28.125C52.338 28.125 52.6941 28.2732 52.9566 28.5369C53.2192 28.8006 53.3667 29.1583 53.3667 29.5312C53.3667 29.9042 53.2192 30.2619 52.9566 30.5256C52.6941 30.7893 52.338 30.9375 51.9667 30.9375C51.5954 30.9375 51.2393 30.7893 50.9767 30.5256C50.7142 30.2619 50.5667 29.9042 50.5667 29.5312Z" fill="#F15625"/>
</g>
<defs>
<clipPath id="clip0_427_1292">
<rect width="56" height="45" fill="white" transform="translate(0.166687)"/>
</clipPath>
</defs>
</svg>
