<svg width="24" height="24" viewBox="0 0 24 24" fill="none" xmlns="http://www.w3.org/2000/svg">
<path d="M10 6.3C6.6 7.2 4 10.3 4 14V16M10 10V5C10 4.4 10.4 4 11 4H13C13.6 4 14 4.4 14 5V10M20 16V14C20 10.3 17.4 7.2 14 6.3" stroke="#666666" stroke-width="1.66667" stroke-linecap="round" stroke-linejoin="round"/>
<path d="M21 16H3C2.44772 16 2 16.4477 2 17V19C2 19.5523 2.44772 20 3 20H21C21.5523 20 22 19.5523 22 19V17C22 16.4477 21.5523 16 21 16Z" stroke="#666666" stroke-width="1.66667" stroke-linecap="round" stroke-linejoin="round"/>
</svg>
