<svg width="20" height="20" viewBox="0 0 20 20" fill="none" xmlns="http://www.w3.org/2000/svg">
<path d="M10.8334 18.3334C10.1517 18.3334 9.50008 18.0492 8.19758 17.4801C6.67675 16.8167 5.51341 16.3084 4.70591 15.8334H1.66675M10.8334 18.3334C11.5151 18.3334 12.1667 18.0492 13.4692 17.4801C16.7117 16.0651 18.3334 15.3584 18.3334 14.1667V5.41675M10.8334 18.3334V9.16675M3.33341 5.41675V7.91675" stroke="#666666" stroke-width="1.25" stroke-linecap="round" stroke-linejoin="round"/>
<path d="M15.1142 3.34675L6.55591 7.48758M1.66675 10.8334H4.16675M1.66675 13.3334H4.16675M7.77175 8.07591L5.33758 6.89841C4.00175 6.25175 3.33341 5.92841 3.33341 5.41675C3.33341 4.90508 4.00175 4.58175 5.33758 3.93508L7.77091 2.75758C9.27508 2.03008 10.0251 1.66675 10.8334 1.66675C11.6417 1.66675 12.3926 2.03008 13.8951 2.75758L16.3292 3.93508C17.6651 4.58175 18.3334 4.90508 18.3334 5.41675C18.3334 5.92841 17.6651 6.25175 16.3292 6.89841L13.8959 8.07591C12.3917 8.80341 11.6417 9.16675 10.8334 9.16675C10.0251 9.16675 9.27425 8.80341 7.77175 8.07591Z" stroke="#666666" stroke-width="1.25" stroke-linecap="round" stroke-linejoin="round"/>
</svg>
