<svg width="100" height="100" viewBox="0 0 100 100" fill="none" xmlns="http://www.w3.org/2000/svg">
<path d="M80.8333 74.5083C79.95 73.8777 79.4972 74.5305 79.0194 75.1138C75.289 79.7015 70.5771 83.394 65.2306 85.9194C61.1456 87.8262 56.7686 89.031 52.2833 89.4833C44.2611 90.375 36.7056 88.8444 29.6306 85.1138C22.9362 81.6272 17.3903 76.2829 13.6583 69.7222C12.0556 66.9444 10.9639 63.9833 9.96389 60.9694C9.79141 60.5911 9.71599 60.1758 9.74444 59.7611C10.2778 59.3472 10.8861 59.4444 11.475 59.4444C21.6194 59.4444 31.7667 59.4444 41.9111 59.4166C42.528 59.3812 43.1432 59.5107 43.6935 59.7919C44.2437 60.0731 44.709 60.4959 45.0417 61.0166C48 65.15 51.9056 67.9611 56.9306 68.9833C62.3056 70.0611 67.4861 69.5138 72.2583 66.5666C73.9445 65.5305 73.9889 65.5583 75.4194 66.9805C76.4278 67.9805 77.4222 68.925 77.8028 70.4444C78.0806 71.4916 79.2389 72.0833 79.9611 72.9166C80.3639 73.375 81.0222 73.7166 80.8333 74.5083Z" fill="#FFD9CD"/>
<path d="M80.8334 74.5083C80.0139 73.6417 79.2028 72.7666 78.375 71.9055C77.7389 71.2444 77.1889 70.6528 77.1334 69.5694C77.0834 68.6278 75.9084 68.1805 75.3528 67.3917C74.4667 66.1583 73.7028 66.0028 72.2528 66.9333C63.45 72.5055 51.1723 70.1278 45.05 61.7055C43.9695 60.2194 42.8889 59.6472 41.0139 59.6694C30.5917 59.7944 20.1667 59.7472 9.74449 59.7583C7.86116 59.0611 7.12504 57.7278 7.13338 55.7111C7.18616 44.2778 7.15838 32.8472 7.15838 21.4139C7.15838 19.0667 7.15838 16.7194 7.15838 14.3722C7.15838 11.85 8.34727 10.6194 10.8778 10.6194C28.3926 10.6028 45.9075 10.6028 63.4223 10.6194C64.7973 10.6194 65.9445 11.0555 66.7556 12.2194C67.4639 13.5778 67.3112 15.0861 67.3695 16.5222C67.5417 19.9305 67.4223 23.3472 67.3695 26.7611C67.35 28.1167 67.8195 28.8111 69.0917 29.3389C76.5084 32.425 81.1389 37.9028 82.425 45.875C83.2056 50.7278 82.4917 55.4667 79.8612 59.7444C79.2556 60.7278 79.3195 61.3639 80.175 62.1083C81.2112 63.0083 82.0417 64.1361 83.5223 64.4389C84.3723 64.6139 84.6 65.5111 85.0334 66.1472C87.0167 68.1991 89 70.25 90.9834 72.3C91.8167 73.1611 92.6806 73.9972 92.9862 75.2222C93.207 76.1001 93.1489 77.025 92.8199 77.8683C92.4908 78.7116 91.9071 79.4315 91.15 79.9278C89.5945 80.9694 87.5973 80.9972 86.15 79.7278C84.5612 78.3389 83.1445 76.7528 81.6473 75.2555C81.3889 75 81.1112 74.7528 80.8334 74.5083Z" fill="#1A3D38"/>
<path d="M85.0389 66.1361C84.1792 65.3633 83.1837 64.7568 82.1028 64.3472C80.8194 63.8805 79.9083 62.3416 78.8972 61.2111C78.5556 60.8277 79.0306 60.4388 79.2306 60.0999C82.8417 54.2416 83.3278 47.9999 80.9861 41.6694C78.8361 35.8638 74.6417 31.8138 68.8111 29.6194C67.5528 29.1472 67.0556 28.6166 67.0917 27.1999C67.2028 22.9666 67.1139 18.7249 67.1222 14.4888C67.1385 13.7173 67.0143 12.9492 66.7556 12.2222C66.9547 12.2952 67.1206 12.4378 67.2228 12.6236C67.3249 12.8095 67.3563 13.0261 67.3111 13.2333C67.0778 14.4972 67.7639 15.1138 68.7528 15.7111C73.7069 18.6641 77.9552 22.665 81.1999 27.4332C84.4447 32.2014 86.6072 37.6216 87.5361 43.3138C87.9375 45.7604 88.1234 48.2375 88.0917 50.7166C88.025 55.4555 87.0167 59.9999 85.3583 64.4111C85.1208 64.9539 85.0115 65.5442 85.0389 66.1361Z" fill="#FFD9CD"/>
<path d="M42.875 58.7056H11.3722C8.8 58.7056 8.13889 58.0667 8.13611 55.5473C8.13611 44.1028 8.13611 32.6584 8.11389 21.214C8.11389 20.1723 8.31667 19.7973 9.46389 19.8001C27.9194 19.839 46.3759 19.839 64.8333 19.8001C65.8056 19.8001 66.2222 19.9584 66.1889 21.0667C66.0972 23.289 66.1639 25.5112 66.1583 27.7112C66.1583 28.1973 66.3028 28.7973 65.4306 28.6612C61.2083 28.0001 57.0833 28.3167 53.0722 30.0501C53.6278 26.6751 52.6889 24.6278 50.2222 23.7834C49.8312 23.6483 49.4239 23.5661 49.0111 23.539C47.0417 23.4056 46.7611 23.7751 47.3778 25.6362C47.9944 27.4973 48.6167 29.4001 49.2694 31.2723C49.4778 31.8751 49.3194 32.2056 48.8667 32.6806C47.5278 34.089 45.9944 34.4723 44.0667 34.4473C36.0417 34.339 28.0111 34.4278 19.9833 34.3751C18.7361 34.3751 18.4 34.7501 18.4444 35.9473C18.5306 38.2973 18.5417 40.6695 18.4444 43.0056C18.3889 44.3306 18.8778 44.6223 20.1111 44.6112C26.7083 44.5556 33.3083 44.6112 39.9056 44.5639C40.8944 44.5639 41.2333 44.6695 41.0528 45.8223C40.4028 49.9612 40.8194 54.0001 42.625 57.839C42.7304 58.121 42.814 58.4108 42.875 58.7056Z" fill="#FEFEFE"/>
<path d="M37.1722 18.7277C27.9472 18.7277 18.725 18.7082 9.5 18.7499C8.42778 18.7499 7.99167 18.5055 8.11111 17.3805C8.16207 16.5054 8.16856 15.6284 8.13056 14.7527C8.13056 12.3305 8.85278 11.6055 11.2528 11.6055H39.6222C47.4167 11.6055 55.2111 11.6055 63.0056 11.6055C65.4611 11.6055 66.1722 12.2888 66.1528 14.7055C66.1528 15.986 66.6889 17.636 65.9389 18.4499C65.1889 19.2638 63.4917 18.7082 62.2139 18.7277C53.8667 18.7388 45.5194 18.7277 37.1722 18.7277Z" fill="#FEFEFE"/>
<path d="M61.4694 29.3139C72.3861 29.225 81.2333 37.9889 81.35 49.0083C81.4667 59.9306 72.7389 68.775 61.6945 68.9195C50.7444 69.0611 41.7417 60.1528 41.725 49.1611C41.7139 43.9117 43.7873 38.8726 47.4896 35.1511C51.1918 31.4296 56.2201 29.3301 61.4694 29.3139Z" fill="#FEFEFE"/>
<path d="M45.8806 35.4167C43.8444 37.8417 42.4556 40.2556 41.625 42.9612C41.4361 43.5667 41.0278 43.5612 40.5556 43.5612C33.8306 43.5612 27.1083 43.5612 20.3861 43.5751C19.5528 43.5751 19.3917 43.2334 19.4056 42.5028C19.4389 40.4778 19.4306 38.4501 19.4056 36.4251C19.4056 35.7945 19.4556 35.4001 20.2694 35.4028C28.3731 35.4251 36.4769 35.4251 44.5806 35.4028L45.8806 35.4167Z" fill="#F15625"/>
<path d="M88.8889 79.6555C88.3972 79.6607 87.9098 79.5648 87.4567 79.3736C87.0037 79.1825 86.5949 78.9002 86.2556 78.5444C83.7139 75.9444 81.1861 73.3277 78.6222 70.7472C78.0667 70.1722 78.1361 69.786 78.6778 69.2777C79.7889 68.236 80.8695 67.1722 81.9222 66.0749C82.4778 65.486 82.9195 65.4499 83.5111 66.0749C86.0278 68.6777 88.6111 71.2499 91.1111 73.8888C92.1083 74.9305 92.4444 76.1888 91.8417 77.5805C91.6027 78.1747 91.1966 78.6869 90.6725 79.0552C90.1485 79.4235 89.529 79.632 88.8889 79.6555Z" fill="#F15625"/>
<path d="M81.2278 65.4306C80.8528 65.7584 80.3778 66.1251 79.9611 66.5417C77.9278 68.6084 77.9972 68.5473 75.9028 66.5834C74.8639 65.6112 74.6195 64.9695 75.9222 64.1223C76.7833 63.5667 77.2361 62.0084 78.1778 62.1778C79.0278 62.3306 79.6944 63.5473 80.425 64.3112C80.7028 64.6084 81.1111 64.7945 81.2278 65.4306Z" fill="#FCFCFD"/>
<path d="M52.3333 28.3971C52.2793 28.7229 52.1946 29.0428 52.0806 29.3527C51.775 30.0805 51.3889 31.0027 50.6195 31.0444C49.85 31.086 49.9389 30.0277 49.7222 29.4444C49.1972 28.0749 48.8 26.6666 48.3028 25.2777C48.0639 24.6055 48.3028 24.4749 48.925 24.4999C50.7667 24.5694 52.3611 26.2582 52.3333 28.3971Z" fill="#FFAA8F"/>
<path d="M26.6917 22.9443C27.3601 22.9398 28.0227 23.0688 28.6407 23.3237C29.2586 23.5786 29.8195 23.9544 30.2904 24.4288C30.7612 24.9033 31.1326 25.467 31.3828 26.0869C31.633 26.7068 31.7569 27.3704 31.7472 28.0388C31.7568 28.7179 31.6306 29.3921 31.3761 30.0217C31.1216 30.6514 30.7438 31.2239 30.2651 31.7056C29.7863 32.1873 29.2161 32.5686 28.5881 32.827C27.96 33.0854 27.2866 33.2157 26.6074 33.2103C25.9283 33.205 25.2571 33.064 24.6331 32.7957C24.0092 32.5274 23.4451 32.1372 22.974 31.648C22.503 31.1588 22.1343 30.5804 21.8898 29.9468C21.6452 29.3132 21.5297 28.6371 21.55 27.9582C21.5554 27.2905 21.693 26.6305 21.9549 26.0163C22.2168 25.4021 22.5978 24.8458 23.0758 24.3796C23.5539 23.9135 24.1196 23.5466 24.7402 23.3003C25.3608 23.0539 26.024 22.9329 26.6917 22.9443Z" fill="#1A3D38"/>
<path d="M43.3472 31.8C42.4278 31.8 41.5056 31.8 40.5861 31.8C39.7333 31.8 39.3667 31.5361 39.7833 30.6333C40.7861 28.4639 41.7472 26.2778 42.7333 24.1C42.8444 23.8528 42.9694 23.5778 43.2889 23.5445C43.6944 23.5111 43.8445 23.8222 43.9722 24.1222C44.9778 26.3445 45.975 28.5667 46.9806 30.7889C47.3389 31.5806 46.9222 31.7889 46.2445 31.7945C45.2778 31.8083 44.3139 31.8 43.3472 31.8Z" fill="#1A3D38"/>
<path d="M32.95 27.2445C32.95 24.2084 32.95 24.189 36.0556 24.2112C39.5778 24.2362 39.0806 23.7334 39.1111 27.3084C39.1333 30.3806 39.1111 30.3806 36.0556 30.3806C32.95 30.3806 32.95 30.3806 32.95 27.2445Z" fill="#1A3D38"/>
<path d="M24.1444 15.3361C24.1444 16.3028 23.2222 17.2389 22.2833 17.1417C21.2556 17.0333 20.6 16.4222 20.5194 15.3667C20.4932 15.1152 20.5198 14.8611 20.5976 14.6206C20.6753 14.38 20.8025 14.1584 20.9709 13.9699C21.1393 13.7814 21.3453 13.6301 21.5756 13.5259C21.8059 13.4217 22.0554 13.3667 22.3082 13.3646C22.561 13.3624 22.8114 13.4131 23.0434 13.5135C23.2755 13.6138 23.484 13.7615 23.6556 13.9472C23.8271 14.1328 23.958 14.3522 24.0398 14.5914C24.1216 14.8306 24.1525 15.0843 24.1306 15.3361H24.1444Z" fill="#1A3D38"/>
<path d="M15.3028 15.1444C15.3279 14.9048 15.4005 14.6727 15.5164 14.4614C15.6322 14.2502 15.7889 14.0642 15.9774 13.9142C16.166 13.7642 16.3824 13.6533 16.6143 13.5879C16.8461 13.5225 17.0887 13.5039 17.3278 13.5333C17.5691 13.5503 17.8042 13.6177 18.0179 13.7314C18.2315 13.845 18.4189 14.0022 18.5679 14.1928C18.7169 14.3835 18.8242 14.6033 18.8828 14.838C18.9415 15.0728 18.9502 15.3172 18.9083 15.5555C18.7361 16.6111 18.0444 17.1583 16.9944 17.1277C16.025 17.1 15.2083 16.0833 15.3028 15.1444Z" fill="#1A3D38"/>
<path d="M13.7528 15.2778C13.7328 15.7603 13.5341 16.2181 13.1952 16.5621C12.8563 16.9061 12.4016 17.1118 11.9194 17.1389C10.9472 17.1389 10.0361 16.2306 10.1111 15.2723C10.1944 14.2278 10.7694 13.5806 11.8583 13.5167C12.0988 13.5059 12.3391 13.5431 12.5651 13.6261C12.7911 13.7092 12.9983 13.8363 13.1746 14.0003C13.3509 14.1642 13.4929 14.3616 13.5921 14.5809C13.6914 14.8003 13.746 15.0372 13.7528 15.2778Z" fill="#1A3D38"/>
<path d="M45.0694 49.1666C45.1194 39.8888 52.3611 32.6194 61.5222 32.6527C70.6167 32.6888 78.1417 40.136 78.0583 49.0194C77.9722 58.1444 70.5583 65.6638 61.6694 65.6249C52.4722 65.5944 45.0222 58.211 45.0694 49.1666Z" fill="#1A3D38"/>
<path d="M22.9972 39.4889C22.9972 40.0445 22.9972 40.5834 22.9972 41.1306C22.9972 41.4667 22.925 41.8056 22.5306 41.8445C22.1361 41.8834 21.9528 41.5917 21.9472 41.2361C21.9306 40.0528 21.9306 38.8685 21.9472 37.6834C21.9424 37.6037 21.9556 37.5241 21.9858 37.4502C22.016 37.3764 22.0624 37.3104 22.1217 37.257C22.1809 37.2036 22.2515 37.1643 22.328 37.1419C22.4046 37.1195 22.4852 37.1147 22.5639 37.1278C22.8833 37.1584 22.9944 37.4334 22.9972 37.7278C23.0028 38.3056 22.9972 38.8889 22.9972 39.4889Z" fill="#1A3D38"/>
<path d="M26.5889 23.9084C27.6734 23.8933 28.7201 24.3068 29.5015 25.0591C30.2828 25.8114 30.7357 26.8417 30.7617 27.926C30.7876 29.0103 30.3846 30.0611 29.6402 30.85C28.8958 31.6388 27.8701 32.102 26.7861 32.1389C26.2423 32.1574 25.7003 32.0679 25.1913 31.8756C24.6823 31.6834 24.2165 31.3921 23.8208 31.0187C23.4251 30.6453 23.1073 30.1971 22.8859 29.7001C22.6644 29.2031 22.5437 28.6672 22.5307 28.1232C22.5177 27.5793 22.6126 27.0382 22.81 26.5312C23.0073 26.0242 23.3033 25.5613 23.6807 25.1693C24.058 24.7774 24.5094 24.4642 25.0085 24.2477C25.5077 24.0313 26.0449 23.9159 26.5889 23.9084Z" fill="#F15625"/>
<path d="M43.3528 25.2527C44.1861 27.0444 44.8833 28.586 45.5917 30.1499C45.7611 30.5277 45.6806 30.7749 45.2167 30.7832C45.125 30.7832 45.0306 30.7832 44.9389 30.7832C40.6417 31.1305 40.6417 31.1305 42.425 27.2555L43.3528 25.2527Z" fill="#FFAA8F"/>
<path d="M38.1278 27.2444C38.1278 29.3638 38.1278 29.3805 35.8889 29.361C33.65 29.3416 33.9889 29.7082 33.9667 27.0777C33.95 25.2388 33.9667 25.2305 36.4667 25.2416C38.3611 25.2499 38.1028 25.0277 38.1278 27.2444Z" fill="#FFAA8F"/>
<path d="M23.1444 15.3416C23.1329 15.5528 23.0394 15.7512 22.8837 15.8944C22.728 16.0376 22.5226 16.1144 22.3111 16.1083C22.2072 16.1219 22.1015 16.1118 22.0021 16.0787C21.9026 16.0455 21.812 15.9902 21.7371 15.9169C21.6622 15.8436 21.6049 15.7542 21.5696 15.6555C21.5343 15.5568 21.5219 15.4514 21.5333 15.3472C21.5333 14.7916 21.8111 14.4583 22.3667 14.5138C22.8556 14.5388 23.1 14.8722 23.1444 15.3416Z" fill="#FFD9CD"/>
<path d="M17.1194 16.1332C16.6417 16.1027 16.3417 15.8693 16.3306 15.3777C16.3184 15.263 16.3312 15.147 16.3681 15.0377C16.405 14.9284 16.465 14.8284 16.5442 14.7445C16.6233 14.6606 16.7197 14.5948 16.8267 14.5516C16.9336 14.5084 17.0487 14.4889 17.1639 14.4943C17.2676 14.4835 17.3725 14.4956 17.4711 14.5296C17.5697 14.5637 17.6596 14.6189 17.7345 14.6915C17.8095 14.764 17.8676 14.8521 17.9048 14.9496C17.942 15.047 17.9575 15.1514 17.95 15.2554C17.9639 15.7888 17.6611 16.0916 17.1194 16.1332Z" fill="#FFD9CD"/>
<path d="M12.75 15.3389C12.6833 15.8333 12.3833 16.1528 11.85 16.1111C11.7454 16.1089 11.6424 16.0852 11.5475 16.0413C11.4525 15.9974 11.3677 15.9343 11.2983 15.856C11.2289 15.7778 11.1764 15.686 11.1442 15.5865C11.112 15.487 11.1007 15.3819 11.1111 15.2778C11.1027 15.1628 11.121 15.0475 11.1647 14.9408C11.2085 14.8342 11.2764 14.7391 11.3631 14.6632C11.4498 14.5872 11.553 14.5325 11.6645 14.5032C11.7759 14.4739 11.8927 14.4709 12.0056 14.4944C12.1116 14.4957 12.2163 14.5192 12.3127 14.5634C12.4092 14.6077 12.4953 14.6717 12.5654 14.7512C12.6356 14.8308 12.6883 14.9243 12.7201 15.0255C12.7519 15.1267 12.7621 15.2335 12.75 15.3389Z" fill="#FFD9CD"/>
<path d="M57.3111 34.3139C61.5583 33.1167 65.5833 33.6056 69.4055 35.8389C69.6286 35.946 69.8132 36.1192 69.9345 36.3349C70.0558 36.5505 70.1077 36.7983 70.0833 37.0445C70.0667 44.3695 70.0833 51.6973 70.0639 59.025C70.0639 60.5862 69.15 61.5556 67.5639 61.5723C62.7278 61.6195 57.8889 61.5723 53.05 61.6056C52.425 61.6056 52.0111 61.2695 51.6 60.9112C47.3389 57.2139 45.6722 52.5195 46.2361 46.9584C46.3222 46.125 46.7222 45.9223 47.5083 45.9306C50.6417 45.9695 53.775 45.9556 56.9083 45.9445C58.625 45.9445 59.1305 45.4417 59.1444 43.7223C59.1639 41.4639 59.1444 39.2056 59.1444 36.9473C59.1444 35.8862 58.8667 35.0195 57.6139 34.8667C57.4056 34.7473 57.1417 34.6528 57.3111 34.3139Z" fill="#FEFEFE"/>
<path d="M70.6361 60.9472C71.0417 60.1944 71.1083 59.3861 71.1083 58.5416C71.1083 52.1527 71.1444 45.7444 71.1639 39.3444C71.5111 38.8944 71.6694 38.2611 72.3444 38.1333C79.0111 44.2111 78.4194 55.7361 71.1472 61.1889C70.8333 61.425 70.625 61.4027 70.6361 60.9472Z" fill="#FFD9CD"/>
<path d="M52.3028 44.9139C50.7806 44.9139 49.2472 44.8833 47.7389 44.9139C46.925 44.9361 46.6556 44.7361 46.9667 43.8944C48.1333 40.7222 50.0639 38.1417 52.9111 36.3139C54.3722 35.375 56.0417 35.9056 57.6333 35.9333C58.0806 35.9333 58.1694 36.3833 58.1694 36.7667C58.1694 39.1639 58.1694 41.5611 58.1694 43.9583C58.1694 44.6917 57.8139 44.9111 57.1417 44.9028C55.5278 44.9 53.9167 44.9139 52.3028 44.9139Z" fill="#F15625"/>
<path d="M54.4444 62.6721H68.4111C65.6083 65.2555 58.0028 65.161 54.4444 62.6721Z" fill="#FFD9CD"/>
<path d="M72.3444 38.1334C72.0847 38.6488 71.6725 39.0717 71.1639 39.3445V37.0945C71.725 37.4056 72.1333 37.65 72.3444 38.1334Z" fill="#F6F6FA"/>
<path d="M57.3111 34.314C57.4167 34.4973 57.5194 34.6806 57.625 34.8695H56.1111C56.2314 34.6664 56.4105 34.5045 56.6248 34.4053C56.8391 34.3061 57.0784 34.2743 57.3111 34.314Z" fill="#BCBCD5"/>
<path d="M70.6361 60.9473L71.1472 61.1917C70.85 61.6112 70.4139 61.8417 69.8056 62.1556C69.9268 61.6655 70.222 61.2361 70.6361 60.9473Z" fill="#A2B0D7"/>
</svg>
