<svg width="100" height="100" viewBox="0 0 100 100" fill="none" xmlns="http://www.w3.org/2000/svg">
<path d="M31.8557 13.0555C32.9668 13.3944 33.9751 13.1139 35.0196 12.7139C39.3913 11.0104 44.0602 10.2009 48.7501 10.3333C58.0335 10.6111 66.4335 13.4889 73.6863 19.5194C79.339 24.2194 83.3251 30.025 85.9529 36.8278C86.264 37.6361 86.4418 38.4944 86.6807 39.3278C84.8279 40.1833 82.9029 39.7944 81.0085 39.5861C80.2974 39.5083 80.2251 38.7528 80.1751 38.1528C80.0946 37.0417 80.1974 35.9305 80.1057 34.8389C79.9835 33.3694 79.6168 33 78.139 32.8944C76.9446 32.8083 75.7446 32.8611 74.5474 32.8611H50.0918C49.6307 32.8611 49.1696 32.8611 48.7029 32.8611C46.9251 32.9472 46.4807 33.325 46.4474 35.1C46.3696 38.3722 46.4251 41.6417 46.4196 44.9139C46.4196 48.1389 46.4196 51.3639 46.4196 54.5917C46.4196 56.9583 46.2863 57.0917 43.9724 57.2444C43.5625 57.3106 43.1452 57.3171 42.7335 57.2639C41.8779 56.9361 42.014 56.1722 42.0057 55.5083C41.9807 52.8944 42.0057 50.275 41.989 47.6611C41.9785 46.2408 41.769 44.8289 41.3668 43.4666C40.1779 40.7444 38.9057 38.0917 36.2974 36.3722C35.2313 35.6432 34.086 35.0375 32.8835 34.5667C32.3696 34.3722 31.7946 34.1778 31.7029 33.5278C31.6029 32.8305 32.189 32.6055 32.6501 32.3139C34.1696 31.3555 35.3696 30.1167 36.064 28.425C36.1925 28.0279 36.408 27.6645 36.6946 27.3611C37.6724 26.4944 37.839 25.5694 37.4196 24.2722C37.0196 23.0305 37.314 21.6333 37.089 20.3028C36.6251 17.5389 35.3501 15.3889 32.8501 14.025C32.439 13.8167 31.8446 13.7222 31.8557 13.0555Z" fill="#FFD9CD"/>
<path d="M31.8557 13.0555C34.3862 14.2944 36.3612 16.036 37.1835 18.8527C37.4552 19.9237 37.586 21.0256 37.5724 22.1305C37.5974 23.1249 37.4862 24.1055 38.0251 25.0638C38.2146 25.4197 38.2585 25.8352 38.1476 26.2228C38.0368 26.6104 37.7797 26.9398 37.4307 27.1416C36.7196 27.5916 36.5362 28.2221 36.2446 28.8916C35.495 30.5905 34.1863 31.9816 32.5362 32.8333C32.2585 32.9833 31.9168 33.0527 31.9196 33.4777C31.9224 33.9027 32.1974 34.0333 32.514 34.1249C37.0196 35.5333 39.8807 38.6221 41.5168 42.9555C42.0724 44.7194 42.1363 46.5416 42.1196 48.3638C42.0807 52.5916 42.1501 56.8221 41.9807 61.0499C41.8918 63.3277 41.4835 63.8555 39.2029 64.1055C38.8501 64.1444 38.3974 64.0444 38.2474 64.4749C38.039 65.0749 38.164 65.586 38.8918 65.7249C39.445 65.7883 40.0025 65.805 40.5585 65.7749C41.3918 65.7749 41.6696 65.3527 41.714 64.5777C41.8224 62.6083 42.1029 60.6471 42.0085 58.6666C41.9807 58.0388 41.9446 57.3305 42.7918 57.1083C43.3873 56.8487 44.0413 56.7528 44.6862 56.8305C45.814 57.0083 46.0751 56.4999 46.0751 55.4416C46.039 48.711 46.0557 41.9777 46.0585 35.2471C46.0585 32.7888 46.3807 32.4694 48.8363 32.4694C58.5177 32.4694 68.1992 32.4694 77.8807 32.4694C80.1751 32.4694 80.5501 32.8416 80.5585 35.0971C80.5585 36.2083 80.5918 37.3194 80.5585 38.4166C80.5307 39.1027 80.689 39.411 81.4585 39.3805C83.2085 39.3083 84.9585 39.3249 86.7085 39.3055C91.3029 39.6249 92.8196 41.136 94.2696 45.5471C95.7668 50.1055 95.4946 54.7138 95.5057 59.3583C95.5057 60.611 94.7557 61.2138 93.2835 61.2527C91.6724 61.2916 90.0613 61.2527 88.4474 61.2527C88.0085 61.2527 87.5113 61.1194 87.464 61.8555C87.3613 63.486 86.5724 64.8027 85.1446 66.1249C85.9279 66.1249 86.4085 66.1249 86.8863 66.1249C87.2751 66.1249 87.7196 66.1583 87.7335 66.6138C87.7613 67.1527 87.2863 67.2333 86.8529 67.2499C86.5307 67.2499 86.2057 67.2499 85.8835 67.2499H72.0585C72.289 68.1916 72.9724 68.7638 73.4474 69.4721C73.9224 70.1805 74.4946 70.861 73.9863 71.7416C73.4779 72.6221 72.6474 73.3638 71.5696 73.3166C70.7085 73.2805 70.6862 73.6416 70.6974 74.2638C70.7168 75.6944 70.664 77.1249 70.7168 78.5527C70.7529 79.5722 70.439 80.3527 69.5168 80.836C69.0001 81.3555 68.3279 81.2749 67.6946 81.2721C59.0001 81.2333 50.3029 81.2944 41.6057 81.2916C40.7501 81.2916 39.8751 80.8833 39.0362 81.3666C38.2362 82.1805 37.2585 82.3971 36.1474 82.3499C34.8668 82.2944 33.5835 82.3249 32.3001 82.3499C31.2307 82.3499 30.4279 81.9888 30.014 80.961C29.9056 80.6394 29.8779 80.2959 29.9335 79.961C30.5335 78.3138 30.4557 76.5888 30.3085 74.9083C30.139 72.9777 30.0612 71.0555 30.0807 69.1249C30.0807 68.2721 29.8835 67.711 28.8585 67.7138C27.8779 67.7138 27.5585 68.2055 27.589 69.0888C27.6807 71.5277 27.4668 73.9583 27.3112 76.3888C27.219 77.631 27.3651 78.8793 27.7418 80.0666C27.5251 81.9055 27.0196 82.2888 25.1807 82.1416C23.4585 81.9999 21.7251 82.2471 20.0057 82.0166C18.6612 80.9555 18.5224 80.1916 19.5696 78.9055C19.9606 78.4582 20.1689 77.88 20.1529 77.286C20.1307 74.3333 20.1112 71.3805 20.1529 68.4305C20.1529 67.5416 19.9362 67.2416 19.0001 67.2638C16.0501 67.3249 13.1001 67.286 10.1474 67.286C9.43347 67.286 8.75847 67.2527 9.18347 66.2194C12.0001 65.7194 14.8446 65.7971 17.6862 65.7944C19.7696 65.7944 19.8001 65.7194 19.8501 63.6027C19.9112 61.1027 19.6862 58.6249 19.8224 56.136C19.8446 55.7333 19.9807 55.2138 19.6085 54.9694C19.2362 54.7249 18.839 55.1277 18.4974 55.3333C15.8224 56.9638 13.1112 56.9999 10.3279 55.611C9.63573 55.2439 9.04579 54.7103 8.61125 54.0583C7.65847 53.1416 6.6668 52.136 6.04458 51.0749C5.13902 49.5583 4.50014 47.6305 5.15847 45.8333C5.67514 44.4249 5.61958 43.0555 5.64736 41.6666C5.68347 39.8471 6.10847 39.4138 7.94736 39.3944C8.63347 39.3944 9.33625 39.3583 10.0085 39.3388C11.9779 38.5888 13.2557 39.3749 13.3807 41.5305C13.5112 43.7833 13.3807 46.0444 13.4446 48.2999C13.464 48.9916 13.0335 50.1444 14.2057 50.1721C15.3779 50.1999 15.3696 49.061 15.3696 48.186C15.3696 45.5833 15.6224 43.0527 16.8112 40.6666C18.2001 37.8666 20.3668 35.8971 23.139 34.5555C23.5946 34.3333 24.0668 34.1444 24.5279 33.9194C25.1335 33.6166 25.1446 33.2166 24.5835 32.9249C22.0307 31.5999 21.2751 28.8166 19.5835 26.8138C19.3786 26.5871 19.2435 26.3062 19.1942 26.0047C19.145 25.7032 19.1837 25.3939 19.3057 25.1138C20.014 23.5721 20.1196 21.9277 20.2224 20.2777C21.114 14.786 25.9862 11.6055 31.3335 13.0138C31.5067 13.0369 31.681 13.0508 31.8557 13.0555Z" fill="#1A3D38"/>
<path d="M20.1946 20.2417C19.9918 21.9084 20.4918 23.6111 19.5862 25.2167C19.1835 25.9306 19.6474 26.7528 20.2779 27.1611C20.9862 27.6084 21.1862 28.2473 21.4724 28.9223C22.19 30.5896 23.4672 31.9542 25.0835 32.7806C25.3974 32.9528 25.7779 33.0889 25.7251 33.5723C25.6724 34.0556 25.2724 34.0723 24.9335 34.2028C18.8224 36.5584 15.8418 40.8028 15.7085 47.3861C15.7085 47.9834 15.7446 48.5889 15.689 49.1806C15.589 50.2028 15.0362 50.7584 13.9557 50.7389C12.8001 50.7167 12.9751 49.9056 12.9751 49.1695C12.9751 46.9473 12.9751 44.7334 12.9751 42.5278C12.9751 39.6223 12.8918 39.5334 10.0029 39.3417C11.6062 33.9722 14.2488 28.9701 17.7807 24.6195C17.8112 24.5861 17.8224 24.5334 17.8557 24.5056C19.1668 23.3556 20.1501 22.0611 20.1946 20.2417Z" fill="#FFD9CD"/>
<path d="M8.61111 54.0581C12.7583 56.9637 15.3056 56.9637 19.7056 54.0581C19.7694 54.0137 19.875 54.0387 20.1444 54.0137V59.4803C20.1444 61.322 20.1056 63.1665 20.1611 65.0081C20.1861 65.897 19.9333 66.197 18.9972 66.1859C15.7306 66.147 12.4611 66.2026 9.19167 66.222C9.66111 65.6442 10.3028 65.9831 10.8722 65.9165C11.3333 65.8637 11.7333 65.8692 11.4472 65.2109C9.89167 61.6442 9.125 57.8803 8.61111 54.0581Z" fill="#FFD9CD"/>
<path d="M38.7557 81.0584C38.8224 80.764 38.6585 80.1251 39.2557 80.4723C40.139 80.9778 41.0501 80.814 41.9529 80.8167C46.9279 80.8362 51.9029 80.8167 56.8807 80.8167C61.0881 80.8167 65.2964 80.8269 69.5057 80.8473C69.9001 81.2362 70.2529 81.5223 69.3529 81.814C68.0224 82.2445 66.6418 82.3695 65.2918 82.4695C55.1585 83.289 44.9974 83.1917 34.8474 82.9917C31.6168 82.9306 28.3501 82.8501 25.1251 82.3251C26.4585 82.1612 27.5168 81.6723 27.7362 80.164C28.5335 79.5778 29.3501 79.4334 30.2029 80.039L30.2279 80.7612C30.4224 81.8473 31.1029 82.2667 32.1724 82.2501C33.6724 82.2278 35.1751 82.2501 36.6779 82.2501C37.5974 82.2473 38.4057 82.0501 38.7557 81.0584Z" fill="#F15625"/>
<path d="M90.4668 66.1113C91.0446 66.3558 92.1335 65.7308 92.1335 66.7085C92.1335 67.6863 91.0751 67.2947 90.4668 67.2863C89.8585 67.278 88.8001 67.6947 88.8001 66.7308C88.8001 65.7669 89.9001 66.3474 90.4668 66.1113Z" fill="#1A3D38"/>
<path d="M6.32236 66.1113C6.87791 66.3724 7.95847 65.6974 7.93347 66.7697C7.9168 67.603 6.91125 67.3252 6.33069 67.2891C5.69736 67.2419 4.55014 67.7558 4.58069 66.6669C4.60291 65.7502 5.70847 66.3169 6.32236 66.1113Z" fill="#1A3D38"/>
<path d="M27.7251 80.2777C27.7085 82.0333 26.5474 82.3388 25.1335 82.3277C23.4279 82.1166 21.6751 82.6055 19.9918 82.0083C21.6946 82.0305 23.3918 82.0666 25.0918 82.0666C26.7918 82.0666 27.1863 81.6833 27.4529 80.0499C27.6807 79.9694 27.7501 80.0722 27.7251 80.2777Z" fill="#FF906D"/>
<path d="M42.7779 57.1084C41.6168 58.3584 42.0974 59.8862 42.0779 61.325C42.0557 62.6139 42.0946 63.9056 42.1807 65.1917C42.2335 66.025 41.8862 66.2278 41.1362 66.1778C40.3543 66.1125 39.5682 66.1125 38.7863 66.1778C37.7918 66.2778 37.5446 65.8778 37.5501 64.9306C37.5501 63.925 37.5001 63.3556 38.889 63.7223C40.5557 64.1584 41.8918 62.8889 41.9251 61.0362C41.9751 58.1306 41.9529 55.225 41.9251 52.3167C41.9251 49.1889 42.1196 46.05 41.5113 42.9473C42.3168 44.2973 42.2835 45.8417 42.3446 47.3084C42.464 50.1112 42.3724 52.9223 42.3862 55.7278C42.3946 56.2112 42.2224 56.7667 42.7779 57.1084Z" fill="#FFD0C2"/>
<path d="M63.2918 56.1914C58.3557 56.1914 53.4224 56.1609 48.489 56.2164C47.3779 56.2303 46.9862 55.9942 46.9974 54.7942C47.0557 48.1997 47.0446 41.6025 46.9974 35.0081C46.9974 33.897 47.2751 33.4886 48.4751 33.4942C58.3418 33.5386 68.2103 33.5386 78.0807 33.4942C79.2835 33.4942 79.5474 33.9136 79.539 35.0192C79.5001 41.6581 79.5001 48.2988 79.539 54.9414C79.539 56.0164 79.2168 56.2248 78.214 56.2164C73.2529 56.1636 68.2724 56.1914 63.2918 56.1914Z" fill="#FEFEFE"/>
<path d="M28.7446 57.1057C26.5779 57.1057 24.4085 57.0585 22.2446 57.1279C21.3029 57.1585 21.0863 56.8307 21.0946 55.9474C21.139 52.4446 21.114 48.9418 21.114 45.4418C21.114 45.1168 21.114 44.7946 21.1001 44.4724C21.0863 44.1501 20.9529 43.9168 20.6251 43.9168C20.2974 43.9168 20.1724 44.1946 20.164 44.4918C20.1418 45.2307 20.1029 45.9696 20.1474 46.714C20.1918 47.4585 19.9807 47.6613 19.2307 47.6835C16.4779 47.7724 16.414 47.7307 16.8529 44.9196C17.2918 42.1085 18.6474 39.7224 20.7001 37.7335C21.4362 37.0224 21.9751 36.9307 22.6446 37.8307C23.3612 38.7863 24.2085 39.6418 25.0113 40.5307C25.2251 40.7668 25.4724 41.1446 25.7168 41.1529C27.4779 41.2251 27.0724 42.4918 27.1057 43.5279C27.1057 44.0363 27.1057 44.5418 27.1057 45.0501C27.1335 46.1974 27.7668 46.7168 28.8751 46.6918C29.9835 46.6668 30.5863 46.1363 30.5585 44.9835C30.5585 44.3835 30.5835 43.7835 30.5585 43.1863C30.5085 42.2001 30.5057 41.5196 31.8251 41.1279C33.1446 40.7363 33.8279 39.1835 34.8029 38.139C36.0557 36.814 36.0418 36.7751 37.3224 38.0585C39.54 40.2561 40.8549 43.2041 41.0085 46.3224C41.0751 47.2779 40.9168 47.7113 39.7862 47.6779C37.5946 47.5946 37.5918 47.6779 37.5862 45.5168C37.5946 45.379 37.5946 45.2408 37.5862 45.1029C37.5224 44.6446 37.7835 43.9085 37.0307 43.939C36.4057 43.964 36.5863 44.6418 36.5863 45.0696C36.5863 48.5251 36.489 51.9863 36.6196 55.439C36.6779 56.9196 36.1862 57.2057 34.8501 57.1335C32.8057 57.0251 30.7724 57.1057 28.7446 57.1057Z" fill="#F15625"/>
<path d="M21.1112 67.7194C21.1112 64.8583 21.1335 61.9972 21.0946 59.1389C21.0946 58.3611 21.314 58.1 22.1085 58.1056C26.5825 58.1389 31.0585 58.1389 35.5362 58.1056C36.3057 58.1056 36.5751 58.3111 36.5696 59.1139C36.54 64.9287 36.54 70.7426 36.5696 76.5556C36.5696 77.5306 36.2307 77.6528 35.4335 77.4083C34.6745 77.1635 33.852 77.206 33.1224 77.5278C31.689 78.1889 31.6724 77.4028 31.6474 76.3389C31.5668 72.6972 31.4279 69.0556 31.3168 65.4139C31.2807 64.225 30.7168 63.3528 29.6224 62.9611C28.5751 62.5861 27.6224 62.8972 26.9029 63.7944C26.439 64.3667 26.364 65.0611 26.3474 65.7528C26.2251 69.3944 26.0974 73.0361 26.0168 76.6778C25.9974 77.5778 25.9779 78.125 24.8224 77.6056C23.9672 77.221 23.0009 77.1627 22.1057 77.4417C21.2724 77.7194 21.0862 77.3778 21.0974 76.5861C21.1362 73.6278 21.1112 70.675 21.1112 67.7194Z" fill="#F15625"/>
<path d="M29.5974 32.7026C25.9557 32.7026 23.4362 31.036 22.2946 28.3054C21.9862 27.5638 21.9001 26.736 20.9279 26.3943C20.3946 26.2082 20.3251 25.536 20.7224 25.0999C21.9807 23.711 22.8696 22.1165 23.8251 20.5388C24.3057 19.7471 25.0696 19.5054 25.9724 19.6165C27.8928 19.8693 29.838 19.8693 31.7585 19.6165C32.4974 19.5138 33.2168 19.6693 33.6279 20.2638C34.4085 21.3915 35.0168 22.6471 35.9335 23.6749C35.9475 23.6937 35.9575 23.7154 35.9628 23.7383C35.9681 23.7613 35.9685 23.7851 35.964 23.8082C35.8112 24.811 37.9474 25.0304 36.9585 26.1499C34.6446 28.7693 33.6668 33.1138 29.5974 32.7026Z" fill="#FEFEFE"/>
<path d="M80.5557 46.961C80.5557 45.0694 80.5779 43.1805 80.5557 41.2916C80.5418 40.6472 80.7196 40.4027 81.4029 40.4138C83.5668 40.4555 85.739 40.3416 87.8974 40.4638C90.1529 40.5916 91.9196 41.7444 92.6418 43.9027C93.7168 47.1249 94.8113 50.3805 94.5002 53.8777C94.4585 54.3583 94.6252 54.8555 93.9446 55.1138C92.2418 55.7583 91.6946 57.1222 91.7224 58.8527C91.7224 59.3221 92.1724 60.0999 91.1196 60.2194C90.2557 60.3221 90.0974 59.8694 89.8863 59.1694C89.3916 57.4224 88.2976 55.9054 86.7961 54.8844C85.2947 53.8635 83.4817 53.4038 81.6751 53.586C80.6529 53.6722 80.5474 53.3249 80.564 52.4916C80.5751 50.6472 80.5557 48.8027 80.5557 46.961Z" fill="#F15625"/>
<path d="M63.964 70.6863C63.964 73.3585 63.9335 76.0307 63.9835 78.7029C63.9835 79.5363 63.8029 79.878 62.9196 79.8002C62.0935 79.7252 61.2623 79.7252 60.4362 79.8002C59.414 79.8918 59.2057 79.4224 59.2112 78.5085C59.2446 73.2113 59.2529 67.9141 59.2112 62.6168C59.2112 61.5668 59.5724 61.2807 60.5668 61.2668C63.9696 61.2224 63.9696 61.1946 63.9696 64.6002L63.964 70.6863Z" fill="#FDFDFE"/>
<path d="M36.4974 22.4999C35.664 21.8861 35.3557 21.2249 35.014 20.5722C34.1807 18.9749 33.1974 18.4499 31.4029 18.6666C29.7112 18.875 28.0002 18.875 26.3085 18.6666C24.4501 18.4388 23.5307 18.9444 22.6196 20.6361C22.2751 21.2722 21.9751 21.9444 21.1751 22.4555C20.9501 19.3416 21.8862 16.8833 24.3307 15.0666C26.6862 13.3138 30.264 13.1222 32.6807 14.6361C35.514 16.4027 36.7696 18.9611 36.4974 22.4999Z" fill="#FDFDFE"/>
<path d="M65.3307 62.8887C65.4918 63.1914 65.4112 63.5276 65.6974 63.8581C66.5751 64.8776 67.5529 65.9137 66.839 67.4887C66.6196 67.972 67.0557 68.3748 67.364 68.6887C69.4279 70.7637 69.9029 73.2498 69.7668 76.1081C69.5724 80.1859 69.7168 80.1915 65.1057 79.6887C64.8529 79.3637 64.9585 78.9831 64.9585 78.6248C64.9585 73.7553 64.9585 68.8859 64.9585 64.0192C64.9724 63.6415 64.6251 63.0692 65.3307 62.8887Z" fill="#FDFDFE"/>
<path d="M58.6418 57.2222H78.889C78.1001 58.0944 77.4112 58.8222 77.0751 59.7777C76.9057 60.2527 76.4918 60.1472 76.1418 60.1472C71.2529 60.1472 66.3649 60.1472 61.4779 60.1472C61.0612 60.1472 60.6446 60.1944 60.4668 59.6611C60.1862 58.7527 59.5779 58.0555 58.6418 57.2222Z" fill="#FFD0C2"/>
<path d="M57.3335 79.7223H40.8585C41.3196 78.814 42.2112 78.3695 42.8362 77.6917C43.3918 77.0862 44.0585 76.5806 44.6751 76.0251C46.314 74.5445 46.3418 74.4973 48.0751 75.7473C48.9224 76.3695 49.5223 76.0973 50.1223 75.5084C51.1335 74.5223 51.9307 74.5417 52.9446 75.6529C54.2279 77.0556 55.739 78.2556 57.3335 79.7223Z" fill="#FEFEFE"/>
<path d="M82.014 57.3222C82.59 57.3075 83.163 57.4095 83.6984 57.6223C84.2338 57.835 84.7207 58.154 85.1295 58.5599C85.5383 58.9659 85.8607 59.4505 86.0771 59.9844C86.2936 60.5183 86.3997 61.0906 86.389 61.6666C86.3962 62.2436 86.2875 62.816 86.0692 63.3501C85.8509 63.8842 85.5276 64.369 85.1184 64.7758C84.7093 65.1826 84.2225 65.503 83.6872 65.7181C83.1518 65.9332 82.5787 66.0386 82.0018 66.0279C81.4249 66.0173 80.8561 65.891 80.329 65.6563C79.8019 65.4217 79.3273 65.0836 78.9333 64.6621C78.5394 64.2405 78.2341 63.7442 78.0356 63.2024C77.8372 62.6607 77.7495 62.0846 77.7779 61.5083C77.7996 60.3962 78.2544 59.3365 79.0456 58.5547C79.8367 57.7729 80.9018 57.3307 82.014 57.3222Z" fill="#FF906D"/>
<path d="M37.6418 55.2502C37.6418 53.4113 37.6835 51.5696 37.6224 49.7335C37.5946 48.9002 37.8029 48.6391 38.6751 48.6446C40.9946 48.6668 40.9946 48.6168 40.9946 50.9668C40.9946 54.1363 40.9946 57.3085 40.9946 60.4807C41.0274 60.8907 40.9841 61.3032 40.8668 61.6974C40.5446 62.503 39.8918 62.953 39.014 62.8085C38.1363 62.6641 37.6251 62.1391 37.6446 61.1863C37.6557 59.203 37.6446 57.2224 37.6418 55.2502Z" fill="#FDFDFE"/>
<path d="M27.7251 80.2778L27.4474 80.0501C26.7557 79.1751 26.8918 78.1556 26.9196 77.1445C27.039 74.2056 27.1974 71.2667 27.2362 68.3278C27.2501 67.4556 27.514 67.1695 28.3474 67.2695C28.7604 67.307 29.176 67.307 29.589 67.2695C30.1612 67.2278 30.4057 67.4334 30.4224 68.0417C30.514 71.5334 30.639 75.0251 30.7612 78.5167C30.7807 79.1056 30.4835 79.5639 30.2057 80.0389C29.3715 79.9938 28.5353 80.0743 27.7251 80.2778Z" fill="#FDFDFD"/>
<path d="M8.00847 51.6666C10.1362 52.0499 11.9529 51.3305 13.8418 51.6666C15.2112 51.9138 16.3946 51.0388 16.6196 49.5971C16.7362 48.8221 16.9974 48.5471 17.7307 48.6555C18.464 48.7638 19.7168 48.2971 19.9057 48.8999C20.288 50.0418 20.2515 51.2824 19.8029 52.3999C19.5747 52.8029 19.2609 53.1509 18.8835 53.4194C15.5751 56.2416 10.764 55.586 8.00847 51.6666Z" fill="#FDFDFE"/>
<path d="M11.9446 45.572C11.9446 46.9609 11.9446 48.3359 11.9446 49.7193C11.9446 50.3776 11.7835 50.7804 11.0279 50.7665C9.83069 50.7415 8.63347 50.7665 7.43625 50.7665C7.05014 50.7665 6.65291 50.6915 6.69736 50.1748C6.73902 49.7054 7.15014 49.8332 7.45014 49.797C9.44458 49.5526 10.4724 48.6193 10.4696 47.0609C10.4668 45.5026 9.45014 44.5998 7.41402 44.3443C7.10847 44.3054 6.6918 44.4054 6.67791 43.9387C6.65014 42.9248 6.6418 41.9109 6.67791 40.9026C6.70014 40.3943 7.16402 40.4415 7.52791 40.4387C8.68069 40.4387 9.83347 40.4665 10.9835 40.4387C11.739 40.4137 11.9335 40.7776 11.9224 41.447C11.9251 42.8082 11.9446 44.1915 11.9446 45.572Z" fill="#FDFDFD"/>
<path d="M41.2418 69.2891C43.7585 69.2891 46.2751 69.2891 48.7918 69.2891C49.0057 69.2891 49.3668 69.3446 49.4113 69.4641C49.8835 70.7252 51.1001 71.2474 51.9779 72.0946C52.3918 72.4946 52.4501 72.7252 51.9335 73.0085C51.8545 73.0565 51.7793 73.1103 51.7085 73.1696C49.0335 75.2196 49.039 75.2113 46.3279 73.2474C44.6168 72.0113 42.8863 70.803 41.164 69.5807L41.2418 69.2891Z" fill="#FCFCFD"/>
<path d="M78.9751 66.1613C76.3418 66.1613 74.0057 66.1474 71.6668 66.1613C70.9196 66.1613 70.7001 65.7696 70.6946 65.1335C70.6946 64.0724 70.714 63.0141 70.664 61.9558C70.6362 61.3558 70.9418 61.2641 71.414 61.2724C72.0585 61.2724 72.7029 61.3058 73.3585 61.2724C75.2279 61.1641 77.1085 60.903 77.2474 63.7002C77.2724 64.6141 78.2057 65.2169 78.9751 66.1613Z" fill="#FFD0C2"/>
<path d="M53.4807 58.4279C53.3196 57.689 53.9057 57.5779 54.3668 57.464C55.9474 57.0834 57.4224 57.3612 58.5474 58.5751C59.1474 59.2084 60.2335 59.9196 58.7029 60.8418C58.1196 61.1918 58.2363 61.989 58.2307 62.6334C58.2001 65.689 56.7501 66.664 53.7863 65.5946C53.3946 64.6334 53.614 63.6501 53.6696 62.6723C54.0557 62.3612 54.3474 62.6946 54.6557 62.8334C55.3862 63.1612 56.0946 63.214 56.639 62.539C56.8556 62.2961 56.9776 61.9834 56.9827 61.6581C56.9878 61.3327 56.8757 61.0163 56.6668 60.7668C56.0918 60.0196 55.339 60.1029 54.5779 60.489C54.3362 60.6112 54.114 60.7862 53.814 60.7307C53.2918 60.0168 53.8557 59.1668 53.4807 58.4279Z" fill="#FFD0C2"/>
<path d="M39.7751 79.1222V69.875C41.3112 70.9417 42.7085 71.9028 44.0946 72.8778C45.5251 73.8861 45.5168 73.8861 44.2585 75.025C42.8335 76.3139 41.4224 77.6139 39.7751 79.1222Z" fill="#FAFAFC"/>
<path d="M47.3529 65.7389C47.3529 68.3861 47.3529 68.3361 44.6612 68.3889C43.5307 68.4111 42.9946 68.0889 43.164 66.9167C43.1822 66.6392 43.1822 66.3608 43.164 66.0834C43.164 62.9667 43.164 63.0111 46.2446 63.0278C47.2057 63.0278 47.4446 63.3723 47.3557 64.2278C47.3287 64.7311 47.3278 65.2355 47.3529 65.7389Z" fill="#FDFDFD"/>
<path d="M58.1696 79.1112C56.2779 77.3889 54.6557 75.9223 53.0557 74.4445C52.8474 74.2501 52.4585 74.0362 52.7974 73.6667C53.0751 73.3639 53.3529 73.3695 53.7612 73.6056C55.4279 74.5917 56.364 74.3084 57.3224 72.6473C57.4779 72.3914 57.5587 72.0971 57.5558 71.7977C57.5528 71.4982 57.4662 71.2056 57.3057 70.9528C57.0279 70.4417 57.5001 70.2473 57.7779 70.1639C58.3529 69.9862 58.1696 70.5112 58.1724 70.7667C58.1751 73.4167 58.1696 76.0723 58.1696 79.1112Z" fill="#F8F8FA"/>
<path d="M82.2474 54.5054C85.1196 54.5415 87.7863 56.3276 88.6835 58.8637C88.8307 59.2776 89.3335 59.8832 88.6335 60.1443C88.0057 60.3804 87.3557 60.3165 86.9946 59.4304C86.264 57.6415 84.8696 56.5915 82.9363 56.3165C82.5751 56.2665 82.2001 56.3165 81.8251 56.2693C81.3501 56.2137 80.6279 56.8887 80.5112 55.7443C80.4057 54.6609 81.0001 54.5137 81.8224 54.5248C81.9724 54.5248 82.1085 54.5109 82.2474 54.5054Z" fill="#FFAB90"/>
<path d="M31.7224 35.2111C31.4446 35.5528 31.1307 35.9472 30.7974 36.3222C28.8307 38.4917 28.9057 38.4111 26.889 36.4139C25.9557 35.4889 26.2057 34.8056 26.6613 33.8889C26.6837 33.8118 26.7241 33.741 26.7791 33.6825C26.8341 33.624 26.9022 33.5794 26.9779 33.5523C27.0535 33.5252 27.1345 33.5164 27.2141 33.5266C27.2938 33.5368 27.3699 33.5658 27.4362 33.6111C28.589 34.2 29.9862 32.95 31.0474 34.0889C31.3061 34.4416 31.5321 34.8173 31.7224 35.2111Z" fill="#FBFBFC"/>
<path d="M45.2779 62.0446C43.1835 62.0446 43.1779 62.0446 43.1835 59.8224C43.1835 57.4751 43.0363 57.9113 45.8029 57.8779C47.3668 57.8613 47.3807 57.8779 47.3613 60.3501C47.3307 62.339 47.6474 62.0113 45.2779 62.0446Z" fill="#FCFCFD"/>
<path d="M38.7585 79.3748C37.8279 78.8192 37.5418 78.1914 37.5529 77.322C37.5918 74.322 37.6001 71.322 37.5529 68.3248C37.5529 67.4498 37.8307 67.2137 38.664 67.2637C39.5807 67.3331 40.5085 67.2859 41.4418 67.2637C41.8307 67.2637 42.1696 67.2637 42.2001 67.8192C42.2335 68.4025 41.8557 68.3748 41.4807 68.3748C41.3418 68.3748 41.2029 68.3748 41.064 68.3748C39.0863 68.4164 38.7835 68.7276 38.7807 70.7609C38.7557 73.5692 38.7585 76.3887 38.7585 79.3748Z" fill="#F7F7FA"/>
<path d="M48.3668 59.8637C48.3668 57.8692 48.3668 57.8581 50.5529 57.872C52.6307 57.872 52.5279 57.5137 52.5251 60.3498C52.5251 62.047 52.5251 62.0637 49.989 62.0415C48.0918 62.0248 48.4001 62.3553 48.3668 59.8637Z" fill="#FBFBFC"/>
<path d="M51.4307 67.8109C51.6426 67.76 51.8639 67.7639 52.0738 67.8222C52.2838 67.8805 52.4754 67.9913 52.6307 68.1442C53.7418 69.1136 54.8529 70.072 55.9835 71.0053C56.6279 71.5331 56.6362 72.0164 56.0862 72.6248C55.5362 73.2331 55.1446 73.5859 54.3974 72.9025C53.2862 71.872 52.1223 70.8998 50.9446 69.9442C50.3307 69.447 50.389 68.7859 50.4723 68.1775C50.5557 67.5692 51.1557 67.9414 51.4307 67.8109Z" fill="#FFAB90"/>
<path d="M67.8668 67.2221C68.0724 66.8304 67.8224 66.111 68.4224 66.111C68.9779 66.086 69.6474 66.0165 70.0696 66.5999C71.0159 67.8962 71.965 69.1999 72.9168 70.511C73.3585 71.1193 73.0724 71.5165 72.564 71.8999C72.1085 72.236 71.5974 72.6971 71.1307 72.111C70.0196 70.7054 68.9835 69.2304 67.939 67.7693C67.8418 67.6165 67.8835 67.3888 67.8668 67.2221Z" fill="#FFAB90"/>
<path d="M23.0557 81.1109C22.3196 81.1109 21.5835 81.1332 20.8335 81.1109C19.9557 81.0804 19.6335 80.6193 20.0835 79.8443C20.7557 78.6887 21.8807 78.3387 23.139 78.336C24.3974 78.3332 25.5196 78.7221 26.1946 79.8665C26.5862 80.5359 26.3501 81.0526 25.5251 81.0998C24.7001 81.1471 23.8585 81.0998 23.0418 81.0998L23.0557 81.1109Z" fill="#F9F9FB"/>
<path d="M34.4029 81.1113C33.714 81.1113 33.014 81.1446 32.3335 81.1113C31.2835 81.0529 31.0335 80.5557 31.5862 79.689C32.7501 77.8779 36.289 77.8724 37.4724 79.689C38.0279 80.5446 37.7807 81.0779 36.7446 81.1224C35.9668 81.1474 35.1835 81.1113 34.4029 81.1113Z" fill="#F9F9FB"/>
<path d="M50.5751 63.0557C51.1113 63.2001 52.1585 62.6779 52.364 63.3112C52.6724 64.2668 52.5474 65.3945 52.4474 66.4362C52.4029 66.914 50.1918 66.9918 49.6696 66.5084C48.8363 65.7557 48.5001 64.7751 48.4224 63.6807C48.389 63.2001 48.6057 63.0251 49.0724 63.0501C49.539 63.0751 50.0001 63.0557 50.5751 63.0557Z" fill="#FAFAFC"/>
<path d="M69.7835 63.3336C69.5057 63.928 70.1557 64.8336 69.3751 65.0641C68.5418 65.3113 67.6585 64.9613 67.1224 64.1252C67.0724 64.0474 67.0029 63.9836 66.9585 63.903C66.5279 63.1169 65.6779 62.0808 66.3418 61.4641C67.0057 60.8474 68.3085 61.0947 69.239 61.4002C70.1696 61.7058 69.5085 62.7113 69.7835 63.3336Z" fill="#F6F6F9"/>
<path d="M22.7778 36.4971C24.5583 35.2943 24.5611 35.2916 25.8333 36.6804C26.3889 37.2888 26.9 37.9443 27.4806 38.5304C27.95 39.0054 28.0694 39.4027 27.4972 39.8749C26.925 40.3471 26.4639 40.7082 25.8556 39.9999C24.8361 38.8304 23.8083 37.6693 22.7778 36.4971Z" fill="#F9F9FB"/>
<path d="M34.9251 36.4835C33.8557 37.6862 32.8168 38.8918 31.7363 40.0585C31.0946 40.7474 30.6251 40.1862 30.1029 39.7807C29.5029 39.3057 29.8113 38.9668 30.1863 38.564C30.7168 37.9946 31.2085 37.389 31.7224 36.8029C33.0557 35.2779 33.0557 35.2779 34.9251 36.4835Z" fill="#FAFAFB"/>
<path d="M6.04458 46.9195C5.97791 46.05 6.06958 45.1778 7.55013 45.3361C8.68347 45.4611 9.40013 45.9195 9.43347 47.0972C9.46402 48.225 8.6168 48.7639 7.21125 48.7889C5.93347 48.8 5.96958 47.9972 6.04458 46.9195Z" fill="#FAFAFB"/>
<path d="M29.5974 43.0693C29.5974 43.711 29.5974 44.3527 29.5974 44.9943C29.5974 45.4971 29.3196 45.736 28.8112 45.7221C28.7078 45.7342 28.6029 45.7224 28.5047 45.6876C28.4065 45.6527 28.3176 45.5958 28.2449 45.5212C28.1721 45.4466 28.1175 45.3563 28.0852 45.2572C28.0529 45.1582 28.0437 45.053 28.0585 44.9499C28.0585 43.6666 28.0585 42.3832 28.0585 41.0999C28.0585 40.5777 28.3557 40.1554 28.8585 40.1582C29.3612 40.161 29.5779 40.6554 29.5918 41.1443C29.614 41.786 29.5974 42.4277 29.5974 43.0693Z" fill="#EBEBF2"/>
<path d="M94.4779 56.0054C94.4779 57.1693 94.4779 58.1637 94.4779 59.1582C94.4779 59.9443 94.014 60.1776 93.339 60.2054C92.4418 60.2415 92.7835 59.5554 92.7557 59.1415C92.6751 57.8693 92.7779 56.6665 94.4779 56.0054Z" fill="#FAFAFC"/>
<path d="M30.3057 65.4025C30.3918 66.4331 29.5974 66.2359 29.0974 66.1386C28.5057 66.0303 27.4751 66.7581 27.3918 65.497C27.3279 64.5831 27.7751 63.8553 28.7807 63.8303C29.7862 63.8053 30.2474 64.4442 30.3057 65.4025Z" fill="#CFE2F7"/>
<path d="M65.3307 62.889C64.9946 63.3918 65.1474 63.9613 65.1474 64.5002C65.1214 69.565 65.1075 74.6279 65.1057 79.6891C64.7501 79.2918 64.9335 78.8113 64.9335 78.3752C64.9335 72.9113 64.9335 67.4502 64.9335 61.8335C65.0946 62.2696 65.3946 62.5002 65.3307 62.889Z" fill="#CFCEE1"/>
<path d="M53.4751 67.272C54.9446 67.272 56.2196 67.272 57.4946 67.272C57.8779 67.272 58.2362 67.272 58.2474 67.8275C58.2585 68.3831 57.9335 68.397 57.5251 68.3831C56.6057 68.3664 55.6862 68.3831 54.7668 68.3831C54.1862 68.3692 53.889 67.9886 53.4751 67.272Z" fill="#E8E8F1"/>
<path d="M38.7557 81.0581C38.7557 82.2192 37.7862 82.4109 37.0335 82.4664C35.2868 82.59 33.5337 82.5956 31.7862 82.4831C30.8835 82.4248 30.0974 81.9275 30.2362 80.772C30.7029 81.7498 31.4696 82.1386 32.5529 82.0914C33.8279 82.0386 35.1085 82.0275 36.3835 82.0914C37.3835 82.1498 38.164 81.8581 38.7557 81.0581Z" fill="#FF906D"/>
<path d="M53.4807 58.4277C54.0112 59.0805 53.2751 60.0222 53.9862 60.6305C54.1518 60.9368 54.2385 61.2795 54.2385 61.6277C54.2385 61.9759 54.1518 62.3186 53.9862 62.625C53.3946 63.5777 53.7279 64.5888 53.8001 65.5833C53.4029 65.4638 53.4001 65.1305 53.4029 64.8138C53.4224 62.6861 53.4529 60.5555 53.4807 58.4277Z" fill="#2E8276"/>
<path d="M48.4446 66.7974C49.0001 67.1501 49.4612 67.4418 49.3529 68.1029C49.289 68.4863 48.8807 68.4613 48.6918 68.3501C48.0557 67.9807 48.3974 67.4113 48.4446 66.7974Z" fill="#E2E2ED"/>
<path d="M57.0279 69.361C56.5251 69.9527 56.1557 70.0471 55.7279 69.4583C56.1112 69.0999 56.4779 69.2277 57.0279 69.361Z" fill="#AEADCD"/>
<path d="M69.3751 52.0113C70.0057 52.539 70.4696 52.9085 70.9112 53.3002C71.1612 53.5224 71.3779 53.7918 71.0668 54.1335C70.8251 54.389 70.5585 54.2863 70.3279 54.1057C69.4594 53.4279 68.5927 52.7437 67.7279 52.0529C67.239 51.664 67.3168 51.3002 67.7835 50.9418C68.514 50.3863 69.2224 49.7918 69.9557 49.2335C70.2946 48.9752 70.6946 48.4279 71.1029 48.9835C71.5112 49.539 70.889 49.7668 70.5474 50.039C70.4355 50.1154 70.3186 50.1841 70.1974 50.2446C70.789 50.6252 71.2779 50.3668 71.7724 50.0724C75.0112 48.1446 75.8307 43.7974 73.5446 40.6724C71.4862 37.8613 67.1724 37.4002 64.4279 39.6668C64.0168 40.0057 63.5196 40.9002 63.0029 40.2807C62.4474 39.6029 63.4251 39.1974 63.8529 38.8363C64.9965 37.912 66.3898 37.3499 67.8546 37.2219C69.3194 37.0939 70.7891 37.4059 72.0756 38.1179C73.3621 38.8299 74.4069 39.9096 75.0763 41.2187C75.7458 42.5279 76.0094 44.007 75.8335 45.4668C75.4279 48.5002 73.7224 50.6002 70.7835 51.6196C70.3974 51.7502 70.0001 51.839 69.3751 52.0113Z" fill="#1A3D38"/>
<path d="M66.2751 46.0696C66.9307 46.403 68.0196 45.8974 67.9835 46.7557C67.9446 47.7641 66.8724 47.2363 66.289 47.2724C65.639 47.3113 64.6974 47.6585 64.3668 46.9946C63.9835 46.2113 65.0085 45.8113 65.3835 45.2224C65.7279 44.6863 66.1724 44.2113 66.4946 43.6641C66.6807 43.3474 66.7057 42.9113 66.2724 42.7196C65.9363 42.5696 65.6585 42.7418 65.4918 43.0807C65.2835 43.5057 65.1529 44.2307 64.4779 43.6918C63.9946 43.3057 64.2974 42.7641 64.6085 42.3391C65.2418 41.4696 66.1168 41.228 67.0335 41.7196C68.0168 42.2363 68.1446 43.1613 67.6446 44.0863C67.227 44.7734 66.7697 45.4356 66.2751 46.0696Z" fill="#1A3D38"/>
<path d="M56.2585 42.7168C54.5113 42.7168 52.764 42.7168 51.0168 42.7168C50.6807 42.7168 50.1835 42.8501 50.1418 42.3168C50.089 41.7224 50.5863 41.6974 51.0001 41.6974C54.5427 41.6974 58.0835 41.6974 61.6224 41.6974C62.0168 41.6974 62.5474 41.639 62.5613 42.2335C62.5613 42.8946 62.0057 42.7113 61.6363 42.714C59.8446 42.7279 58.0557 42.7168 56.2585 42.7168Z" fill="#1A3D38"/>
<path d="M73.0362 45.5693C72.2946 45.961 72.3779 46.711 71.9974 47.1915C71.7724 47.4693 71.2446 47.3998 71.2251 47.0498C71.1557 45.8193 70.3112 46.0304 69.5585 46.0415C68.8057 46.0526 68.3835 45.7971 68.8307 44.9748C69.3557 44.0054 69.8501 43.0304 70.4251 42.0804C70.9029 41.2998 71.839 41.3054 72.1501 42.0804C72.5918 43.1915 71.7501 44.5776 73.0362 45.5693Z" fill="#1A3D38"/>
<path d="M57.5474 45.0751C56.1724 45.0751 54.7946 45.0751 53.4196 45.0751C53.0168 45.0751 52.489 45.1529 52.4501 44.5862C52.4112 44.0196 52.9307 44.014 53.3418 44.0112C56.1418 44.0112 58.9409 44.0112 61.739 44.0112C62.0974 44.0112 62.5501 44.0112 62.5724 44.5057C62.5946 45.1223 62.0807 45.0612 61.6807 45.0612C60.3001 45.0835 58.9251 45.0751 57.5474 45.0751Z" fill="#1A3D38"/>
<path d="M58.589 47.3723C57.6251 47.3723 56.6612 47.3723 55.7001 47.3723C55.3057 47.3723 54.7835 47.4667 54.7918 46.839C54.7918 46.339 55.2446 46.3223 55.6057 46.3223C57.6705 46.3112 59.7344 46.3112 61.7974 46.3223C62.1612 46.3223 62.5946 46.3667 62.5724 46.8779C62.5501 47.389 62.1196 47.3667 61.7529 47.3667C60.6974 47.3751 59.6418 47.3723 58.589 47.3723Z" fill="#1A3D38"/>
<path d="M59.9224 49.6305C59.2335 49.6305 58.5335 49.6305 57.8529 49.6305C57.5335 49.6305 57.1474 49.65 57.1057 49.2194C57.064 48.7888 57.4085 48.6861 57.7474 48.6861C59.1733 48.675 60.5983 48.675 62.0224 48.6861C62.3001 48.6861 62.5779 48.8277 62.5779 49.175C62.5779 49.5222 62.3001 49.6138 62.0001 49.6166C61.3029 49.6333 60.6113 49.6277 59.9224 49.6305Z" fill="#1A3D38"/>
<path d="M28.7529 29.9278C28.089 29.964 27.4668 29.6862 26.8585 29.3723C26.7949 29.3483 26.737 29.3116 26.6882 29.2643C26.6394 29.2171 26.6008 29.1604 26.5748 29.0977C26.5487 29.0349 26.5358 28.9675 26.5369 28.8996C26.5379 28.8317 26.5528 28.7648 26.5807 28.7028C26.6091 28.64 26.6508 28.584 26.7029 28.5388C26.7551 28.4936 26.8164 28.4602 26.8826 28.4409C26.9489 28.4216 27.0185 28.417 27.0867 28.4272C27.155 28.4374 27.2202 28.4622 27.2779 28.5001C27.7665 28.7493 28.3072 28.8792 28.8557 28.8792C29.4042 28.8792 29.9449 28.7493 30.4335 28.5001C30.4918 28.4623 30.5572 28.4366 30.6257 28.4247C30.6941 28.4127 30.7643 28.4147 30.832 28.4305C30.8997 28.4464 30.9635 28.4757 31.0196 28.5167C31.0757 28.5578 31.1229 28.6098 31.1585 28.6695C31.339 29.0362 31.0696 29.2251 30.764 29.4084C30.1576 29.7713 29.4593 29.9517 28.7529 29.9278Z" fill="#1A3D38"/>
<path d="M32.6501 24.1444C32.5001 24.7277 32.1668 25.0527 31.5612 24.9777C31.4457 24.9709 31.3327 24.9406 31.2293 24.8886C31.1259 24.8366 31.0342 24.7641 30.9598 24.6754C30.8854 24.5867 30.8299 24.4838 30.7967 24.3729C30.7635 24.262 30.7534 24.1455 30.7668 24.0305C30.7631 23.9028 30.7874 23.7758 30.8378 23.6584C30.8883 23.5411 30.9638 23.4361 31.059 23.351C31.1542 23.2658 31.2669 23.2024 31.3892 23.1653C31.5114 23.1282 31.6403 23.1182 31.7668 23.136C32.3501 23.1749 32.6251 23.5888 32.6501 24.1444Z" fill="#1A3D38"/>
<path d="M26.914 24.1C26.839 24.6167 26.5974 24.9583 26.0307 24.9778C25.3807 25 25.089 24.5945 25.0862 24.0333C25.0782 23.9157 25.0952 23.7978 25.1362 23.6872C25.1771 23.5767 25.2411 23.4761 25.3238 23.392C25.4065 23.308 25.5061 23.2425 25.6159 23.1998C25.7258 23.1572 25.8435 23.1383 25.9612 23.1445C26.5779 23.1306 26.8585 23.5167 26.914 24.1Z" fill="#1A3D38"/>
<path d="M25.6835 26.6391C25.5057 27.1196 25.2057 27.4363 24.6779 27.428C24.5615 27.4427 24.4433 27.43 24.3327 27.3907C24.2221 27.3515 24.1223 27.2869 24.0413 27.202C23.9602 27.1172 23.9002 27.0145 23.866 26.9023C23.8319 26.79 23.8245 26.6714 23.8446 26.5557C23.8668 26.0002 24.2224 25.7224 24.7585 25.778C24.9898 25.7883 25.2099 25.8806 25.3794 26.0384C25.5489 26.1961 25.6566 26.4091 25.6835 26.6391Z" fill="#FFD0C2"/>
<path d="M33.8029 26.5583C33.8029 27.1138 33.5251 27.4277 32.9696 27.4277C32.414 27.4277 32.0363 27.1499 31.9974 26.6471C31.9585 26.1444 32.3751 25.8333 32.8751 25.7805C33.3751 25.7277 33.7446 25.9944 33.8029 26.5583Z" fill="#FFD0C2"/>
<path d="M86.164 42.4001C89.9001 42.4001 89.9001 42.4001 90.8585 46.0834C91.0998 46.8743 91.2955 47.6784 91.4446 48.4918C91.664 50.0557 90.6612 51.1001 89.0974 50.9279C86.949 50.6519 84.887 49.9096 83.0557 48.7529C81.7807 47.989 81.8224 45.6168 82.1724 43.8723C82.4501 42.4279 83.7307 42.389 84.9224 42.4001C85.3362 42.4056 85.7501 42.4001 86.164 42.4001Z" fill="#1A3D38"/>
<path d="M82.1113 63.5169C81.6255 63.5114 81.1605 63.3191 80.8128 62.9797C80.4652 62.6404 80.2617 62.1801 80.2446 61.6946C80.2295 61.4415 80.2678 61.188 80.3571 60.9507C80.4464 60.7133 80.5845 60.4974 80.7627 60.3169C80.9408 60.1364 81.1549 59.9954 81.3911 59.903C81.6272 59.8107 81.8802 59.769 82.1335 59.7807C82.6215 59.7888 83.0864 59.9896 83.4268 60.3394C83.7672 60.6891 83.9554 61.1594 83.9501 61.6474C83.9321 62.1323 83.7335 62.5929 83.3933 62.9388C83.053 63.2847 82.5958 63.4909 82.1113 63.5169Z" fill="#1A3D38"/>
<path d="M53.9835 62.6249C53.7668 61.9778 53.7668 61.2776 53.9835 60.6305C55.0112 59.6333 56.0168 59.5194 56.8335 60.2888C57.0163 60.4614 57.1616 60.6699 57.2601 60.9012C57.3586 61.1325 57.4082 61.3817 57.4058 61.6332C57.4035 61.8846 57.3492 62.1328 57.2464 62.3623C57.1436 62.5917 56.9945 62.7975 56.8085 62.9666C55.9446 63.7944 55.0751 63.6888 53.9835 62.6249Z" fill="#1A3D38"/>
<path d="M70.9279 43.4111C71.039 43.9334 71.3418 44.4861 70.8279 44.8889C70.7272 44.9235 70.6205 44.937 70.5144 44.9284C70.4082 44.9198 70.305 44.8893 70.2112 44.8389C70.0974 44.2334 70.614 43.8889 70.9279 43.4111Z" fill="#E7E7F0"/>
<path d="M83.039 45.9859C83.039 43.4525 83.039 43.4136 85.2613 43.4581C89.7529 43.5497 88.8057 42.6053 90.0974 47.2025C90.1946 47.5581 90.3085 47.9109 90.389 48.2692C90.6668 49.5275 90.2612 49.9942 88.964 49.8664C87.4959 49.6929 86.0718 49.2533 84.7613 48.5692C83.5724 47.9803 82.5474 47.2803 83.039 45.9859Z" fill="#FDFDFE"/>
<path d="M82.9501 61.6667C82.8696 62.1806 82.5807 62.5334 82.0585 62.5001C81.9434 62.5004 81.8296 62.4769 81.7241 62.4311C81.6186 62.3853 81.5237 62.3181 81.4454 62.2339C81.3671 62.1496 81.3072 62.05 81.2693 61.9414C81.2313 61.8328 81.2163 61.7175 81.2251 61.6029C81.2205 61.4874 81.2408 61.3722 81.2846 61.2653C81.3285 61.1583 81.3948 61.0621 81.4791 60.983C81.5634 60.904 81.6638 60.844 81.7733 60.8071C81.8829 60.7703 81.9991 60.7575 82.114 60.7695C82.6474 60.7945 82.9168 61.1501 82.9501 61.6667Z" fill="#E4E4EE"/>
<path d="M56.4279 61.6334C56.364 62.2056 56.0251 62.5167 55.5279 62.5167C55.412 62.5201 55.2967 62.4987 55.1898 62.4539C55.0829 62.4091 54.9867 62.342 54.9078 62.257C54.8289 62.1721 54.7691 62.0712 54.7323 61.9613C54.6955 61.8513 54.6827 61.7348 54.6946 61.6195C54.69 61.504 54.7103 61.3888 54.7541 61.2819C54.7979 61.1749 54.8642 61.0787 54.9485 60.9996C55.0329 60.9206 55.1332 60.8606 55.2428 60.8237C55.3523 60.7869 55.4685 60.7741 55.5835 60.7861C55.695 60.7846 55.8057 60.8055 55.909 60.8476C56.0123 60.8897 56.1062 60.9521 56.1849 61.0311C56.2637 61.1101 56.3258 61.2041 56.3675 61.3076C56.4092 61.411 56.4298 61.5218 56.4279 61.6334Z" fill="#E4E4EE"/>
</svg>
