<svg width="100" height="100" viewBox="0 0 100 100" fill="none" xmlns="http://www.w3.org/2000/svg">
<path d="M48.7332 10.8333C49.2221 11.2249 49.0665 11.7833 49.011 12.2527C48.8888 13.4583 49.2332 13.8999 50.5749 13.9194C59.8082 13.9888 68.2471 16.6083 75.5415 22.3527C81.5999 27.1194 85.9276 33.186 88.5971 40.4638C90.6776 46.1138 91.2887 51.9527 90.7276 57.8333C90.0832 64.5888 87.7249 70.8166 83.8193 76.4777C79.8832 82.1888 74.7776 86.4305 68.6888 89.5944C67.6749 90.1221 66.4971 90.3166 65.6332 91.1249C65.0776 91.4027 64.5471 91.1388 64.0221 91.0083C61.6388 90.4194 59.211 90.2888 56.7749 90.1416C52.4163 89.9057 48.046 90.0051 43.7026 90.4388C41.9138 90.6055 40.1276 90.8138 38.5026 91.6777C28.9767 88.5127 20.9985 81.865 16.1665 73.0666C14.0173 69.261 12.5339 65.1162 11.7804 60.811C11.3165 58.0555 11.2776 55.2777 11.2943 52.4749C11.3304 47.3999 12.6443 42.686 14.4443 38.0305C14.6776 37.4333 14.9832 36.861 15.2554 36.2777C15.6499 35.8694 16.1721 35.8721 16.6749 35.8694C20.2276 35.8527 23.7776 35.8444 27.3304 35.8694C28.3075 35.8892 29.2529 36.219 30.0304 36.811C31.4193 37.8083 32.8082 38.7833 34.2721 39.6721C35.6276 40.5055 36.186 41.5999 36.1776 43.2166C36.1304 54.2444 36.1526 65.2694 36.1554 76.2944C36.1554 79.5499 37.4026 81.2416 40.6776 81.3694C48.4554 81.6749 56.2582 81.786 64.0415 81.2999C66.5665 81.1416 68.0026 79.4583 68.2082 76.9388C68.3165 75.6499 68.2499 74.3555 68.2499 73.0638C68.2499 68.3583 68.2499 63.6527 68.2499 58.9471C68.2499 56.7249 68.6193 56.3749 70.8249 56.3638C73.3249 56.3638 75.8082 56.3638 78.2999 56.3638C81.0776 56.3416 82.6026 54.8638 82.6276 52.0916C82.6665 48.2157 82.6665 44.3407 82.6276 40.4666C82.5999 37.5138 81.1971 36.1499 78.2804 36.1471C75.7443 36.1471 73.2054 36.1471 70.6693 36.1471C68.6499 36.1471 68.2693 35.7471 68.2471 33.6916C68.2249 31.7471 68.2721 29.8027 68.2304 27.8805C68.1638 24.5833 66.4249 22.8805 63.1138 22.8638C58.961 22.8471 54.811 22.8638 50.6582 22.8638C48.5971 22.8638 48.3276 22.586 48.3137 20.5694C48.2971 17.8953 48.2971 15.2194 48.3137 12.5416C48.3332 11.9444 48.2749 11.3221 48.7332 10.8333Z" fill="#FFD9CD"/>
<path d="M48.7332 10.8333C48.7332 14.3389 48.7666 17.8445 48.7332 21.3472C48.7194 22.2695 49.1082 22.3945 49.886 22.3917C54.1777 22.3639 58.4666 22.3722 62.7582 22.3917C66.8666 22.3917 68.6721 24.2028 68.6832 28.2945C68.6832 30.2389 68.7777 32.1833 68.6527 34.1083C68.5666 35.4472 69.0694 35.7111 70.286 35.675C73.0638 35.5917 75.8221 35.6361 78.5916 35.6528C81.361 35.6695 83.036 37.3417 83.036 40.1556C83.0471 44.2167 83.0471 48.2769 83.036 52.3361C83.036 55.1361 81.3694 56.7806 78.5444 56.8C75.8666 56.8 73.1916 56.8 70.5166 56.8C68.6777 56.8 68.6777 56.8 68.6749 58.5778C68.6749 64.3926 68.6749 70.2065 68.6749 76.0195C68.6749 79.9917 66.8166 81.8972 62.8416 81.9167C55.6916 81.9482 48.5406 81.9482 41.3888 81.9167C37.4638 81.8972 35.6499 80.0389 35.6444 76.0834C35.6295 64.9167 35.6369 53.75 35.6666 42.5834C35.6666 41.4722 35.336 40.7889 34.4027 40.2278C32.9301 39.3694 31.5075 38.428 30.1416 37.4083C29.0165 36.5294 27.6081 36.0935 26.1832 36.1833C22.5444 36.2945 18.8999 36.2639 15.2582 36.2889C14.7555 36.2528 14.2499 36.2222 13.7471 36.1778C10.4832 35.8834 8.34713 33.6111 8.33324 30.3139C8.31102 24.225 8.31102 18.1343 8.33324 12.0417C8.33324 8.51113 10.5555 6.20835 14.086 6.12502C17.0832 6.05557 20.0832 6.11113 23.0832 6.11113H42.0444C45.861 6.11113 47.5221 7.28335 48.7332 10.8333Z" fill="#1A3D38"/>
<path d="M38.5165 91.111C38.9026 89.7221 40.2193 89.9693 41.1332 89.811C43.4721 89.3999 45.8554 89.3027 48.2332 89.1277C51.4498 88.8915 54.6443 89.086 57.8387 89.2138C60.4804 89.3221 63.1526 89.4916 65.6471 90.5582C66.0248 91.4332 65.2332 91.4832 64.7971 91.6193C63.0887 92.1499 61.2998 92.2527 59.5387 92.5193C56.8082 92.936 54.0415 92.9138 51.3193 92.936C47.411 92.9693 43.4554 92.7193 39.6332 91.6416C39.2464 91.4971 38.8728 91.3196 38.5165 91.111Z" fill="#FFD9CD"/>
<path d="M28.536 7.05275C33.0545 7.05275 37.5721 7.05275 42.0888 7.05275C45.9776 7.05275 47.7193 8.81387 47.7221 12.725C47.7221 18.349 47.7221 23.974 47.7221 29.6C47.7221 33.4278 45.9749 35.175 42.1665 35.1833C40.0804 35.1833 40.0999 35.1833 40.4999 37.2361C40.8193 38.8639 41.0915 40.5 41.3804 42.1333C41.4415 42.4861 41.6165 42.8805 41.2554 43.1611C40.7999 43.5139 40.4721 43.0972 40.1443 42.8833C36.6221 40.5555 33.0888 38.2083 29.5832 35.8333C28.9483 35.3845 28.1855 35.1527 27.4082 35.1722C23.1665 35.2083 18.9276 35.1944 14.686 35.1722C11.1776 35.1722 9.28042 33.2916 9.27486 29.8278C9.27486 24.0203 9.27486 18.212 9.27486 12.4028C9.27486 8.98609 11.136 7.07498 14.5665 7.04998C19.2249 7.02775 23.8888 7.05275 28.536 7.05275Z" fill="#FEFEFE"/>
<path d="M39.4832 43.8888C39.7999 43.7555 39.9943 44.0277 40.2415 44.1166C41.6054 44.611 42.611 43.9166 42.4332 42.4777C42.2221 40.7888 41.8943 39.1082 41.5304 37.4443C41.3304 36.5249 41.4304 36.1499 42.5193 36.1777C45.3443 36.2471 47.3887 34.9749 48.4332 32.2888C48.6499 31.7332 48.9887 31.6416 49.4776 31.6443C54.3221 31.6443 59.1647 31.6443 64.0054 31.6443C64.4387 31.6443 64.8554 31.6277 64.8387 32.2527C64.8387 33.1749 64.8387 34.0971 64.8387 35.0305C64.8387 35.7805 64.2832 35.6193 63.8471 35.6221C62.1804 35.6221 60.5137 35.6082 58.8665 35.6221C56.2776 35.6582 54.6165 37.2888 54.5943 39.8582C54.561 44.0564 54.561 48.2527 54.5943 52.4471C54.611 55.0193 56.0887 56.6138 58.661 56.7332C59.6665 56.7749 59.6832 57.1749 59.5276 57.9193C59.3193 58.911 59.1443 59.9082 58.9721 60.9082C58.8804 61.436 58.9582 61.9138 59.4638 62.2416C59.9693 62.5693 60.511 62.4805 61.0054 62.1499C62.1915 61.3638 63.3721 60.5749 64.561 59.7805C65.0443 60.1999 64.8387 60.6888 64.8387 61.1055C64.861 64.2416 64.8193 67.3777 64.8693 70.5138C64.886 71.4166 64.7332 71.7888 63.6971 71.7805C55.9971 71.736 48.2971 71.7555 40.5943 71.761C39.9304 71.761 39.3665 71.8582 39.3693 70.8221C39.411 61.9332 39.3971 53.0193 39.4026 44.1193C39.4169 44.0386 39.4441 43.9608 39.4832 43.8888Z" fill="#F15625"/>
<path d="M60.0221 61.6166C60.0221 59.8611 60.4582 58.4916 60.7054 57.1C60.8665 56.1972 60.6887 55.8611 59.7165 55.8277C56.3999 55.7083 55.6304 54.8639 55.6304 51.5361C55.6304 47.7528 55.6304 43.9694 55.6304 40.1833C55.6304 37.7361 56.7415 36.6139 59.1693 36.6111C65.6286 36.6111 72.0869 36.6111 78.5443 36.6111C80.7665 36.6111 81.9832 37.8278 81.9887 40.0139C81.9999 44.1194 81.9999 48.2259 81.9887 52.3333C81.9887 54.5944 80.761 55.825 78.4804 55.8416C75.6665 55.8611 72.8499 55.8861 70.0387 55.8222C69.071 55.81 68.1265 56.1187 67.3526 56.7C64.9999 58.3055 62.6276 59.8722 60.0221 61.6166Z" fill="#FEFEFE"/>
<path d="M36.6665 41.9194C37.9637 42.4 38.4915 43.0917 38.4776 44.5C38.3971 53.4528 38.4554 62.4028 38.4137 71.3555C38.4137 72.4833 38.6915 72.8555 39.8749 72.8472C48.0878 72.8009 56.2999 72.8009 64.511 72.8472C65.6221 72.8472 65.9332 72.5333 65.9165 71.4389C65.8526 67.7472 65.9582 64.0528 65.8554 60.3639C65.8193 59.0055 66.3776 58.3555 67.6637 57.9222V66.2722C67.6637 69.6417 67.6832 73.0083 67.6637 76.3778C67.6415 79.3722 66.1387 80.8972 63.1387 80.9083C55.8017 80.9342 48.4656 80.9342 41.1304 80.9083C38.2971 80.9083 36.6165 79.3222 36.6082 76.625C36.5841 65.1805 36.5841 53.737 36.6082 42.2944C36.6192 42.1683 36.6387 42.043 36.6665 41.9194Z" fill="#FEFEFE"/>
<path d="M57.061 30.7111C54.6638 30.7111 52.2638 30.6694 49.8693 30.7305C48.9415 30.7555 48.686 30.4528 48.7193 29.5528C48.7888 27.8055 48.7665 26.05 48.7193 24.2972C48.7026 23.5722 48.9665 23.3361 49.6804 23.3389C54.2443 23.3611 58.8082 23.2972 63.3721 23.3722C66.1832 23.4194 67.5915 24.9222 67.6388 27.7194C67.6776 30.025 67.6387 32.3305 67.6554 34.6361C67.6554 35.2889 67.5554 35.6583 66.7638 35.6555C65.9721 35.6528 65.836 35.3083 65.8665 34.6417C65.9026 33.7667 65.8165 32.8861 65.8888 32.0167C65.9804 30.9472 65.5165 30.6722 64.5221 30.6916C62.0415 30.7472 59.5499 30.7111 57.061 30.7111Z" fill="#FDFDFE"/>
<path d="M28.5804 23.711C27.9067 23.7164 27.2576 23.4578 26.7721 22.9905C26.2867 22.5233 26.0035 21.8845 25.9832 21.211C25.9732 20.8764 26.0297 20.5431 26.1495 20.2305C26.2692 19.9178 26.4498 19.6321 26.6808 19.3897C26.9118 19.1474 27.1886 18.9533 27.4951 18.8187C27.8016 18.684 28.1318 18.6116 28.4665 18.6055C29.1415 18.5958 29.7931 18.853 30.2795 19.3212C30.7659 19.7893 31.0477 20.4306 31.0638 21.1055C31.0659 21.7763 30.8086 22.4219 30.3459 22.9075C29.8831 23.393 29.2505 23.6809 28.5804 23.711Z" fill="#1A3D38"/>
<path d="M21.6665 21.275C21.6537 21.6085 21.575 21.9361 21.4352 22.2391C21.2953 22.5422 21.0969 22.8146 20.8514 23.0407C20.606 23.2668 20.3182 23.4422 20.0048 23.5567C19.6913 23.6713 19.3583 23.7228 19.0249 23.7083C18.355 23.6524 17.732 23.342 17.284 22.8408C16.836 22.3396 16.5971 21.6858 16.6165 21.0139C16.6518 20.3405 16.952 19.7085 17.4516 19.2557C17.9512 18.8029 18.6096 18.5662 19.2832 18.5972C19.618 18.6092 19.9468 18.689 20.25 18.8316C20.5531 18.9742 20.8242 19.1767 21.0469 19.427C21.2696 19.6772 21.4393 19.9699 21.5458 20.2875C21.6523 20.6052 21.6934 20.941 21.6665 21.275Z" fill="#1A3D38"/>
<path d="M40.411 21.15C40.3955 21.8232 40.122 22.4648 39.6468 22.942C39.1717 23.4192 38.5314 23.6955 37.8582 23.7139C37.1863 23.6843 36.5502 23.4031 36.0762 22.926C35.6022 22.4489 35.325 21.8109 35.2999 21.1389C35.3176 20.4653 35.5942 19.8244 36.0722 19.3495C36.5502 18.8746 37.1929 18.6022 37.8665 18.5889C38.5411 18.599 39.1849 18.8726 39.6604 19.3512C40.1359 19.8298 40.4052 20.4754 40.411 21.15Z" fill="#1A3D38"/>
<path d="M68.9665 44.0333C69.2656 44.0281 69.5626 44.0828 69.8402 44.1942C70.1178 44.3055 70.3703 44.4713 70.5828 44.6818C70.7953 44.8922 70.9636 45.1431 71.0777 45.4196C71.1917 45.696 71.2493 45.9925 71.2471 46.2916C71.2575 46.8963 71.0282 47.4806 70.6092 47.9168C70.1902 48.3529 69.6156 48.6056 69.011 48.6194C68.4065 48.6109 67.8289 48.3681 67.3999 47.9422C66.9708 47.5163 66.7239 46.9405 66.711 46.3361C66.7054 46.0361 66.7597 45.7381 66.8705 45.4593C66.9813 45.1805 67.1464 44.9265 67.3564 44.7122C67.5663 44.4979 67.8168 44.3275 68.0932 44.2109C68.3697 44.0944 68.6665 44.034 68.9665 44.0333Z" fill="#1A3D38"/>
<path d="M78.1693 46.2723C78.1652 46.8751 77.9313 47.4536 77.5152 47.8898C77.0992 48.326 76.5323 48.587 75.9304 48.6195C75.3262 48.617 74.7464 48.3808 74.3124 47.9603C73.8785 47.5399 73.6241 46.9678 73.6026 46.364C73.5941 46.0649 73.6451 45.7672 73.7525 45.488C73.8598 45.2088 74.0216 44.9537 74.2283 44.7374C74.435 44.5212 74.6825 44.3481 74.9566 44.2282C75.2306 44.1083 75.5258 44.044 75.8248 44.039C76.4317 44.0248 77.0195 44.252 77.459 44.6707C77.8986 45.0894 78.154 45.6654 78.1693 46.2723Z" fill="#1A3D38"/>
<path d="M62.0415 48.6111C61.4446 48.5817 60.8828 48.3203 60.4759 47.8825C60.0689 47.4448 59.8491 46.8655 59.8632 46.268C59.8774 45.6705 60.1243 45.1022 60.5515 44.6842C60.9787 44.2662 61.5522 44.0317 62.1499 44.0305C62.4499 44.0381 62.7454 44.1048 63.0196 44.2268C63.2938 44.3488 63.5412 44.5237 63.7476 44.7415C63.9541 44.9593 64.1155 45.2157 64.2226 45.496C64.3298 45.7763 64.3806 46.075 64.3721 46.375C64.3518 46.978 64.0968 47.5492 63.6615 47.9669C63.2261 48.3846 62.6449 48.6158 62.0415 48.6111Z" fill="#1A3D38"/>
<path d="M52.1193 73.9279C52.5112 73.9131 52.9021 73.9771 53.2688 74.1161C53.6355 74.2551 53.9706 74.4663 54.2542 74.7372C54.5378 75.0081 54.7641 75.3331 54.9198 75.6931C55.0754 76.053 55.1573 76.4406 55.1604 76.8327C55.1636 77.2249 55.088 77.6137 54.9382 77.9761C54.7883 78.3385 54.5673 78.6672 54.2881 78.9426C54.0089 79.218 53.6773 79.4346 53.3128 79.5795C52.9484 79.7244 52.5586 79.7947 52.1665 79.7862C51.7755 79.7908 51.3876 79.7166 51.0259 79.5679C50.6642 79.4193 50.3362 79.1994 50.0614 78.9212C49.7866 78.643 49.5706 78.3123 49.4264 77.9488C49.2822 77.5854 49.2127 77.1966 49.2221 76.8056C49.221 76.4258 49.2953 76.0495 49.4407 75.6985C49.5862 75.3476 49.7998 75.0291 50.0694 74.7614C50.3389 74.4937 50.6589 74.2821 51.0108 74.139C51.3627 73.996 51.7395 73.9242 52.1193 73.9279Z" fill="#1A3D38"/>
<path d="M54.6943 27.4999C53.4971 27.4999 52.2971 27.4999 51.0999 27.4999C50.7415 27.4999 50.2665 27.5388 50.3165 26.9916C50.3471 26.5943 50.7165 26.5249 51.0526 26.5249C53.4063 26.5249 55.7573 26.5249 58.1054 26.5249C58.4499 26.5249 58.8082 26.6138 58.8193 27.011C58.8332 27.5666 58.3693 27.4971 58.0137 27.4999C56.9082 27.5193 55.7999 27.4999 54.6943 27.4999Z" fill="#1A3D38"/>
<path d="M30.0332 21.0804C29.9915 22.0777 29.4776 22.6638 28.4971 22.6804C27.5165 22.6971 27.0221 22.0582 26.9887 21.1971C26.9526 20.2388 27.5443 19.6166 28.5304 19.6221C29.4443 19.6249 29.9749 20.1443 30.0332 21.0804Z" fill="#FFAA8F"/>
<path d="M17.6415 21.1112C17.7526 20.1029 18.3276 19.5751 19.2832 19.639C20.1526 19.6973 20.7499 20.2501 20.7249 21.1556C20.6999 22.1056 20.111 22.7056 19.1471 22.6862C18.1832 22.6668 17.6971 22.0334 17.6415 21.1112Z" fill="#FFAA8F"/>
<path d="M36.2971 21.2055C36.3749 20.1611 36.9499 19.6083 37.886 19.6139C38.0826 19.5994 38.28 19.6269 38.4652 19.6947C38.6503 19.7624 38.8189 19.8688 38.9598 20.0068C39.1006 20.1447 39.2105 20.3111 39.282 20.4948C39.3536 20.6785 39.3853 20.8753 39.3749 21.0722C39.3943 22.0416 38.8554 22.6583 37.8915 22.6777C36.9276 22.6972 36.411 22.0972 36.2971 21.2055Z" fill="#FFAA8F"/>
<path d="M70.2776 46.2973C70.1888 47 69.8471 47.5306 69.0971 47.5861C68.9237 47.6129 68.7465 47.601 68.5782 47.5512C68.41 47.5014 68.2549 47.415 68.124 47.2982C67.993 47.1814 67.8896 47.037 67.8211 46.8755C67.7526 46.7139 67.7207 46.5392 67.7276 46.3639C67.6915 45.5556 68.1888 45.0889 69.0193 45.0778C69.8499 45.0667 70.1443 45.5861 70.2776 46.2973Z" fill="#FFAA8F"/>
<path d="M77.1804 46.3444C77.0332 47.1361 76.611 47.65 75.7915 47.5944C74.9721 47.5388 74.5554 46.9944 74.611 46.2055C74.661 45.4805 75.1165 45.0638 75.886 45.0777C76.7387 45.0944 77.0915 45.6 77.1804 46.3444Z" fill="#FFAA8F"/>
<path d="M62.0582 47.6222C61.2443 47.4972 60.8304 47.0249 60.8721 46.2083C60.9137 45.3916 61.3971 45.0416 62.1499 45.0777C62.9026 45.1138 63.3749 45.5222 63.3693 46.2972C63.361 47.1222 62.8499 47.5249 62.0582 47.6222Z" fill="#FFAA8F"/>
<path d="M54.0249 76.8138C54.0395 77.0673 54.0015 77.3212 53.9132 77.5593C53.8249 77.7974 53.6882 78.0146 53.5118 78.1973C53.3354 78.3799 53.1231 78.5241 52.8882 78.6206C52.6533 78.7172 52.401 78.7641 52.1471 78.7583C51.0082 78.7277 50.3749 78.0694 50.2471 76.9749C50.2276 76.7214 50.2595 76.4665 50.3408 76.2255C50.422 75.9846 50.5511 75.7625 50.7201 75.5725C50.8892 75.3826 51.0948 75.2286 51.3247 75.12C51.5546 75.0113 51.8041 74.9501 52.0582 74.94C52.3123 74.9299 52.5658 74.9711 52.8036 75.0612C53.0414 75.1514 53.2585 75.2885 53.4421 75.4645C53.6257 75.6404 53.772 75.8516 53.8721 76.0853C53.9722 76.3191 54.0242 76.5706 54.0249 76.8249V76.8138Z" fill="#F9F9FB"/>
</svg>
