<svg width="18" height="18" viewBox="0 0 18 18" fill="none" xmlns="http://www.w3.org/2000/svg">
<path d="M12.4917 0.682617H5.50835C2.47502 0.682617 0.666687 2.49095 0.666687 5.52428V12.4993C0.666687 15.541 2.47502 17.3493 5.50835 17.3493H12.4834C15.5167 17.3493 17.325 15.541 17.325 12.5076V5.52428C17.3334 2.49095 15.525 0.682617 12.4917 0.682617ZM9.00002 12.2493C7.21669 12.2493 5.76669 10.7993 5.76669 9.01595C5.76669 7.23262 7.21669 5.78262 9.00002 5.78262C10.7834 5.78262 12.2334 7.23262 12.2334 9.01595C12.2334 10.7993 10.7834 12.2493 9.00002 12.2493ZM13.9334 4.74928C13.8917 4.84928 13.8334 4.94095 13.7584 5.02428C13.675 5.09928 13.5834 5.15762 13.4834 5.19928C13.3834 5.24095 13.275 5.26595 13.1667 5.26595C12.9417 5.26595 12.7334 5.18262 12.575 5.02428C12.5 4.94095 12.4417 4.84928 12.4 4.74928C12.3584 4.64928 12.3334 4.54095 12.3334 4.43262C12.3334 4.32428 12.3584 4.21595 12.4 4.11595C12.4417 4.00762 12.5 3.92428 12.575 3.84095C12.7667 3.64928 13.0584 3.55762 13.325 3.61595C13.3834 3.62428 13.4334 3.64095 13.4834 3.66595C13.5334 3.68262 13.5834 3.70762 13.6334 3.74095C13.675 3.76595 13.7167 3.80762 13.7584 3.84095C13.8334 3.92428 13.8917 4.00762 13.9334 4.11595C13.975 4.21595 14 4.32428 14 4.43262C14 4.54095 13.975 4.64928 13.9334 4.74928Z" fill="white" fill-opacity="0.8"/>
</svg>
