<svg width="24" height="24" viewBox="0 0 24 24" fill="none" xmlns="http://www.w3.org/2000/svg">
<path d="M12.56 20.82C12.3968 20.9372 12.201 21.0003 12 21.0003C11.7991 21.0003 11.6032 20.9372 11.44 20.82C6.61102 17.378 1.48602 10.298 6.66702 5.182C8.08937 3.78285 10.0049 2.99912 12 3C14 3 15.919 3.785 17.333 5.181C22.514 10.297 17.389 17.376 12.56 20.82Z" stroke="#444444" stroke-width="2" stroke-linecap="round" stroke-linejoin="round"/>
<path d="M12 12C12.5304 12 13.0391 11.7893 13.4142 11.4142C13.7893 11.0391 14 10.5304 14 10C14 9.46957 13.7893 8.96086 13.4142 8.58579C13.0391 8.21071 12.5304 8 12 8C11.4696 8 10.9609 8.21071 10.5858 8.58579C10.2107 8.96086 10 9.46957 10 10C10 10.5304 10.2107 11.0391 10.5858 11.4142C10.9609 11.7893 11.4696 12 12 12Z" stroke="#444444" stroke-width="2" stroke-linecap="round" stroke-linejoin="round"/>
</svg>
