<svg width="28" height="28" viewBox="0 0 28 28" fill="none" xmlns="http://www.w3.org/2000/svg">
<path d="M23.5 13.9995H10.8111M6.33222 13.9995H4.5M6.33222 13.9995C6.33222 13.4073 6.5681 12.8394 6.98798 12.4207C7.40786 12.002 7.97734 11.7668 8.57114 11.7668C9.16493 11.7668 9.73441 12.002 10.1543 12.4207C10.5742 12.8394 10.8101 13.4073 10.8101 13.9995C10.8101 14.5916 10.5742 15.1595 10.1543 15.5783C9.73441 15.997 9.16493 16.2322 8.57114 16.2322C7.97734 16.2322 7.40786 15.997 6.98798 15.5783C6.5681 15.1595 6.33222 14.5916 6.33222 13.9995ZM23.5 20.7663H17.5966M17.5966 20.7663C17.5966 21.3585 17.3602 21.9271 16.9402 22.3459C16.5202 22.7647 15.9506 23 15.3567 23C14.7629 23 14.1934 22.7637 13.7735 22.345C13.3537 21.9263 13.1178 21.3584 13.1178 20.7663M17.5966 20.7663C17.5966 20.174 17.3602 19.6065 16.9402 19.1876C16.5202 18.7688 15.9506 18.5335 15.3567 18.5335C14.7629 18.5335 14.1934 18.7688 13.7735 19.1875C13.3537 19.6062 13.1178 20.1741 13.1178 20.7663M13.1178 20.7663H4.5M23.5 7.23272H20.3111M15.8322 7.23272H4.5M15.8322 7.23272C15.8322 6.64056 16.0681 6.07266 16.488 5.65395C16.9079 5.23523 17.4773 5 18.0711 5C18.3652 5 18.6563 5.05775 18.9279 5.16996C19.1996 5.28216 19.4464 5.44662 19.6543 5.65395C19.8622 5.86127 20.0271 6.10741 20.1396 6.37829C20.2521 6.64918 20.3101 6.93951 20.3101 7.23272C20.3101 7.52592 20.2521 7.81626 20.1396 8.08714C20.0271 8.35803 19.8622 8.60416 19.6543 8.81149C19.4464 9.01881 19.1996 9.18327 18.9279 9.29548C18.6563 9.40768 18.3652 9.46543 18.0711 9.46543C17.4773 9.46543 16.9079 9.2302 16.488 8.81149C16.0681 8.39277 15.8322 7.82487 15.8322 7.23272Z" stroke="white" stroke-width="1.25" stroke-miterlimit="10" stroke-linecap="round"/>
</svg>
