<svg width="16" height="16" viewBox="0 0 16 16" fill="none" xmlns="http://www.w3.org/2000/svg">
<path d="M14.9983 1.71094H0.998326C0.919754 1.71094 0.855469 1.77522 0.855469 1.85379V2.99665C0.855469 3.07522 0.919754 3.13951 0.998326 3.13951H14.9983C15.0769 3.13951 15.1412 3.07522 15.1412 2.99665V1.85379C15.1412 1.77522 15.0769 1.71094 14.9983 1.71094ZM14.9983 12.8538H0.998326C0.919754 12.8538 0.855469 12.9181 0.855469 12.9967V14.1395C0.855469 14.2181 0.919754 14.2824 0.998326 14.2824H14.9983C15.0769 14.2824 15.1412 14.2181 15.1412 14.1395V12.9967C15.1412 12.9181 15.0769 12.8538 14.9983 12.8538ZM14.9983 7.28237H0.998326C0.919754 7.28237 0.855469 7.34665 0.855469 7.42522V8.56808C0.855469 8.64665 0.919754 8.71094 0.998326 8.71094H14.9983C15.0769 8.71094 15.1412 8.64665 15.1412 8.56808V7.42522C15.1412 7.34665 15.0769 7.28237 14.9983 7.28237Z" fill="#262626"/>
</svg>
