<svg width="46" height="45" viewBox="0 0 46 45" fill="none" xmlns="http://www.w3.org/2000/svg">
<path d="M12.052 3.75C10.9331 3.75 9.86006 4.19447 9.0689 4.98564C8.27773 5.77681 7.83325 6.84987 7.83325 7.96875V37.0312C7.83325 38.1501 8.27773 39.2232 9.0689 40.0144C9.86006 40.8055 10.9331 41.25 12.052 41.25H26.1145C27.2266 41.25 28.2937 40.811 29.0838 40.0283C29.8738 39.2456 30.3229 38.1827 30.3333 37.0706V34.2206C30.3333 33.8477 30.1851 33.49 29.9214 33.2263C29.6576 32.9625 29.3 32.8144 28.927 32.8144C28.0776 32.8144 27.5414 32.5837 27.172 32.2856C26.782 31.9725 26.4595 31.4888 26.2139 30.8063C25.702 29.3906 25.6476 27.525 25.6476 25.7812C25.6476 25.4248 25.5122 25.0817 25.2689 24.8212L24.9595 24.4894C24.8577 24.377 24.7513 24.2688 24.6408 24.165C24.502 24.0337 24.0783 23.6306 22.4226 21.975C21.5433 21.0956 21.0576 20.3531 20.8983 19.785C20.8323 19.5885 20.8219 19.3776 20.8683 19.1756C20.9377 18.942 21.0708 18.7323 21.2526 18.57C21.4146 18.3891 21.6236 18.2567 21.8564 18.1875C22.0578 18.1415 22.268 18.1519 22.4639 18.2175C23.0301 18.3769 23.7726 18.8663 24.652 19.7456C25.6645 20.7581 26.6264 21.7087 27.487 22.5581C28.912 23.9681 30.0614 25.1081 30.712 25.8019C30.9669 26.0724 31.3186 26.2309 31.69 26.2429C32.0615 26.2549 32.4227 26.1194 32.6945 25.8659C32.9663 25.6124 33.1267 25.2616 33.1407 24.8902C33.1546 24.5187 33.0209 24.1569 32.7689 23.8837C31.9709 23.0489 31.1589 22.2276 30.3333 21.42V15.1125L35.662 20.4412C36.4514 21.2325 36.8976 22.305 36.8976 23.4225V39.8438C36.8976 40.2167 37.0458 40.5744 37.3095 40.8381C37.5732 41.1018 37.9309 41.25 38.3039 41.25C38.6768 41.25 39.0345 41.1018 39.2982 40.8381C39.562 40.5744 39.7101 40.2167 39.7101 39.8438V23.4244C39.7101 22.5008 39.528 21.5863 39.1745 20.7331C38.8209 19.8799 38.3027 19.1048 37.6495 18.4519L30.3333 11.1356V7.96688C30.3328 6.84832 29.8881 5.77574 29.0969 4.98498C28.3058 4.19422 27.2331 3.75 26.1145 3.75H12.052ZM25.4095 34.4775C26.0255 34.9713 26.7486 35.3142 27.5208 35.4788V35.625H26.1145C25.7415 35.625 25.3839 35.7732 25.1201 36.0369C24.8564 36.3006 24.7083 36.6583 24.7083 37.0312V38.4375H21.8958V37.0312C21.8958 36.2364 22.1205 35.4578 22.5438 34.785C22.967 34.1123 23.5718 33.5728 24.2883 33.2288C24.5883 33.6863 24.9558 34.1138 25.4095 34.4775ZM22.837 26.3362C22.8408 26.8106 22.8501 27.3225 22.8783 27.855C22.0052 28.4734 20.9942 28.869 19.9332 29.0073C18.8723 29.1455 17.7937 29.0223 16.7912 28.6483C15.7888 28.2744 14.8931 27.661 14.1819 26.8616C13.4708 26.0623 12.9659 25.1011 12.7112 24.062C12.4565 23.0229 12.4598 21.9372 12.7207 20.8996C12.9815 19.862 13.4922 18.9039 14.208 18.1088C14.9239 17.3137 15.8233 16.7057 16.8279 16.3377C17.8326 15.9697 18.9119 15.8529 19.972 15.9975C19.722 16.1637 19.4858 16.3587 19.2633 16.5825C18.7158 17.13 18.3258 17.7638 18.1439 18.4762C17.962 19.1888 18.0051 19.89 18.1908 20.5462C18.5451 21.8081 19.4376 22.9669 20.4351 23.9644C21.1977 24.7362 21.9703 25.4982 22.7526 26.25L22.7601 26.2556L22.8295 26.3288L22.837 26.3362ZM13.4583 6.5625H16.2708V7.96875C16.2708 9.08763 15.8263 10.1607 15.0351 10.9519C14.2439 11.743 13.1709 12.1875 12.052 12.1875H10.6458V9.375H12.052C12.425 9.375 12.7826 9.22684 13.0464 8.96312C13.3101 8.6994 13.4583 8.34171 13.4583 7.96875V6.5625ZM21.8958 6.5625H24.7083V7.96875C24.7083 8.745 25.3383 9.375 26.1145 9.375H27.5208V12.1875H26.1145C24.9956 12.1875 23.9226 11.743 23.1314 10.9519C22.3402 10.1607 21.8958 9.08763 21.8958 7.96875V6.5625ZM16.2708 38.4375H13.4583V37.0312C13.4583 36.6583 13.3101 36.3006 13.0464 36.0369C12.7826 35.7732 12.425 35.625 12.052 35.625H10.6458V32.8125H12.052C13.1709 32.8125 14.2439 33.257 15.0351 34.0481C15.8263 34.8393 16.2708 35.9124 16.2708 37.0312V38.4375Z" fill="#F15625"/>
</svg>
