<svg width="36" height="34" viewBox="0 0 36 34" fill="none" xmlns="http://www.w3.org/2000/svg">
<path d="M1 31.5451V32.0451H1.5H15.3751H15.8751V31.5451V17.728V17.228H15.3751H9.97678V14.8192C9.97678 12.1612 10.4627 10.258 11.3558 9.02982C12.2273 7.83126 13.5369 7.20795 15.3751 7.20795H15.8751V6.70795V1.16992V0.669922H15.3751C10.9567 0.669922 7.42419 2.05198 4.84083 4.85766C2.23549 7.64971 1 12.4573 1 19.1265V31.5451Z" stroke="#113D3C"/>
<path d="M20.1249 31.5451V32.0451H20.6249H34.5H35V31.5451V17.728V17.228H34.5H29.1017V14.8192C29.1017 12.1612 29.5876 10.258 30.4806 9.02982C31.3522 7.83126 32.6618 7.20795 34.5 7.20795H35V6.70795V1.16992V0.669922H34.5C30.0816 0.669922 26.5491 2.05198 23.9657 4.85766C21.3604 7.64971 20.1249 12.4573 20.1249 19.1265V31.5451Z" stroke="#113D3C"/>
</svg>
