<?xml version="1.0" encoding="UTF-8"?>
<svg id="Layer_1" data-name="Layer 1" xmlns="http://www.w3.org/2000/svg" viewBox="0 0 40.46 50.32">
  <defs>
    <style>
      .cls-1 {
        fill: #f15625;
      }
    </style>
  </defs>
  <path class="cls-1" d="m39.64,6.45L21.06.11c-.22-.08-.53-.11-.83-.11s-.6.04-.83.11L.83,6.45c-.45.15-.83.68-.83,1.16v26.38c0,.48.31,1.12.69,1.42l18.85,14.69c.19.15.44.22.69.22s.5-.08.69-.22l18.85-14.69c.38-.3.69-.93.69-1.42V7.61c.01-.48-.36-1-.81-1.16Zm-9.43,9.34l-11.63,16.01c-.08.11-.19.2-.31.27-.12.06-.26.1-.4.1s-.28-.03-.4-.1c-.12-.06-.23-.15-.31-.27l-6.91-9.52c-.21-.29,0-.69.36-.69h3.02c.28,0,.55.14.71.36l3.54,4.87,8.25-11.36c.16-.22.43-.36.71-.36h3.02c.36,0,.56.41.36.7Z"/>
</svg>