<svg width="24" height="24" viewBox="0 0 24 24" fill="none" xmlns="http://www.w3.org/2000/svg">
<path d="M6.32789 1.65887C7.77063 1.07186 9.34691 0.892469 10.8847 1.14027C12.4224 1.38808 13.8625 2.05355 15.0478 3.06406C16.2331 4.07457 17.1181 5.39127 17.606 6.87045C18.094 8.34963 18.1663 9.93443 17.8149 11.4519L22.9689 16.6049L21.5539 18.0189L15.5669 12.0319L15.7449 11.4559C16.0945 10.3253 16.1289 9.1208 15.8443 7.97216C15.5597 6.82353 14.9669 5.77438 14.1299 4.93787C13.3581 4.16561 12.4042 3.6002 11.3563 3.29383C10.3084 2.98745 9.20013 2.94998 8.13389 3.18487L12.3619 7.41287L7.41189 12.3629L3.18389 8.13287C2.94913 9.19919 2.98676 10.3075 3.29331 11.3554C3.59986 12.4033 4.16546 13.3572 4.93789 14.1289C5.77441 14.9659 6.82355 15.5587 7.97219 15.8433C9.12082 16.1279 10.3254 16.0935 11.4559 15.7439L12.0309 15.5659L18.0189 21.5539L16.6049 22.9679L11.4509 17.8149C9.93345 18.1662 8.34865 18.094 6.86947 17.606C5.39029 17.118 4.07359 16.2331 3.06308 15.0478C2.05257 13.8625 1.3871 12.4224 1.1393 10.8846C0.891493 9.34688 1.07088 7.77061 1.65789 6.32787L1.91189 5.70387L3.58389 5.70587L7.41189 9.53387L9.53389 7.41287L5.70589 3.58487L5.70389 1.91287L6.32789 1.65887ZM15.5439 14.1299L20.4939 19.0799L19.0799 20.4939L14.1299 15.5439L15.5439 14.1299Z" fill="#666666"/>
</svg>
