<svg width="18" height="16" viewBox="0 0 18 16" fill="none" xmlns="http://www.w3.org/2000/svg">
<path d="M17.1922 3.08317L14.8562 5.4191C14.3844 10.8894 9.77107 15.141 4.24998 15.141C3.1156 15.141 2.18045 14.9613 1.47029 14.6066C0.897634 14.3199 0.663259 14.0129 0.604665 13.9254C0.552419 13.847 0.518554 13.7579 0.505602 13.6646C0.49265 13.5713 0.500946 13.4763 0.529869 13.3867C0.558792 13.297 0.607595 13.2151 0.672631 13.147C0.737667 13.0789 0.817254 13.0264 0.905446 12.9933C0.925759 12.9855 2.7992 12.266 3.98904 10.8964C3.32918 10.3539 2.75316 9.71683 2.27967 9.00582C1.31092 7.56754 0.22654 5.0691 0.560915 1.33551C0.571514 1.21687 0.615792 1.10374 0.688534 1.00942C0.761277 0.915106 0.859455 0.84354 0.971507 0.803152C1.08356 0.762764 1.20482 0.755235 1.32101 0.781453C1.43719 0.80767 1.54347 0.866542 1.62732 0.951135C1.65467 0.978478 4.22732 3.53707 7.37263 4.36676V3.89098C7.37144 3.39207 7.47008 2.89796 7.66275 2.43775C7.85542 1.97754 8.13822 1.56054 8.49451 1.21129C8.84052 0.865765 9.25224 0.593042 9.70536 0.409216C10.1585 0.22539 10.6438 0.134184 11.1328 0.140979C11.7887 0.147448 12.4318 0.32352 12.9995 0.652076C13.5672 0.980632 14.0403 1.45049 14.3726 2.01598H16.75C16.8737 2.01588 16.9946 2.05248 17.0975 2.12115C17.2003 2.18982 17.2805 2.28747 17.3279 2.40173C17.3752 2.516 17.3876 2.64174 17.3634 2.76305C17.3393 2.88435 17.2797 2.99576 17.1922 3.08317Z" fill="white"/>
</svg>
