<svg width="57" height="56" viewBox="0 0 57 56" fill="none" xmlns="http://www.w3.org/2000/svg">
<g clip-path="url(#clip0_427_1567)">
<path d="M28.4999 3.33638e-07C32.8067 0.00149552 37.0551 0.996472 40.9147 2.90754C44.7743 4.81861 48.141 7.59426 50.753 11.0186C53.365 14.4429 55.1518 18.4237 55.9746 22.6512C56.7973 26.8786 56.6337 31.2389 55.4966 35.3929C54.3595 39.5469 52.2794 43.3826 49.4182 46.6016C46.557 49.8206 42.9918 52.3362 38.9999 53.9528C35.008 55.5693 30.697 56.2432 26.4022 55.922C22.1073 55.6009 17.9445 54.2933 14.2374 52.101L2.80293 55.909C2.49487 56.0112 2.16446 56.0257 1.84863 55.9509C1.53279 55.8761 1.24399 55.715 1.01448 55.4854C0.784976 55.2559 0.623819 54.9671 0.549022 54.6513C0.474224 54.3355 0.488733 54.0051 0.590928 53.697L4.40243 42.266C1.88472 38.014 0.537145 33.1714 0.496551 28.23C0.455956 23.2887 1.72379 18.4246 4.1713 14.1318C6.6188 9.83894 10.1588 6.2703 14.4317 3.78827C18.7047 1.30624 23.5584 -0.000762395 28.4999 3.33638e-07ZM18.7489 14.014C18.3928 14.026 18.0436 14.1155 17.7257 14.2763C17.4077 14.4371 17.1286 14.6653 16.9079 14.945C16.2779 15.6835 14.4999 17.4825 14.4999 21.1295C14.4999 24.7835 16.9674 28.3185 17.3139 28.8155C17.6569 29.2985 22.1719 36.7955 29.0844 40.0155C30.3678 40.6105 31.6744 41.1308 33.0044 41.5765C34.6564 42.1365 36.1614 42.063 37.3514 41.874C38.6779 41.664 41.4254 40.0785 42.0029 38.339C42.5734 36.6135 42.5734 35.126 42.3984 34.8145C42.2269 34.5065 41.7684 34.3175 41.0754 33.9395C40.3894 33.572 36.9979 31.7765 36.3679 31.535C35.7379 31.2795 35.2759 31.164 34.8174 31.9025C34.3554 32.648 33.0429 34.321 32.6369 34.8145C32.2414 35.301 31.8319 35.371 31.1494 35C30.4564 34.6325 28.2409 33.845 25.6054 31.311C23.5579 29.3475 22.1754 26.908 21.7764 26.1695C21.3704 25.424 21.7309 25.0285 22.0739 24.654C22.3889 24.325 22.7669 23.793 23.1099 23.3555C23.4494 22.9285 23.5719 22.6205 23.8029 22.12C24.0269 21.6265 23.9114 21.189 23.7399 20.8215C23.5684 20.454 22.1894 16.7895 21.6154 15.302C21.0554 13.8565 20.4849 14.0595 20.0649 14.0315C19.6659 14.014 19.2074 14.014 18.7489 14.014Z" fill="#F25550"/>
</g>
<defs>
<clipPath id="clip0_427_1567">
<rect width="56" height="56" fill="white" transform="translate(0.499939)"/>
</clipPath>
</defs>
</svg>
