<svg width="100" height="100" viewBox="0 0 100 100" fill="none" xmlns="http://www.w3.org/2000/svg">
<rect width="100" height="100" rx="50" fill="#1FBE34"/>
<path fill-rule="evenodd" clip-rule="evenodd" d="M50 76.25C63.531 76.25 74.5 65.281 74.5 51.75C74.5 38.219 63.531 27.25 50 27.25C36.469 27.25 25.5 38.219 25.5 51.75C25.5 56.1441 26.6567 60.268 28.6823 63.8338L25.5 76.25L38.301 73.2817C41.7775 75.1744 45.7631 76.25 50 76.25ZM50 72.4809C61.4494 72.4809 70.7309 63.1994 70.7309 51.75C70.7309 40.3008 61.4494 31.0192 50 31.0192C38.5507 31.0192 29.2692 40.3008 29.2692 51.75C29.2692 56.1707 30.6529 60.2681 33.0107 63.6329L31.1538 70.5961L38.2399 68.8246C41.5814 71.1306 45.6331 72.4809 50 72.4809Z" fill="#BFC8D0"/>
<path d="M71 50C71 61.5979 61.5979 71 50 71C45.5763 71 41.4721 69.6322 38.0872 67.2965L30.9091 69.0909L32.7901 62.0372C30.4016 58.6287 29 54.4781 29 50C29 38.402 38.402 29 50 29C61.5979 29 71 38.402 71 50Z" fill="#1FBE34"/>
<path fill-rule="evenodd" clip-rule="evenodd" d="M50 74.5C63.531 74.5 74.5 63.531 74.5 50C74.5 36.469 63.531 25.5 50 25.5C36.469 25.5 25.5 36.469 25.5 50C25.5 54.3941 26.6567 58.518 28.6823 62.0838L25.5 74.5L38.301 71.5317C41.7775 73.4244 45.7631 74.5 50 74.5ZM50 70.7309C61.4494 70.7309 70.7309 61.4494 70.7309 50C70.7309 38.5507 61.4494 29.2692 50 29.2692C38.5507 29.2692 29.2692 38.5507 29.2692 50C29.2692 54.4207 30.6529 58.5181 33.0107 61.8829L31.1538 68.8461L38.2399 67.0746C41.5814 69.3806 45.6331 70.7309 50 70.7309Z" fill="white"/>
<path d="M43.875 38.6249C43.2926 37.4549 42.3989 37.5585 41.4962 37.5585C39.8829 37.5585 37.3672 39.491 37.3672 43.0876C37.3672 46.0351 38.666 49.2616 43.0427 54.0883C47.2665 58.7464 52.8165 61.156 57.4239 61.0739C62.0313 60.992 62.9792 57.0271 62.9792 55.6881C62.9792 55.0947 62.6109 54.7986 62.3573 54.7181C60.7872 53.9646 57.8913 52.5605 57.2324 52.2968C56.5735 52.0331 56.2295 52.3899 56.0156 52.584C55.4182 53.1533 54.2338 54.8315 53.8281 55.209C53.4227 55.5865 52.818 55.3954 52.5664 55.2527C51.6404 54.8812 49.1301 53.7645 47.1291 51.8247C44.6543 49.4258 44.509 48.6003 44.0428 47.8656C43.6699 47.2778 43.9436 46.9173 44.0801 46.7596C44.6133 46.1445 45.3495 45.1946 45.6798 44.7226C46.0098 44.2505 45.7479 43.5339 45.5905 43.0876C44.9142 41.1679 44.341 39.5608 43.875 38.6249Z" fill="white"/>
</svg>
