<svg width="60" height="61" viewBox="0 0 60 61" fill="none" xmlns="http://www.w3.org/2000/svg">
<rect y="0.015625" width="60" height="60" rx="30" fill="#1FBE34"/>
<path fill-rule="evenodd" clip-rule="evenodd" d="M30 45C37.732 45 44 38.732 44 31C44 23.268 37.732 17 30 17C22.268 17 16 23.268 16 31C16 33.5109 16.661 35.8674 17.8185 37.905L16 45L23.3149 43.3038C25.3014 44.3854 27.5789 45 30 45ZM30 42.8462C36.5425 42.8462 41.8462 37.5425 41.8462 31C41.8462 24.4576 36.5425 19.1539 30 19.1539C23.4576 19.1539 18.1539 24.4576 18.1539 31C18.1539 33.5261 18.9445 35.8675 20.2918 37.7902L19.2308 41.7692L23.2799 40.7569C25.1894 42.0746 27.5046 42.8462 30 42.8462Z" fill="#BFC8D0"/>
<path d="M42 30C42 36.6274 36.6274 42 30 42C27.4722 42 25.1269 41.2184 23.1927 39.8837L19.0909 40.9091L20.1658 36.8784C18.8009 34.9307 18 32.5589 18 30C18 23.3726 23.3726 18 30 18C36.6274 18 42 23.3726 42 30Z" fill="#1FBE34"/>
<path fill-rule="evenodd" clip-rule="evenodd" d="M30 44C37.732 44 44 37.732 44 30C44 22.268 37.732 16 30 16C22.268 16 16 22.268 16 30C16 32.5109 16.661 34.8674 17.8185 36.905L16 44L23.3149 42.3038C25.3014 43.3854 27.5789 44 30 44ZM30 41.8462C36.5425 41.8462 41.8462 36.5425 41.8462 30C41.8462 23.4576 36.5425 18.1539 30 18.1539C23.4576 18.1539 18.1539 23.4576 18.1539 30C18.1539 32.5261 18.9445 34.8675 20.2918 36.7902L19.2308 40.7692L23.2799 39.7569C25.1894 41.0746 27.5046 41.8462 30 41.8462Z" fill="white"/>
<path d="M26.5 23.4999C26.1672 22.8313 25.6565 22.8905 25.1407 22.8905C24.2188 22.8905 22.7812 23.9948 22.7812 26.05C22.7812 27.7343 23.5234 29.578 26.0244 32.3361C28.438 34.9979 31.6094 36.3748 34.2422 36.3279C36.875 36.2811 37.4167 34.0154 37.4167 33.2503C37.4167 32.9112 37.2062 32.742 37.0613 32.696C36.1641 32.2654 34.5093 31.4631 34.1328 31.3124C33.7563 31.1617 33.5597 31.3656 33.4375 31.4765C33.0961 31.8018 32.4193 32.7608 32.1875 32.9765C31.9558 33.1922 31.6103 33.083 31.4665 33.0015C30.9374 32.7892 29.5029 32.1511 28.3595 31.0426C26.9453 29.6718 26.8623 29.2001 26.5959 28.7803C26.3828 28.4444 26.5392 28.2384 26.6172 28.1483C26.9219 27.7968 27.3426 27.254 27.5313 26.9843C27.7199 26.7145 27.5702 26.305 27.4803 26.05C27.0938 24.953 26.7663 24.0347 26.5 23.4999Z" fill="white"/>
</svg>
