<?xml version="1.0" encoding="UTF-8"?>
<svg id="Layer_1" data-name="Layer 1" xmlns="http://www.w3.org/2000/svg" viewBox="0 0 55.99 56">
  <defs>
    <style>
      .cls-1 {
        fill: #f15625;
      }
    </style>
  </defs>
  <path class="cls-1" d="m28,0c4.31,0,8.56,1,12.41,2.91,3.86,1.91,7.23,4.69,9.84,8.11,2.61,3.42,4.4,7.41,5.22,11.63.82,4.23.66,8.59-.48,12.74-1.14,4.15-3.22,7.99-6.08,11.21-2.86,3.22-6.43,5.73-10.42,7.35-3.99,1.62-8.3,2.29-12.6,1.97-4.29-.32-8.46-1.63-12.16-3.82l-11.43,3.81c-.31.1-.64.12-.95.04-.32-.07-.6-.24-.83-.47-.23-.23-.39-.52-.47-.83-.07-.32-.06-.65.04-.95l3.81-11.43C1.39,38.01.04,33.17,0,28.23c-.04-4.94,1.23-9.81,3.67-14.1,2.45-4.29,5.99-7.86,10.26-10.34C18.21,1.31,23.06,0,28,0Zm-9.75,14.01c-.36.01-.71.1-1.02.26-.32.16-.6.39-.82.67-.63.74-2.41,2.54-2.41,6.18s2.47,7.19,2.81,7.69c.34.48,4.86,7.98,11.77,11.2,1.28.6,2.59,1.12,3.92,1.56,1.65.56,3.16.49,4.35.3,1.33-.21,4.07-1.8,4.65-3.53.57-1.73.57-3.21.4-3.52-.17-.31-.63-.5-1.32-.88-.69-.37-4.08-2.16-4.71-2.4-.63-.26-1.09-.37-1.55.37-.46.75-1.77,2.42-2.18,2.91-.4.49-.81.56-1.49.19-.69-.37-2.91-1.15-5.54-3.69-2.05-1.96-3.43-4.4-3.83-5.14-.41-.75-.05-1.14.3-1.52.32-.33.69-.86,1.04-1.3.34-.43.46-.73.69-1.24.22-.49.11-.93-.06-1.3-.17-.37-1.55-4.03-2.12-5.52-.56-1.45-1.13-1.24-1.55-1.27-.4-.02-.86-.02-1.32-.02Z"/>
</svg>