<svg width="458" height="165" viewBox="0 0 458 165" fill="none" xmlns="http://www.w3.org/2000/svg">
<path d="M287.248 12.3896V3.95365H288.4L291.82 9.42565H291.16L294.568 3.95365H295.72V12.3896H294.1V6.74965L294.412 6.84565L292.036 10.6616H290.932L288.556 6.84565L288.88 6.74965V12.3896H287.248ZM299.699 12.5096C299.171 12.5096 298.695 12.3776 298.271 12.1136C297.847 11.8496 297.515 11.4896 297.275 11.0336C297.035 10.5776 296.915 10.0656 296.915 9.49765C296.915 8.92165 297.035 8.40565 297.275 7.94965C297.515 7.49365 297.847 7.13365 298.271 6.86965C298.695 6.60565 299.171 6.47365 299.699 6.47365C300.115 6.47365 300.487 6.55765 300.815 6.72565C301.143 6.89365 301.403 7.12965 301.595 7.43365C301.795 7.72965 301.903 8.06565 301.919 8.44165V10.5296C301.903 10.9136 301.795 11.2536 301.595 11.5496C301.403 11.8456 301.143 12.0816 300.815 12.2576C300.487 12.4256 300.115 12.5096 299.699 12.5096ZM299.987 11.0576C300.427 11.0576 300.783 10.9136 301.055 10.6256C301.327 10.3296 301.463 9.94965 301.463 9.48565C301.463 9.18165 301.399 8.91365 301.271 8.68165C301.151 8.44165 300.979 8.25765 300.755 8.12965C300.539 7.99365 300.283 7.92565 299.987 7.92565C299.699 7.92565 299.443 7.99365 299.219 8.12965C299.003 8.25765 298.831 8.44165 298.703 8.68165C298.583 8.91365 298.523 9.18165 298.523 9.48565C298.523 9.79765 298.583 10.0736 298.703 10.3136C298.831 10.5456 299.003 10.7296 299.219 10.8656C299.443 10.9936 299.699 11.0576 299.987 11.0576ZM301.379 12.3896V10.8296L301.631 9.41365L301.379 8.02165V6.59365H302.939V12.3896H301.379ZM304.33 12.3896V6.59365H305.902V12.3896H304.33ZM305.902 9.18565L305.29 8.77765C305.362 8.06565 305.57 7.50565 305.914 7.09765C306.258 6.68165 306.754 6.47365 307.402 6.47365C307.682 6.47365 307.934 6.52165 308.158 6.61765C308.382 6.70565 308.586 6.85365 308.77 7.06165L307.786 8.18965C307.698 8.09365 307.59 8.02165 307.462 7.97365C307.342 7.92565 307.202 7.90165 307.042 7.90165C306.706 7.90165 306.43 8.00965 306.214 8.22565C306.006 8.43365 305.902 8.75365 305.902 9.18565ZM313.018 12.3896L310.774 9.40165L313.006 6.59365H314.818L312.202 9.76165L312.262 8.99365L314.938 12.3896H313.018ZM309.322 12.3896V3.71365H310.894V12.3896H309.322ZM318.164 12.5096C317.556 12.5096 317.016 12.3816 316.544 12.1256C316.072 11.8616 315.696 11.5016 315.416 11.0456C315.144 10.5896 315.008 10.0696 315.008 9.48565C315.008 8.90965 315.14 8.39765 315.404 7.94965C315.676 7.49365 316.044 7.13365 316.508 6.86965C316.972 6.59765 317.488 6.46165 318.056 6.46165C318.616 6.46165 319.108 6.58965 319.532 6.84565C319.964 7.09365 320.3 7.43765 320.54 7.87765C320.788 8.30965 320.912 8.80165 320.912 9.35365C320.912 9.45765 320.904 9.56565 320.888 9.67765C320.88 9.78165 320.86 9.90165 320.828 10.0376L315.956 10.0496V8.87365L320.096 8.86165L319.46 9.35365C319.444 9.00965 319.38 8.72165 319.268 8.48965C319.164 8.25765 319.008 8.08165 318.8 7.96165C318.6 7.83365 318.352 7.76965 318.056 7.76965C317.744 7.76965 317.472 7.84165 317.24 7.98565C317.008 8.12165 316.828 8.31765 316.7 8.57365C316.58 8.82165 316.52 9.11765 316.52 9.46165C316.52 9.81365 316.584 10.1216 316.712 10.3856C316.848 10.6416 317.04 10.8416 317.288 10.9856C317.536 11.1216 317.824 11.1896 318.152 11.1896C318.448 11.1896 318.716 11.1416 318.956 11.0456C319.196 10.9416 319.404 10.7896 319.58 10.5896L320.504 11.5136C320.224 11.8416 319.88 12.0896 319.472 12.2576C319.072 12.4256 318.636 12.5096 318.164 12.5096ZM322.596 12.3896V4.18165H324.168V12.3896H322.596ZM321.24 7.97365V6.59365H325.524V7.97365H321.24ZM330.12 9.25765V7.92565H332.076C332.332 7.92565 332.564 7.87365 332.772 7.76965C332.98 7.66565 333.144 7.51765 333.264 7.32565C333.384 7.12565 333.444 6.88565 333.444 6.60565C333.444 6.33365 333.384 6.09765 333.264 5.89765C333.144 5.69765 332.98 5.54565 332.772 5.44165C332.564 5.33765 332.332 5.28565 332.076 5.28565H330.12V3.95365H332.244C332.78 3.95365 333.26 4.06165 333.684 4.27765C334.116 4.49365 334.456 4.80165 334.704 5.20165C334.952 5.59365 335.076 6.06165 335.076 6.60565C335.076 7.14965 334.952 7.62165 334.704 8.02165C334.456 8.41365 334.116 8.71765 333.684 8.93365C333.26 9.14965 332.78 9.25765 332.244 9.25765H330.12ZM328.92 12.3896V3.95365H330.552V12.3896H328.92ZM336.146 12.3896V6.59365H337.718V12.3896H336.146ZM337.718 9.18565L337.106 8.77765C337.178 8.06565 337.386 7.50565 337.73 7.09765C338.074 6.68165 338.57 6.47365 339.218 6.47365C339.498 6.47365 339.75 6.52165 339.974 6.61765C340.198 6.70565 340.402 6.85365 340.586 7.06165L339.602 8.18965C339.514 8.09365 339.406 8.02165 339.278 7.97365C339.158 7.92565 339.018 7.90165 338.858 7.90165C338.522 7.90165 338.246 8.00965 338.03 8.22565C337.822 8.43365 337.718 8.75365 337.718 9.18565ZM341.138 12.3896V6.59365H342.722V12.3896H341.138ZM341.93 5.65765C341.674 5.65765 341.462 5.57365 341.294 5.40565C341.126 5.22965 341.042 5.01365 341.042 4.75765C341.042 4.50965 341.126 4.29765 341.294 4.12165C341.462 3.94565 341.674 3.85765 341.93 3.85765C342.194 3.85765 342.406 3.94565 342.566 4.12165C342.734 4.29765 342.818 4.50965 342.818 4.75765C342.818 5.01365 342.734 5.22965 342.566 5.40565C342.406 5.57365 342.194 5.65765 341.93 5.65765ZM346.851 12.5096C346.259 12.5096 345.727 12.3776 345.255 12.1136C344.783 11.8496 344.411 11.4896 344.139 11.0336C343.867 10.5776 343.731 10.0656 343.731 9.49765C343.731 8.92165 343.867 8.40565 344.139 7.94965C344.411 7.49365 344.783 7.13365 345.255 6.86965C345.735 6.59765 346.267 6.46165 346.851 6.46165C347.307 6.46165 347.727 6.54565 348.111 6.71365C348.495 6.88165 348.827 7.12165 349.107 7.43365L348.099 8.45365C347.947 8.28565 347.763 8.15765 347.547 8.06965C347.339 7.98165 347.107 7.93765 346.851 7.93765C346.563 7.93765 346.303 8.00565 346.071 8.14165C345.847 8.26965 345.667 8.44965 345.531 8.68165C345.403 8.90565 345.339 9.17365 345.339 9.48565C345.339 9.78965 345.403 10.0616 345.531 10.3016C345.667 10.5336 345.847 10.7176 346.071 10.8536C346.303 10.9816 346.563 11.0456 346.851 11.0456C347.115 11.0456 347.351 11.0016 347.559 10.9136C347.775 10.8176 347.959 10.6816 348.111 10.5056L349.131 11.5256C348.835 11.8456 348.495 12.0896 348.111 12.2576C347.727 12.4256 347.307 12.5096 346.851 12.5096ZM352.664 12.5096C352.056 12.5096 351.516 12.3816 351.044 12.1256C350.572 11.8616 350.196 11.5016 349.916 11.0456C349.644 10.5896 349.508 10.0696 349.508 9.48565C349.508 8.90965 349.64 8.39765 349.904 7.94965C350.176 7.49365 350.544 7.13365 351.008 6.86965C351.472 6.59765 351.988 6.46165 352.556 6.46165C353.116 6.46165 353.608 6.58965 354.032 6.84565C354.464 7.09365 354.8 7.43765 355.04 7.87765C355.288 8.30965 355.412 8.80165 355.412 9.35365C355.412 9.45765 355.404 9.56565 355.388 9.67765C355.38 9.78165 355.36 9.90165 355.328 10.0376L350.456 10.0496V8.87365L354.596 8.86165L353.96 9.35365C353.944 9.00965 353.88 8.72165 353.768 8.48965C353.664 8.25765 353.508 8.08165 353.3 7.96165C353.1 7.83365 352.852 7.76965 352.556 7.76965C352.244 7.76965 351.972 7.84165 351.74 7.98565C351.508 8.12165 351.328 8.31765 351.2 8.57365C351.08 8.82165 351.02 9.11765 351.02 9.46165C351.02 9.81365 351.084 10.1216 351.212 10.3856C351.348 10.6416 351.54 10.8416 351.788 10.9856C352.036 11.1216 352.324 11.1896 352.652 11.1896C352.948 11.1896 353.216 11.1416 353.456 11.0456C353.696 10.9416 353.904 10.7896 354.08 10.5896L355.004 11.5136C354.724 11.8416 354.38 12.0896 353.972 12.2576C353.572 12.4256 353.136 12.5096 352.664 12.5096ZM358.376 12.5216C358.048 12.5216 357.724 12.4776 357.404 12.3896C357.092 12.3016 356.804 12.1816 356.54 12.0296C356.276 11.8696 356.048 11.6776 355.856 11.4536L356.792 10.5056C356.992 10.7296 357.224 10.8976 357.488 11.0096C357.752 11.1216 358.044 11.1776 358.364 11.1776C358.62 11.1776 358.812 11.1416 358.94 11.0696C359.076 10.9976 359.144 10.8896 359.144 10.7456C359.144 10.5856 359.072 10.4616 358.928 10.3736C358.792 10.2856 358.612 10.2136 358.388 10.1576C358.164 10.0936 357.928 10.0256 357.68 9.95365C357.44 9.87365 357.208 9.77365 356.984 9.65365C356.76 9.52565 356.576 9.35365 356.432 9.13765C356.296 8.91365 356.228 8.62565 356.228 8.27365C356.228 7.90565 356.316 7.58565 356.492 7.31365C356.676 7.04165 356.936 6.82965 357.272 6.67765C357.608 6.52565 358.004 6.44965 358.46 6.44965C358.94 6.44965 359.372 6.53365 359.756 6.70165C360.148 6.86965 360.472 7.12165 360.728 7.45765L359.78 8.40565C359.604 8.18965 359.404 8.03365 359.18 7.93765C358.964 7.84165 358.728 7.79365 358.472 7.79365C358.24 7.79365 358.06 7.82965 357.932 7.90165C357.812 7.97365 357.752 8.07365 357.752 8.20165C357.752 8.34565 357.82 8.45765 357.956 8.53765C358.1 8.61765 358.284 8.68965 358.508 8.75365C358.732 8.80965 358.964 8.87765 359.204 8.95765C359.452 9.02965 359.684 9.13365 359.9 9.26965C360.124 9.40565 360.304 9.58565 360.44 9.80965C360.584 10.0336 360.656 10.3216 360.656 10.6736C360.656 11.2416 360.452 11.6936 360.044 12.0296C359.636 12.3576 359.08 12.5216 358.376 12.5216ZM364.06 10.0376V8.60965H368.212V10.0376H364.06ZM373.183 12.3896V3.95365H374.791V12.3896H373.183ZM371.527 5.36965V3.95365H374.671V5.36965H371.527ZM375.969 11.4536L379.149 8.12965C379.373 7.88965 379.553 7.67765 379.689 7.49365C379.833 7.30165 379.937 7.12165 380.001 6.95365C380.065 6.77765 380.097 6.60165 380.097 6.42565C380.097 6.07365 379.981 5.79765 379.749 5.59765C379.525 5.39765 379.233 5.29765 378.873 5.29765C378.505 5.29765 378.177 5.39365 377.889 5.58565C377.609 5.77765 377.345 6.08165 377.097 6.49765L375.981 5.54965C376.317 4.98165 376.733 4.55365 377.229 4.26565C377.733 3.96965 378.309 3.82165 378.957 3.82165C379.509 3.82165 379.989 3.92965 380.397 4.14565C380.813 4.36165 381.133 4.66165 381.357 5.04565C381.581 5.42965 381.693 5.87765 381.693 6.38965C381.693 6.73365 381.649 7.04565 381.561 7.32565C381.481 7.60565 381.341 7.88565 381.141 8.16565C380.949 8.43765 380.681 8.74565 380.337 9.08965L378.021 11.4536H375.969ZM375.969 12.3896V11.4536L377.361 10.9736H381.873V12.3896H375.969ZM386.274 12.5096C385.61 12.5096 385.01 12.3296 384.474 11.9696C383.938 11.6096 383.51 11.1016 383.19 10.4456C382.878 9.78965 382.722 9.02565 382.722 8.15365C382.722 7.28165 382.878 6.52165 383.19 5.87365C383.502 5.22565 383.922 4.72165 384.45 4.36165C384.986 4.00165 385.582 3.82165 386.238 3.82165C386.91 3.82165 387.51 4.00165 388.038 4.36165C388.574 4.72165 388.998 5.22965 389.31 5.88565C389.622 6.53365 389.778 7.29765 389.778 8.17765C389.778 9.04965 389.622 9.81365 389.31 10.4696C388.998 11.1176 388.578 11.6216 388.05 11.9816C387.522 12.3336 386.93 12.5096 386.274 12.5096ZM386.25 11.0336C386.634 11.0336 386.966 10.9256 387.246 10.7096C387.526 10.4936 387.742 10.1736 387.894 9.74965C388.054 9.32565 388.134 8.79765 388.134 8.16565C388.134 7.53365 388.054 7.00565 387.894 6.58165C387.742 6.15765 387.522 5.84165 387.234 5.63365C386.954 5.41765 386.622 5.30965 386.238 5.30965C385.862 5.30965 385.534 5.41765 385.254 5.63365C384.974 5.84165 384.754 6.15765 384.594 6.58165C384.442 6.99765 384.366 7.52165 384.366 8.15365C384.366 8.79365 384.442 9.32565 384.594 9.74965C384.754 10.1736 384.974 10.4936 385.254 10.7096C385.534 10.9256 385.866 11.0336 386.25 11.0336ZM394.196 12.5096C393.532 12.5096 392.932 12.3296 392.396 11.9696C391.86 11.6096 391.432 11.1016 391.112 10.4456C390.8 9.78965 390.644 9.02565 390.644 8.15365C390.644 7.28165 390.8 6.52165 391.112 5.87365C391.424 5.22565 391.844 4.72165 392.372 4.36165C392.908 4.00165 393.504 3.82165 394.16 3.82165C394.832 3.82165 395.432 4.00165 395.96 4.36165C396.496 4.72165 396.92 5.22965 397.232 5.88565C397.544 6.53365 397.7 7.29765 397.7 8.17765C397.7 9.04965 397.544 9.81365 397.232 10.4696C396.92 11.1176 396.5 11.6216 395.972 11.9816C395.444 12.3336 394.852 12.5096 394.196 12.5096ZM394.172 11.0336C394.556 11.0336 394.888 10.9256 395.168 10.7096C395.448 10.4936 395.664 10.1736 395.816 9.74965C395.976 9.32565 396.056 8.79765 396.056 8.16565C396.056 7.53365 395.976 7.00565 395.816 6.58165C395.664 6.15765 395.444 5.84165 395.156 5.63365C394.876 5.41765 394.544 5.30965 394.16 5.30965C393.784 5.30965 393.456 5.41765 393.176 5.63365C392.896 5.84165 392.676 6.15765 392.516 6.58165C392.364 6.99765 392.288 7.52165 392.288 8.15365C392.288 8.79365 392.364 9.32565 392.516 9.74965C392.676 10.1736 392.896 10.4936 393.176 10.7096C393.456 10.9256 393.788 11.0336 394.172 11.0336ZM403.79 12.5096C403.11 12.5096 402.526 12.3936 402.038 12.1616C401.558 11.9296 401.122 11.5816 400.73 11.1176L401.81 10.0376C402.058 10.3656 402.346 10.6216 402.674 10.8056C403.002 10.9816 403.402 11.0696 403.874 11.0696C404.298 11.0696 404.634 10.9856 404.882 10.8176C405.138 10.6496 405.266 10.4176 405.266 10.1216C405.266 9.86565 405.194 9.65765 405.05 9.49765C404.906 9.33765 404.714 9.20165 404.474 9.08965C404.242 8.97765 403.982 8.87765 403.694 8.78965C403.414 8.69365 403.13 8.58565 402.842 8.46565C402.562 8.34565 402.302 8.19765 402.062 8.02165C401.83 7.83765 401.642 7.60565 401.498 7.32565C401.354 7.03765 401.282 6.67765 401.282 6.24565C401.282 5.73365 401.406 5.29765 401.654 4.93765C401.902 4.57765 402.242 4.30165 402.674 4.10965C403.106 3.91765 403.594 3.82165 404.138 3.82165C404.714 3.82165 405.234 3.92965 405.698 4.14565C406.162 4.36165 406.542 4.64165 406.838 4.98565L405.758 6.06565C405.51 5.79365 405.254 5.59365 404.99 5.46565C404.734 5.33765 404.442 5.27365 404.114 5.27365C403.738 5.27365 403.442 5.34565 403.226 5.48965C403.01 5.63365 402.902 5.84165 402.902 6.11365C402.902 6.34565 402.974 6.53365 403.118 6.67765C403.262 6.82165 403.45 6.94565 403.682 7.04965C403.922 7.15365 404.182 7.25365 404.462 7.34965C404.75 7.44565 405.034 7.55365 405.314 7.67365C405.602 7.79365 405.862 7.94965 406.094 8.14165C406.334 8.33365 406.526 8.58165 406.67 8.88565C406.814 9.18165 406.886 9.54965 406.886 9.98965C406.886 10.7736 406.61 11.3896 406.058 11.8376C405.506 12.2856 404.75 12.5096 403.79 12.5096ZM407.292 12.3896L410.688 3.95365H412.02L415.404 12.3896H413.664L411.048 5.46565H411.648L408.996 12.3896H407.292ZM409.092 10.8176V9.44965H413.628V10.8176H409.092ZM417.6 8.86165V7.58965H419.556C419.956 7.58965 420.264 7.48965 420.48 7.28965C420.704 7.08165 420.816 6.79765 420.816 6.43765C420.816 6.10965 420.704 5.83765 420.48 5.62165C420.264 5.39765 419.956 5.28565 419.556 5.28565H417.6V3.95365H419.7C420.244 3.95365 420.72 4.06165 421.128 4.27765C421.544 4.48565 421.864 4.77365 422.088 5.14165C422.32 5.50965 422.436 5.93365 422.436 6.41365C422.436 6.90965 422.32 7.34165 422.088 7.70965C421.864 8.06965 421.544 8.35365 421.128 8.56165C420.712 8.76165 420.228 8.86165 419.676 8.86165H417.6ZM416.4 12.3896V3.95365H418.032V12.3896H416.4ZM421.008 12.3896L418.224 8.74165L419.724 8.27365L422.988 12.3896H421.008Z" fill="#F05526"/>
<path d="M282.258 8.45801H237.117L218.262 18.625" stroke="#CDCDCD" stroke-dasharray="4 4"/>
<path d="M295.764 148.726C295.164 148.726 294.6 148.618 294.072 148.402C293.552 148.178 293.092 147.866 292.692 147.466C292.3 147.066 291.992 146.606 291.768 146.086C291.552 145.558 291.444 144.99 291.444 144.382C291.444 143.766 291.556 143.198 291.78 142.678C292.004 142.15 292.316 141.69 292.716 141.298C293.116 140.898 293.584 140.59 294.12 140.374C294.656 140.15 295.236 140.038 295.86 140.038C296.556 140.038 297.196 140.17 297.78 140.434C298.364 140.69 298.848 141.054 299.232 141.526L298.128 142.63C297.864 142.286 297.536 142.022 297.144 141.838C296.752 141.654 296.32 141.562 295.848 141.562C295.312 141.562 294.836 141.682 294.42 141.922C294.012 142.154 293.692 142.482 293.46 142.906C293.228 143.322 293.112 143.81 293.112 144.37C293.112 144.93 293.224 145.426 293.448 145.858C293.68 146.282 293.992 146.614 294.384 146.854C294.784 147.094 295.24 147.214 295.752 147.214C296.28 147.214 296.732 147.118 297.108 146.926C297.484 146.726 297.772 146.438 297.972 146.062C298.172 145.678 298.272 145.21 298.272 144.658L299.34 145.39L295.656 145.354V143.938H299.952V144.166C299.952 145.174 299.772 146.018 299.412 146.698C299.052 147.37 298.556 147.878 297.924 148.222C297.3 148.558 296.58 148.726 295.764 148.726ZM301.036 148.606V142.81H302.608V148.606H301.036ZM302.608 145.402L301.996 144.994C302.068 144.282 302.276 143.722 302.62 143.314C302.964 142.898 303.46 142.69 304.108 142.69C304.388 142.69 304.64 142.738 304.864 142.834C305.088 142.922 305.292 143.07 305.476 143.278L304.492 144.406C304.404 144.31 304.296 144.238 304.168 144.19C304.048 144.142 303.908 144.118 303.748 144.118C303.412 144.118 303.136 144.226 302.92 144.442C302.712 144.65 302.608 144.97 302.608 145.402ZM308.588 148.726C308.004 148.726 307.476 148.594 307.004 148.33C306.54 148.058 306.168 147.694 305.888 147.238C305.616 146.774 305.48 146.258 305.48 145.69C305.48 145.122 305.616 144.614 305.888 144.166C306.16 143.71 306.532 143.35 307.004 143.086C307.476 142.814 308 142.678 308.576 142.678C309.168 142.678 309.696 142.814 310.16 143.086C310.632 143.35 311.004 143.71 311.276 144.166C311.548 144.614 311.684 145.122 311.684 145.69C311.684 146.258 311.548 146.774 311.276 147.238C311.004 147.694 310.632 148.058 310.16 148.33C309.696 148.594 309.172 148.726 308.588 148.726ZM308.576 147.262C308.872 147.262 309.132 147.198 309.356 147.07C309.588 146.934 309.764 146.75 309.884 146.518C310.012 146.278 310.076 146.006 310.076 145.702C310.076 145.398 310.012 145.13 309.884 144.898C309.756 144.666 309.58 144.486 309.356 144.358C309.132 144.222 308.872 144.154 308.576 144.154C308.288 144.154 308.032 144.222 307.808 144.358C307.584 144.486 307.408 144.666 307.28 144.898C307.152 145.13 307.088 145.398 307.088 145.702C307.088 146.006 307.152 146.278 307.28 146.518C307.408 146.75 307.584 146.934 307.808 147.07C308.032 147.198 308.288 147.262 308.576 147.262ZM315.168 148.726C314.656 148.726 314.2 148.618 313.8 148.402C313.408 148.186 313.1 147.886 312.876 147.502C312.652 147.118 312.54 146.674 312.54 146.17V142.81H314.124V146.134C314.124 146.374 314.164 146.582 314.244 146.758C314.324 146.926 314.444 147.054 314.604 147.142C314.764 147.23 314.952 147.274 315.168 147.274C315.496 147.274 315.752 147.174 315.936 146.974C316.12 146.774 316.212 146.494 316.212 146.134V142.81H317.784V146.17C317.784 146.682 317.672 147.13 317.448 147.514C317.232 147.898 316.924 148.198 316.524 148.414C316.132 148.622 315.68 148.726 315.168 148.726ZM322.252 148.726C321.836 148.726 321.46 148.642 321.124 148.474C320.788 148.298 320.52 148.062 320.32 147.766C320.12 147.47 320.012 147.13 319.996 146.746V144.694C320.012 144.31 320.12 143.97 320.32 143.674C320.528 143.37 320.796 143.13 321.124 142.954C321.46 142.778 321.836 142.69 322.252 142.69C322.788 142.69 323.268 142.822 323.692 143.086C324.116 143.35 324.448 143.71 324.688 144.166C324.936 144.622 325.06 145.138 325.06 145.714C325.06 146.282 324.936 146.794 324.688 147.25C324.448 147.706 324.116 148.066 323.692 148.33C323.268 148.594 322.788 148.726 322.252 148.726ZM319.036 151.03V142.81H320.608V144.334L320.344 145.738L320.596 147.142V151.03H319.036ZM321.976 147.274C322.264 147.274 322.52 147.21 322.744 147.082C322.968 146.946 323.14 146.762 323.26 146.53C323.388 146.29 323.452 146.014 323.452 145.702C323.452 145.398 323.388 145.13 323.26 144.898C323.14 144.658 322.968 144.474 322.744 144.346C322.52 144.21 322.264 144.142 321.976 144.142C321.696 144.142 321.444 144.21 321.22 144.346C320.996 144.474 320.82 144.658 320.692 144.898C320.572 145.13 320.512 145.398 320.512 145.702C320.512 146.014 320.572 146.29 320.692 146.53C320.82 146.762 320.992 146.946 321.208 147.082C321.432 147.21 321.688 147.274 321.976 147.274ZM329.802 145.474V144.142H331.758C332.014 144.142 332.246 144.09 332.454 143.986C332.662 143.882 332.826 143.734 332.946 143.542C333.066 143.342 333.126 143.102 333.126 142.822C333.126 142.55 333.066 142.314 332.946 142.114C332.826 141.914 332.662 141.762 332.454 141.658C332.246 141.554 332.014 141.502 331.758 141.502H329.802V140.17H331.926C332.462 140.17 332.942 140.278 333.366 140.494C333.798 140.71 334.138 141.018 334.386 141.418C334.634 141.81 334.758 142.278 334.758 142.822C334.758 143.366 334.634 143.838 334.386 144.238C334.138 144.63 333.798 144.934 333.366 145.15C332.942 145.366 332.462 145.474 331.926 145.474H329.802ZM328.602 148.606V140.17H330.234V148.606H328.602ZM335.829 148.606V142.81H337.401V148.606H335.829ZM337.401 145.402L336.789 144.994C336.861 144.282 337.069 143.722 337.413 143.314C337.757 142.898 338.253 142.69 338.901 142.69C339.181 142.69 339.433 142.738 339.657 142.834C339.881 142.922 340.085 143.07 340.269 143.278L339.285 144.406C339.197 144.31 339.089 144.238 338.961 144.19C338.841 144.142 338.701 144.118 338.541 144.118C338.205 144.118 337.929 144.226 337.713 144.442C337.505 144.65 337.401 144.97 337.401 145.402ZM340.821 148.606V142.81H342.405V148.606H340.821ZM341.613 141.874C341.357 141.874 341.145 141.79 340.977 141.622C340.809 141.446 340.725 141.23 340.725 140.974C340.725 140.726 340.809 140.514 340.977 140.338C341.145 140.162 341.357 140.074 341.613 140.074C341.877 140.074 342.089 140.162 342.249 140.338C342.417 140.514 342.501 140.726 342.501 140.974C342.501 141.23 342.417 141.446 342.249 141.622C342.089 141.79 341.877 141.874 341.613 141.874ZM346.534 148.726C345.942 148.726 345.41 148.594 344.938 148.33C344.466 148.066 344.094 147.706 343.822 147.25C343.55 146.794 343.414 146.282 343.414 145.714C343.414 145.138 343.55 144.622 343.822 144.166C344.094 143.71 344.466 143.35 344.938 143.086C345.418 142.814 345.95 142.678 346.534 142.678C346.99 142.678 347.41 142.762 347.794 142.93C348.178 143.098 348.51 143.338 348.79 143.65L347.782 144.67C347.63 144.502 347.446 144.374 347.23 144.286C347.022 144.198 346.79 144.154 346.534 144.154C346.246 144.154 345.986 144.222 345.754 144.358C345.53 144.486 345.35 144.666 345.214 144.898C345.086 145.122 345.022 145.39 345.022 145.702C345.022 146.006 345.086 146.278 345.214 146.518C345.35 146.75 345.53 146.934 345.754 147.07C345.986 147.198 346.246 147.262 346.534 147.262C346.798 147.262 347.034 147.218 347.242 147.13C347.458 147.034 347.642 146.898 347.794 146.722L348.814 147.742C348.518 148.062 348.178 148.306 347.794 148.474C347.41 148.642 346.99 148.726 346.534 148.726ZM352.347 148.726C351.739 148.726 351.199 148.598 350.727 148.342C350.255 148.078 349.879 147.718 349.599 147.262C349.327 146.806 349.191 146.286 349.191 145.702C349.191 145.126 349.323 144.614 349.587 144.166C349.859 143.71 350.227 143.35 350.691 143.086C351.155 142.814 351.671 142.678 352.239 142.678C352.799 142.678 353.291 142.806 353.715 143.062C354.147 143.31 354.483 143.654 354.723 144.094C354.971 144.526 355.095 145.018 355.095 145.57C355.095 145.674 355.087 145.782 355.071 145.894C355.063 145.998 355.043 146.118 355.011 146.254L350.139 146.266V145.09L354.279 145.078L353.643 145.57C353.627 145.226 353.563 144.938 353.451 144.706C353.347 144.474 353.191 144.298 352.983 144.178C352.783 144.05 352.535 143.986 352.239 143.986C351.927 143.986 351.655 144.058 351.423 144.202C351.191 144.338 351.011 144.534 350.883 144.79C350.763 145.038 350.703 145.334 350.703 145.678C350.703 146.03 350.767 146.338 350.895 146.602C351.031 146.858 351.223 147.058 351.471 147.202C351.719 147.338 352.007 147.406 352.335 147.406C352.631 147.406 352.899 147.358 353.139 147.262C353.379 147.158 353.587 147.006 353.763 146.806L354.687 147.73C354.407 148.058 354.063 148.306 353.655 148.474C353.255 148.642 352.819 148.726 352.347 148.726ZM359.779 145.474V144.142H361.735C361.991 144.142 362.223 144.09 362.431 143.986C362.639 143.882 362.803 143.734 362.923 143.542C363.043 143.342 363.103 143.102 363.103 142.822C363.103 142.55 363.043 142.314 362.923 142.114C362.803 141.914 362.639 141.762 362.431 141.658C362.223 141.554 361.991 141.502 361.735 141.502H359.779V140.17H361.903C362.439 140.17 362.919 140.278 363.343 140.494C363.775 140.71 364.115 141.018 364.363 141.418C364.611 141.81 364.735 142.278 364.735 142.822C364.735 143.366 364.611 143.838 364.363 144.238C364.115 144.63 363.775 144.934 363.343 145.15C362.919 145.366 362.439 145.474 361.903 145.474H359.779ZM358.579 148.606V140.17H360.211V148.606H358.579ZM368.308 148.726C367.7 148.726 367.16 148.598 366.688 148.342C366.216 148.078 365.84 147.718 365.56 147.262C365.288 146.806 365.152 146.286 365.152 145.702C365.152 145.126 365.284 144.614 365.548 144.166C365.82 143.71 366.188 143.35 366.652 143.086C367.116 142.814 367.632 142.678 368.2 142.678C368.76 142.678 369.252 142.806 369.676 143.062C370.108 143.31 370.444 143.654 370.684 144.094C370.932 144.526 371.056 145.018 371.056 145.57C371.056 145.674 371.048 145.782 371.032 145.894C371.024 145.998 371.004 146.118 370.972 146.254L366.1 146.266V145.09L370.24 145.078L369.604 145.57C369.588 145.226 369.524 144.938 369.412 144.706C369.308 144.474 369.152 144.298 368.944 144.178C368.744 144.05 368.496 143.986 368.2 143.986C367.888 143.986 367.616 144.058 367.384 144.202C367.152 144.338 366.972 144.534 366.844 144.79C366.724 145.038 366.664 145.334 366.664 145.678C366.664 146.03 366.728 146.338 366.856 146.602C366.992 146.858 367.184 147.058 367.432 147.202C367.68 147.338 367.968 147.406 368.296 147.406C368.592 147.406 368.86 147.358 369.1 147.262C369.34 147.158 369.548 147.006 369.724 146.806L370.648 147.73C370.368 148.058 370.024 148.306 369.616 148.474C369.216 148.642 368.78 148.726 368.308 148.726ZM372.028 148.606V142.81H373.6V148.606H372.028ZM373.6 145.402L372.988 144.994C373.06 144.282 373.268 143.722 373.612 143.314C373.956 142.898 374.452 142.69 375.1 142.69C375.38 142.69 375.632 142.738 375.856 142.834C376.08 142.922 376.284 143.07 376.468 143.278L375.484 144.406C375.396 144.31 375.288 144.238 375.16 144.19C375.04 144.142 374.9 144.118 374.74 144.118C374.404 144.118 374.128 144.226 373.912 144.442C373.704 144.65 373.6 144.97 373.6 145.402ZM383.067 148.726C382.403 148.726 381.811 148.582 381.291 148.294C380.779 147.998 380.375 147.594 380.079 147.082C379.783 146.57 379.635 145.99 379.635 145.342V140.17H381.267V145.39C381.267 145.766 381.343 146.09 381.495 146.362C381.655 146.634 381.871 146.846 382.143 146.998C382.423 147.142 382.731 147.214 383.067 147.214C383.411 147.214 383.715 147.142 383.979 146.998C384.243 146.846 384.451 146.634 384.603 146.362C384.763 146.09 384.843 145.77 384.843 145.402V140.17H386.487V145.354C386.487 146.002 386.339 146.582 386.043 147.094C385.747 147.598 385.343 147.998 384.831 148.294C384.327 148.582 383.739 148.726 383.067 148.726ZM391.83 148.606V145.282C391.83 144.938 391.722 144.658 391.506 144.442C391.29 144.226 391.01 144.118 390.666 144.118C390.442 144.118 390.242 144.166 390.066 144.262C389.89 144.358 389.75 144.494 389.646 144.67C389.55 144.846 389.502 145.05 389.502 145.282L388.89 144.97C388.89 144.514 388.986 144.118 389.178 143.782C389.378 143.438 389.65 143.17 389.994 142.978C390.346 142.786 390.742 142.69 391.182 142.69C391.606 142.69 391.986 142.798 392.322 143.014C392.658 143.222 392.922 143.498 393.114 143.842C393.306 144.178 393.402 144.542 393.402 144.934V148.606H391.83ZM387.93 148.606V142.81H389.502V148.606H387.93ZM394.669 148.606V142.81H396.253V148.606H394.669ZM395.461 141.874C395.205 141.874 394.993 141.79 394.825 141.622C394.657 141.446 394.573 141.23 394.573 140.974C394.573 140.726 394.657 140.514 394.825 140.338C394.993 140.162 395.205 140.074 395.461 140.074C395.725 140.074 395.937 140.162 396.097 140.338C396.265 140.514 396.349 140.726 396.349 140.974C396.349 141.23 396.265 141.446 396.097 141.622C395.937 141.79 395.725 141.874 395.461 141.874ZM398.497 148.606V140.398H400.069V148.606H398.497ZM397.141 144.19V142.81H401.425V144.19H397.141ZM404.653 146.254V144.826H408.805V146.254H404.653ZM415.18 148.726C414.58 148.726 414.06 148.622 413.62 148.414C413.188 148.206 412.848 147.914 412.6 147.538C412.36 147.162 412.24 146.738 412.24 146.266C412.24 145.874 412.316 145.518 412.468 145.198C412.62 144.878 412.836 144.61 413.116 144.394C413.404 144.17 413.74 144.014 414.124 143.926L414.088 144.322C413.768 144.242 413.496 144.102 413.272 143.902C413.048 143.702 412.88 143.466 412.768 143.194C412.656 142.914 412.6 142.626 412.6 142.33C412.6 141.874 412.708 141.474 412.924 141.13C413.148 140.786 413.452 140.518 413.836 140.326C414.228 140.134 414.676 140.038 415.18 140.038C415.684 140.038 416.128 140.134 416.512 140.326C416.896 140.518 417.196 140.786 417.412 141.13C417.636 141.474 417.748 141.874 417.748 142.33C417.748 142.626 417.692 142.914 417.58 143.194C417.468 143.466 417.3 143.702 417.076 143.902C416.86 144.102 416.588 144.242 416.26 144.322L416.224 143.926C416.616 144.014 416.952 144.17 417.232 144.394C417.512 144.61 417.728 144.878 417.88 145.198C418.032 145.518 418.108 145.874 418.108 146.266C418.108 146.738 417.988 147.162 417.748 147.538C417.508 147.914 417.168 148.206 416.728 148.414C416.288 148.622 415.772 148.726 415.18 148.726ZM415.18 147.298C415.444 147.298 415.68 147.246 415.888 147.142C416.096 147.03 416.256 146.878 416.368 146.686C416.488 146.494 416.548 146.278 416.548 146.038C416.548 145.79 416.488 145.574 416.368 145.39C416.256 145.198 416.096 145.05 415.888 144.946C415.68 144.834 415.444 144.778 415.18 144.778C414.908 144.778 414.668 144.834 414.46 144.946C414.26 145.05 414.1 145.198 413.98 145.39C413.86 145.574 413.8 145.79 413.8 146.038C413.8 146.278 413.86 146.494 413.98 146.686C414.1 146.878 414.26 147.03 414.46 147.142C414.668 147.246 414.908 147.298 415.18 147.298ZM415.18 143.542C415.492 143.542 415.748 143.442 415.948 143.242C416.148 143.042 416.248 142.786 416.248 142.474C416.248 142.154 416.148 141.894 415.948 141.694C415.748 141.494 415.492 141.394 415.18 141.394C414.868 141.394 414.608 141.494 414.4 141.694C414.2 141.894 414.1 142.15 414.1 142.462C414.1 142.782 414.2 143.042 414.4 143.242C414.608 143.442 414.868 143.542 415.18 143.542ZM421.5 148.726C420.916 148.726 420.384 148.626 419.904 148.426C419.424 148.218 419.024 147.922 418.704 147.538L419.784 146.47C419.944 146.71 420.172 146.902 420.468 147.046C420.772 147.19 421.104 147.262 421.464 147.262C421.792 147.262 422.076 147.202 422.316 147.082C422.564 146.962 422.756 146.794 422.892 146.578C423.036 146.354 423.108 146.094 423.108 145.798C423.108 145.486 423.036 145.222 422.892 145.006C422.756 144.79 422.572 144.626 422.34 144.514C422.108 144.402 421.848 144.346 421.56 144.346C421.256 144.346 420.98 144.386 420.732 144.466C420.492 144.538 420.26 144.658 420.036 144.826L420.132 143.794C420.284 143.634 420.444 143.506 420.612 143.41C420.78 143.306 420.968 143.23 421.176 143.182C421.392 143.126 421.644 143.098 421.932 143.098C422.548 143.098 423.06 143.226 423.468 143.482C423.884 143.73 424.2 144.066 424.416 144.49C424.632 144.906 424.74 145.366 424.74 145.87C424.74 146.422 424.604 146.914 424.332 147.346C424.06 147.778 423.68 148.118 423.192 148.366C422.712 148.606 422.148 148.726 421.5 148.726ZM420.036 144.826L419.256 144.058L419.64 140.17H421.116L420.684 144.118L420.036 144.826ZM419.892 141.586L419.64 140.17H424.272V141.586H419.892ZM429.117 148.726C428.453 148.726 427.853 148.546 427.317 148.186C426.781 147.826 426.353 147.318 426.033 146.662C425.721 146.006 425.565 145.242 425.565 144.37C425.565 143.498 425.721 142.738 426.033 142.09C426.345 141.442 426.765 140.938 427.293 140.578C427.829 140.218 428.425 140.038 429.081 140.038C429.753 140.038 430.353 140.218 430.881 140.578C431.417 140.938 431.841 141.446 432.153 142.102C432.465 142.75 432.621 143.514 432.621 144.394C432.621 145.266 432.465 146.03 432.153 146.686C431.841 147.334 431.421 147.838 430.893 148.198C430.365 148.55 429.773 148.726 429.117 148.726ZM429.093 147.25C429.477 147.25 429.809 147.142 430.089 146.926C430.369 146.71 430.585 146.39 430.737 145.966C430.897 145.542 430.977 145.014 430.977 144.382C430.977 143.75 430.897 143.222 430.737 142.798C430.585 142.374 430.365 142.058 430.077 141.85C429.797 141.634 429.465 141.526 429.081 141.526C428.705 141.526 428.377 141.634 428.097 141.85C427.817 142.058 427.597 142.374 427.437 142.798C427.285 143.214 427.209 143.738 427.209 144.37C427.209 145.01 427.285 145.542 427.437 145.966C427.597 146.39 427.817 146.71 428.097 146.926C428.377 147.142 428.709 147.25 429.093 147.25ZM294.312 164.726C293.632 164.726 293.048 164.61 292.56 164.378C292.08 164.146 291.644 163.798 291.252 163.334L292.332 162.254C292.58 162.582 292.868 162.838 293.196 163.022C293.524 163.198 293.924 163.286 294.396 163.286C294.82 163.286 295.156 163.202 295.404 163.034C295.66 162.866 295.788 162.634 295.788 162.338C295.788 162.082 295.716 161.874 295.572 161.714C295.428 161.554 295.236 161.418 294.996 161.306C294.764 161.194 294.504 161.094 294.216 161.006C293.936 160.91 293.652 160.802 293.364 160.682C293.084 160.562 292.824 160.414 292.584 160.238C292.352 160.054 292.164 159.822 292.02 159.542C291.876 159.254 291.804 158.894 291.804 158.462C291.804 157.95 291.928 157.514 292.176 157.154C292.424 156.794 292.764 156.518 293.196 156.326C293.628 156.134 294.116 156.038 294.66 156.038C295.236 156.038 295.756 156.146 296.22 156.362C296.684 156.578 297.064 156.858 297.36 157.202L296.28 158.282C296.032 158.01 295.776 157.81 295.512 157.682C295.256 157.554 294.964 157.49 294.636 157.49C294.26 157.49 293.964 157.562 293.748 157.706C293.532 157.85 293.424 158.058 293.424 158.33C293.424 158.562 293.496 158.75 293.64 158.894C293.784 159.038 293.972 159.162 294.204 159.266C294.444 159.37 294.704 159.47 294.984 159.566C295.272 159.662 295.556 159.77 295.836 159.89C296.124 160.01 296.384 160.166 296.616 160.358C296.856 160.55 297.048 160.798 297.192 161.102C297.336 161.398 297.408 161.766 297.408 162.206C297.408 162.99 297.132 163.606 296.58 164.054C296.028 164.502 295.272 164.726 294.312 164.726ZM297.814 164.606L301.21 156.17H302.542L305.926 164.606H304.186L301.57 157.682H302.17L299.518 164.606H297.814ZM299.614 163.034V161.666H304.15V163.034H299.614ZM308.123 161.078V159.806H310.079C310.479 159.806 310.787 159.706 311.003 159.506C311.227 159.298 311.339 159.014 311.339 158.654C311.339 158.326 311.227 158.054 311.003 157.838C310.787 157.614 310.479 157.502 310.079 157.502H308.123V156.17H310.223C310.767 156.17 311.243 156.278 311.651 156.494C312.067 156.702 312.387 156.99 312.611 157.358C312.843 157.726 312.959 158.15 312.959 158.63C312.959 159.126 312.843 159.558 312.611 159.926C312.387 160.286 312.067 160.57 311.651 160.778C311.235 160.978 310.751 161.078 310.199 161.078H308.123ZM306.923 164.606V156.17H308.555V164.606H306.923ZM311.531 164.606L308.747 160.958L310.247 160.49L313.511 164.606H311.531Z" fill="#1A3D38"/>
<path d="M286.374 144.679H249.572L231.262 135.388" stroke="#CDCDCD" stroke-dasharray="4 4"/>
<path d="M3.57372 85.5096C2.89372 85.5096 2.30972 85.3936 1.82172 85.1616C1.34172 84.9296 0.905719 84.5816 0.513719 84.1176L1.59372 83.0376C1.84172 83.3656 2.12972 83.6216 2.45772 83.8056C2.78572 83.9816 3.18572 84.0696 3.65772 84.0696C4.08172 84.0696 4.41772 83.9856 4.66572 83.8176C4.92172 83.6496 5.04972 83.4176 5.04972 83.1216C5.04972 82.8656 4.97772 82.6576 4.83372 82.4976C4.68972 82.3376 4.49772 82.2016 4.25772 82.0896C4.02572 81.9776 3.76572 81.8776 3.47772 81.7896C3.19772 81.6936 2.91372 81.5856 2.62572 81.4656C2.34572 81.3456 2.08572 81.1976 1.84572 81.0216C1.61372 80.8376 1.42572 80.6056 1.28172 80.3256C1.13772 80.0376 1.06572 79.6776 1.06572 79.2456C1.06572 78.7336 1.18972 78.2976 1.43772 77.9376C1.68572 77.5776 2.02572 77.3016 2.45772 77.1096C2.88972 76.9176 3.37772 76.8216 3.92172 76.8216C4.49772 76.8216 5.01772 76.9296 5.48172 77.1456C5.94572 77.3616 6.32572 77.6416 6.62172 77.9856L5.54172 79.0656C5.29372 78.7936 5.03772 78.5936 4.77372 78.4656C4.51772 78.3376 4.22572 78.2736 3.89772 78.2736C3.52172 78.2736 3.22572 78.3456 3.00972 78.4896C2.79372 78.6336 2.68572 78.8416 2.68572 79.1136C2.68572 79.3456 2.75772 79.5336 2.90172 79.6776C3.04572 79.8216 3.23372 79.9456 3.46572 80.0496C3.70572 80.1536 3.96572 80.2536 4.24572 80.3496C4.53372 80.4456 4.81772 80.5536 5.09772 80.6736C5.38572 80.7936 5.64572 80.9496 5.87772 81.1416C6.11772 81.3336 6.30972 81.5816 6.45372 81.8856C6.59772 82.1816 6.66972 82.5496 6.66972 82.9896C6.66972 83.7736 6.39372 84.3896 5.84172 84.8376C5.28972 85.2856 4.53372 85.5096 3.57372 85.5096ZM10.1669 85.5096C9.63888 85.5096 9.16288 85.3776 8.73888 85.1136C8.31488 84.8496 7.98288 84.4896 7.74288 84.0336C7.50288 83.5776 7.38288 83.0656 7.38288 82.4976C7.38288 81.9216 7.50288 81.4056 7.74288 80.9496C7.98288 80.4936 8.31488 80.1336 8.73888 79.8696C9.16288 79.6056 9.63888 79.4736 10.1669 79.4736C10.5829 79.4736 10.9549 79.5576 11.2829 79.7256C11.6109 79.8936 11.8709 80.1296 12.0629 80.4336C12.2629 80.7296 12.3709 81.0656 12.3869 81.4416V83.5296C12.3709 83.9136 12.2629 84.2536 12.0629 84.5496C11.8709 84.8456 11.6109 85.0816 11.2829 85.2576C10.9549 85.4256 10.5829 85.5096 10.1669 85.5096ZM10.4549 84.0576C10.8949 84.0576 11.2509 83.9136 11.5229 83.6256C11.7949 83.3296 11.9309 82.9496 11.9309 82.4856C11.9309 82.1816 11.8669 81.9136 11.7389 81.6816C11.6189 81.4416 11.4469 81.2576 11.2229 81.1296C11.0069 80.9936 10.7509 80.9256 10.4549 80.9256C10.1669 80.9256 9.91088 80.9936 9.68688 81.1296C9.47088 81.2576 9.29888 81.4416 9.17088 81.6816C9.05088 81.9136 8.99088 82.1816 8.99088 82.4856C8.99088 82.7976 9.05088 83.0736 9.17088 83.3136C9.29888 83.5456 9.47088 83.7296 9.68688 83.8656C9.91088 83.9936 10.1669 84.0576 10.4549 84.0576ZM11.8469 85.3896V83.8296L12.0989 82.4136L11.8469 81.0216V79.5936H13.4069V85.3896H11.8469ZM16.6816 85.3896L14.1256 79.5936H15.8536L17.6896 84.3696H16.8376L18.6856 79.5936H20.3536L17.8096 85.3896H16.6816ZM21.0788 85.3896V79.5936H22.6628V85.3896H21.0788ZM21.8708 78.6576C21.6148 78.6576 21.4028 78.5736 21.2348 78.4056C21.0668 78.2296 20.9828 78.0136 20.9828 77.7576C20.9828 77.5096 21.0668 77.2976 21.2348 77.1216C21.4028 76.9456 21.6148 76.8576 21.8708 76.8576C22.1348 76.8576 22.3468 76.9456 22.5068 77.1216C22.6748 77.2976 22.7588 77.5096 22.7588 77.7576C22.7588 78.0136 22.6748 78.2296 22.5068 78.4056C22.3468 78.5736 22.1348 78.6576 21.8708 78.6576ZM27.9554 85.3896V82.0656C27.9554 81.7216 27.8474 81.4416 27.6314 81.2256C27.4154 81.0096 27.1354 80.9016 26.7914 80.9016C26.5674 80.9016 26.3674 80.9496 26.1914 81.0456C26.0154 81.1416 25.8754 81.2776 25.7714 81.4536C25.6754 81.6296 25.6274 81.8336 25.6274 82.0656L25.0154 81.7536C25.0154 81.2976 25.1114 80.9016 25.3034 80.5656C25.5034 80.2216 25.7754 79.9536 26.1194 79.7616C26.4714 79.5696 26.8674 79.4736 27.3074 79.4736C27.7314 79.4736 28.1114 79.5816 28.4474 79.7976C28.7834 80.0056 29.0474 80.2816 29.2394 80.6256C29.4314 80.9616 29.5274 81.3256 29.5274 81.7176V85.3896H27.9554ZM24.0554 85.3896V79.5936H25.6274V85.3896H24.0554ZM33.2177 87.9576C32.6017 87.9576 32.0577 87.8456 31.5857 87.6216C31.1137 87.4056 30.7377 87.0976 30.4577 86.6976L31.4537 85.7016C31.6777 85.9656 31.9257 86.1656 32.1977 86.3016C32.4777 86.4456 32.8137 86.5176 33.2057 86.5176C33.6937 86.5176 34.0777 86.3936 34.3577 86.1456C34.6457 85.8976 34.7897 85.5536 34.7897 85.1136V83.6616L35.0537 82.3896L34.8017 81.1176V79.5936H36.3617V85.0896C36.3617 85.6656 36.2257 86.1656 35.9537 86.5896C35.6897 87.0216 35.3217 87.3576 34.8497 87.5976C34.3777 87.8376 33.8337 87.9576 33.2177 87.9576ZM33.1457 85.2336C32.6257 85.2336 32.1577 85.1096 31.7417 84.8616C31.3257 84.6056 30.9977 84.2576 30.7577 83.8176C30.5257 83.3776 30.4097 82.8856 30.4097 82.3416C30.4097 81.7976 30.5257 81.3096 30.7577 80.8776C30.9977 80.4456 31.3257 80.1056 31.7417 79.8576C32.1577 79.6016 32.6257 79.4736 33.1457 79.4736C33.5777 79.4736 33.9577 79.5576 34.2857 79.7256C34.6217 79.8936 34.8857 80.1256 35.0777 80.4216C35.2697 80.7096 35.3737 81.0496 35.3897 81.4416V83.2656C35.3737 83.6496 35.2657 83.9936 35.0657 84.2976C34.8737 84.5936 34.6097 84.8256 34.2737 84.9936C33.9457 85.1536 33.5697 85.2336 33.1457 85.2336ZM33.4577 83.8056C33.7457 83.8056 33.9937 83.7456 34.2017 83.6256C34.4177 83.4976 34.5857 83.3256 34.7057 83.1096C34.8257 82.8856 34.8857 82.6336 34.8857 82.3536C34.8857 82.0656 34.8257 81.8136 34.7057 81.5976C34.5857 81.3816 34.4177 81.2136 34.2017 81.0936C33.9937 80.9656 33.7457 80.9016 33.4577 80.9016C33.1697 80.9016 32.9177 80.9656 32.7017 81.0936C32.4857 81.2136 32.3177 81.3856 32.1977 81.6096C32.0777 81.8256 32.0177 82.0736 32.0177 82.3536C32.0177 82.6256 32.0777 82.8736 32.1977 83.0976C32.3177 83.3136 32.4857 83.4856 32.7017 83.6136C32.9177 83.7416 33.1697 83.8056 33.4577 83.8056ZM40.0866 83.0376V81.6096H44.2386V83.0376H40.0866ZM47.5773 82.4136L50.4573 76.9536H52.2573L49.3053 82.4136H47.5773ZM47.5773 83.3736V82.4136L48.1773 81.9456H54.2253V83.3736H47.5773ZM51.5613 85.3896V80.0136H53.1693V85.3896H51.5613ZM57.3789 85.5096C56.7949 85.5096 56.2629 85.4096 55.7829 85.2096C55.3029 85.0016 54.9029 84.7056 54.5829 84.3216L55.6629 83.2536C55.8229 83.4936 56.0509 83.6856 56.3469 83.8296C56.6509 83.9736 56.9829 84.0456 57.3429 84.0456C57.6709 84.0456 57.9549 83.9856 58.1949 83.8656C58.4429 83.7456 58.6349 83.5776 58.7709 83.3616C58.9149 83.1376 58.9869 82.8776 58.9869 82.5816C58.9869 82.2696 58.9149 82.0056 58.7709 81.7896C58.6349 81.5736 58.4509 81.4096 58.2189 81.2976C57.9869 81.1856 57.7269 81.1296 57.4389 81.1296C57.1349 81.1296 56.8589 81.1696 56.6109 81.2496C56.3709 81.3216 56.1389 81.4416 55.9149 81.6096L56.0109 80.5776C56.1629 80.4176 56.3229 80.2896 56.4909 80.1936C56.6589 80.0896 56.8469 80.0136 57.0549 79.9656C57.2709 79.9096 57.5229 79.8816 57.8109 79.8816C58.4269 79.8816 58.9389 80.0096 59.3469 80.2656C59.7629 80.5136 60.0789 80.8496 60.2949 81.2736C60.5109 81.6896 60.6189 82.1496 60.6189 82.6536C60.6189 83.2056 60.4829 83.6976 60.2109 84.1296C59.9389 84.5616 59.5589 84.9016 59.0709 85.1496C58.5909 85.3896 58.0269 85.5096 57.3789 85.5096ZM55.9149 81.6096L55.1349 80.8416L55.5189 76.9536H56.9949L56.5629 80.9016L55.9149 81.6096ZM55.7709 78.3696L55.5189 76.9536H60.1509V78.3696H55.7709ZM61.6837 85.3896L66.9157 76.9536H68.4037L63.1717 85.3896H61.6837ZM66.8797 85.5096C66.5597 85.5096 66.2677 85.4336 66.0037 85.2816C65.7397 85.1216 65.5277 84.9136 65.3677 84.6576C65.2157 84.3936 65.1397 84.0976 65.1397 83.7696C65.1397 83.4416 65.2157 83.1496 65.3677 82.8936C65.5277 82.6376 65.7357 82.4336 65.9917 82.2816C66.2557 82.1216 66.5517 82.0416 66.8797 82.0416C67.2077 82.0416 67.5037 82.1216 67.7677 82.2816C68.0317 82.4336 68.2397 82.6376 68.3917 82.8936C68.5517 83.1496 68.6317 83.4416 68.6317 83.7696C68.6317 84.0976 68.5517 84.3936 68.3917 84.6576C68.2397 84.9136 68.0317 85.1216 67.7677 85.2816C67.5117 85.4336 67.2157 85.5096 66.8797 85.5096ZM66.8797 84.3696C67.0557 84.3696 67.1997 84.3136 67.3117 84.2016C67.4237 84.0896 67.4797 83.9456 67.4797 83.7696C67.4797 83.6016 67.4197 83.4616 67.2997 83.3496C67.1877 83.2376 67.0477 83.1816 66.8797 83.1816C66.7117 83.1816 66.5717 83.2376 66.4597 83.3496C66.3557 83.4616 66.3037 83.6016 66.3037 83.7696C66.3037 83.9456 66.3557 84.0896 66.4597 84.2016C66.5717 84.3136 66.7117 84.3696 66.8797 84.3696ZM63.1837 80.3016C62.8717 80.3016 62.5797 80.2256 62.3077 80.0736C62.0437 79.9136 61.8357 79.7016 61.6837 79.4376C61.5317 79.1736 61.4557 78.8816 61.4557 78.5616C61.4557 78.2336 61.5317 77.9416 61.6837 77.6856C61.8357 77.4296 62.0437 77.2256 62.3077 77.0736C62.5717 76.9136 62.8637 76.8336 63.1837 76.8336C63.5117 76.8336 63.8077 76.9136 64.0717 77.0736C64.3437 77.2256 64.5557 77.4296 64.7077 77.6856C64.8597 77.9416 64.9357 78.2336 64.9357 78.5616C64.9357 78.8816 64.8557 79.1736 64.6957 79.4376C64.5437 79.7016 64.3357 79.9136 64.0717 80.0736C63.8157 80.2256 63.5197 80.3016 63.1837 80.3016ZM63.1837 79.1616C63.3677 79.1616 63.5117 79.1056 63.6157 78.9936C63.7197 78.8816 63.7717 78.7376 63.7717 78.5616C63.7717 78.3856 63.7157 78.2416 63.6037 78.1296C63.4997 78.0176 63.3597 77.9616 63.1837 77.9616C63.0157 77.9616 62.8797 78.0176 62.7757 78.1296C62.6717 78.2416 62.6197 78.3856 62.6197 78.5616C62.6197 78.7376 62.6717 78.8816 62.7757 78.9936C62.8797 79.1056 63.0157 79.1616 63.1837 79.1616Z" fill="#00D015"/>
<path d="M73.1807 81.2334H92.3974L108.895 81.2334" stroke="#CDCDCD" stroke-dasharray="4 4"/>
<g clip-path="url(#clip0_308_4765)">
<path d="M242.237 116.999C247.434 119.536 253.781 117.393 255.568 111.893C259.868 98.6584 260.411 84.4138 257.028 70.774C252.799 53.7279 242.707 38.7134 228.52 28.3614C214.332 18.0094 196.954 12.9801 179.431 14.1548C165.409 15.0948 152.01 19.9591 140.719 28.092C136.027 31.472 135.922 38.1707 139.924 42.3456C143.925 46.5205 150.514 46.5567 155.384 43.4371C162.977 38.5721 171.722 35.6609 180.832 35.0503C193.449 34.2045 205.961 37.8255 216.176 45.279C226.391 52.7324 233.657 63.5429 236.701 75.816C238.9 84.6776 238.796 93.8936 236.48 102.61C234.995 108.199 237.04 114.462 242.237 116.999Z" fill="#F05526"/>
<path d="M137.213 45.1046C132.968 41.1778 126.272 41.4016 122.976 46.1535C115.701 56.6421 111.197 68.8708 109.976 81.6935C108.756 94.5162 110.872 107.375 116.037 119.048C118.377 124.336 124.91 125.819 129.82 122.764C134.731 119.709 136.124 113.269 134.075 107.861C131.172 100.198 130.039 91.9276 130.824 83.6781C131.61 75.4286 134.283 67.5206 138.58 60.5428C141.612 55.6185 141.459 49.0314 137.213 45.1046Z" fill="#00D015"/>
<path d="M131.917 125.922C127.195 129.261 126.026 135.858 129.992 140.067C136.034 146.481 143.181 151.797 151.12 155.747C162.194 161.256 174.462 163.933 186.825 163.537C199.188 163.142 211.26 159.686 221.96 153.48C229.629 149.032 236.423 143.27 242.042 136.483C245.731 132.028 244.142 125.52 239.217 122.49C234.292 119.459 227.907 121.086 223.981 125.333C220.343 129.269 216.123 132.656 211.452 135.365C203.749 139.833 195.057 142.321 186.156 142.606C177.254 142.89 168.421 140.963 160.448 136.996C155.613 134.591 151.186 131.482 147.303 127.786C143.114 123.798 136.639 122.583 131.917 125.922Z" fill="#1A3D38"/>
</g>
<defs>
<clipPath id="clip0_308_4765">
<rect width="150" height="150" fill="white" transform="translate(109.262 13.6104)"/>
</clipPath>
</defs>
</svg>
