<svg width="435" height="548" viewBox="0 0 435 548" fill="none" xmlns="http://www.w3.org/2000/svg">
<path d="M7.27872 384.971L34.7931 354.081C35.1029 353.737 35.3063 353.31 35.3787 352.852C35.451 352.394 35.3892 351.925 35.2007 351.502C35.0122 351.079 34.7051 350.72 34.3167 350.468C33.9284 350.216 33.4754 350.083 33.0129 350.084H16.7206C12.2938 350.084 8.04775 348.325 4.91335 345.193C1.77895 342.061 0.0120685 337.811 0.000136553 333.375V208.077C0.00210319 199.852 3.01708 191.913 8.47303 185.768L165.086 9.64177C167.773 6.61083 171.069 4.18454 174.759 2.52265C178.449 0.860773 182.449 0.00101551 186.494 0H418.034C420.233 0 422.41 0.433953 424.441 1.27708C426.473 2.12021 428.318 3.35601 429.873 4.91391C431.428 6.47181 432.661 8.3213 433.502 10.3568C434.344 12.3923 434.777 14.5739 434.777 16.7771V143.227C434.774 150.208 432.234 156.951 427.634 162.194L399.894 193.806C399.59 194.153 399.392 194.579 399.325 195.035C399.257 195.492 399.323 195.958 399.513 196.377C399.703 196.797 400.011 197.153 400.398 197.402C400.786 197.651 401.236 197.782 401.697 197.78H418.034C422.471 197.78 426.726 199.545 429.865 202.686C433.004 205.828 434.771 210.089 434.777 214.535V340.984C434.779 348.039 432.188 354.848 427.498 360.11L270.412 536.71C267.28 540.25 263.437 543.086 259.133 545.032C254.83 546.978 250.165 547.99 245.444 548H16.7206C14.5181 547.997 12.3378 547.559 10.3046 546.71C8.27143 545.861 6.42535 544.619 4.87212 543.054C3.3189 541.489 2.08904 539.633 1.25302 537.591C0.417 535.549 -0.00875852 533.362 0.000136553 531.155V404.096C0.00216043 397.042 2.59273 390.235 7.27872 384.971Z" fill="#F15625"/>
</svg>
